<svg width="496" height="91" viewBox="0 0 496 91" fill="none" xmlns="http://www.w3.org/2000/svg">
<rect x="20" width="476" height="71" fill="#9E1B1E"/>
<rect y="20" width="473" height="71" fill="#9E1B1E"/>
<rect x="10" y="10" width="475" height="71" fill="#D82E11"/>
<path d="M33.575 55.3C32.0417 55.3 30.7417 55.0417 29.675 54.525C28.6083 53.9917 27.7 53.3083 26.95 52.475L29.45 49.95C30.6333 51.2833 32.0917 51.95 33.825 51.95C34.7583 51.95 35.45 51.7583 35.9 51.375C36.35 50.9917 36.575 50.4833 36.575 49.85C36.575 49.3667 36.4417 48.9667 36.175 48.65C35.9083 48.3167 35.3667 48.0917 34.55 47.975L32.825 47.75C30.975 47.5167 29.6167 46.9583 28.75 46.075C27.9 45.1917 27.475 44.0167 27.475 42.55C27.475 41.7667 27.625 41.05 27.925 40.4C28.225 39.75 28.65 39.1917 29.2 38.725C29.7667 38.2583 30.45 37.9 31.25 37.65C32.0667 37.3833 32.9917 37.25 34.025 37.25C35.3417 37.25 36.5 37.4583 37.5 37.875C38.5 38.2917 39.3583 38.9 40.075 39.7L37.55 42.25C37.1333 41.7667 36.625 41.375 36.025 41.075C35.4417 40.7583 34.7 40.6 33.8 40.6C32.95 40.6 32.3167 40.75 31.9 41.05C31.4833 41.35 31.275 41.7667 31.275 42.3C31.275 42.9 31.4333 43.3333 31.75 43.6C32.0833 43.8667 32.6167 44.0583 33.35 44.175L35.075 44.45C36.875 44.7333 38.2083 45.2917 39.075 46.125C39.9417 46.9417 40.375 48.1083 40.375 49.625C40.375 50.4583 40.225 51.225 39.925 51.925C39.625 52.625 39.1833 53.225 38.6 53.725C38.0333 54.225 37.325 54.6167 36.475 54.9C35.625 55.1667 34.6583 55.3 33.575 55.3ZM46.6506 37.55V48.25C46.6506 49.4833 46.8923 50.4083 47.3756 51.025C47.8589 51.625 48.6673 51.925 49.8006 51.925C50.9339 51.925 51.7423 51.625 52.2256 51.025C52.7089 50.4083 52.9506 49.4833 52.9506 48.25V37.55H56.6506V47.85C56.6506 49.1333 56.5256 50.25 56.2756 51.2C56.0423 52.1333 55.6506 52.9083 55.1006 53.525C54.5506 54.125 53.8423 54.575 52.9756 54.875C52.1089 55.1583 51.0506 55.3 49.8006 55.3C48.5506 55.3 47.4923 55.1583 46.6256 54.875C45.7589 54.575 45.0506 54.125 44.5006 53.525C43.9506 52.9083 43.5506 52.1333 43.3006 51.2C43.0673 50.25 42.9506 49.1333 42.9506 47.85V37.55H46.6506ZM59.934 37.55H68.409C69.859 37.55 70.984 37.9583 71.784 38.775C72.6007 39.5917 73.009 40.675 73.009 42.025C73.009 42.6917 72.9173 43.2583 72.734 43.725C72.5673 44.1917 72.334 44.575 72.034 44.875C71.7507 45.175 71.409 45.4 71.009 45.55C70.6257 45.6833 70.209 45.7583 69.759 45.775V45.925C70.1757 45.925 70.609 46 71.059 46.15C71.5257 46.3 71.9507 46.5417 72.334 46.875C72.7173 47.1917 73.034 47.6083 73.284 48.125C73.5507 48.6417 73.684 49.275 73.684 50.025C73.684 50.7083 73.5673 51.3583 73.334 51.975C73.1173 52.575 72.809 53.1 72.409 53.55C72.009 54 71.534 54.3583 70.984 54.625C70.434 54.875 69.834 55 69.184 55H59.934V37.55ZM63.734 51.8H68.109C68.609 51.8 69.0007 51.6667 69.284 51.4C69.584 51.1167 69.734 50.725 69.734 50.225V49.375C69.734 48.875 69.584 48.4917 69.284 48.225C69.0007 47.9417 68.609 47.8 68.109 47.8H63.734V51.8ZM63.734 44.7H67.509C68.009 44.7 68.4007 44.5583 68.684 44.275C68.9673 43.9917 69.109 43.6 69.109 43.1V42.35C69.109 41.85 68.9673 41.4583 68.684 41.175C68.4007 40.8917 68.009 40.75 67.509 40.75H63.734V44.7ZM81.7838 55.3C80.2505 55.3 78.9505 55.0417 77.8838 54.525C76.8171 53.9917 75.9088 53.3083 75.1588 52.475L77.6588 49.95C78.8421 51.2833 80.3005 51.95 82.0338 51.95C82.9671 51.95 83.6588 51.7583 84.1088 51.375C84.5588 50.9917 84.7838 50.4833 84.7838 49.85C84.7838 49.3667 84.6505 48.9667 84.3838 48.65C84.1171 48.3167 83.5755 48.0917 82.7588 47.975L81.0338 47.75C79.1838 47.5167 77.8255 46.9583 76.9588 46.075C76.1088 45.1917 75.6838 44.0167 75.6838 42.55C75.6838 41.7667 75.8338 41.05 76.1338 40.4C76.4338 39.75 76.8588 39.1917 77.4088 38.725C77.9755 38.2583 78.6588 37.9 79.4588 37.65C80.2755 37.3833 81.2005 37.25 82.2338 37.25C83.5505 37.25 84.7088 37.4583 85.7088 37.875C86.7088 38.2917 87.5671 38.9 88.2838 39.7L85.7588 42.25C85.3421 41.7667 84.8338 41.375 84.2338 41.075C83.6505 40.7583 82.9088 40.6 82.0088 40.6C81.1588 40.6 80.5255 40.75 80.1088 41.05C79.6921 41.35 79.4838 41.7667 79.4838 42.3C79.4838 42.9 79.6421 43.3333 79.9588 43.6C80.2921 43.8667 80.8255 44.0583 81.5588 44.175L83.2838 44.45C85.0838 44.7333 86.4171 45.2917 87.2838 46.125C88.1505 46.9417 88.5838 48.1083 88.5838 49.625C88.5838 50.4583 88.4338 51.225 88.1338 51.925C87.8338 52.625 87.3921 53.225 86.8088 53.725C86.2421 54.225 85.5338 54.6167 84.6838 54.9C83.8338 55.1667 82.8671 55.3 81.7838 55.3ZM98.3094 55.3C97.126 55.3 96.0594 55.1167 95.1094 54.75C94.1594 54.3667 93.351 53.8083 92.6844 53.075C92.0177 52.325 91.501 51.4 91.1344 50.3C90.7677 49.1833 90.5844 47.8833 90.5844 46.4C90.5844 44.9333 90.7677 43.6333 91.1344 42.5C91.501 41.35 92.0177 40.3917 92.6844 39.625C93.351 38.8417 94.1594 38.25 95.1094 37.85C96.0594 37.45 97.126 37.25 98.3094 37.25C99.926 37.25 101.259 37.5833 102.309 38.25C103.359 38.9 104.201 39.9333 104.834 41.35L101.559 43.05C101.326 42.3167 100.959 41.7333 100.459 41.3C99.976 40.85 99.2594 40.625 98.3094 40.625C97.1927 40.625 96.2927 40.9917 95.6094 41.725C94.9427 42.4417 94.6094 43.4917 94.6094 44.875V47.675C94.6094 49.0583 94.9427 50.1167 95.6094 50.85C96.2927 51.5667 97.1927 51.925 98.3094 51.925C99.2427 51.925 99.9844 51.675 100.534 51.175C101.101 50.6583 101.518 50.0417 101.784 49.325L104.884 51.125C104.234 52.4583 103.376 53.4917 102.309 54.225C101.259 54.9417 99.926 55.3 98.3094 55.3ZM110.869 55H107.069V37.55H115.344C116.144 37.55 116.869 37.6833 117.519 37.95C118.169 38.2167 118.719 38.6 119.169 39.1C119.635 39.5833 119.994 40.1667 120.244 40.85C120.494 41.5333 120.619 42.2917 120.619 43.125C120.619 44.3083 120.352 45.3417 119.819 46.225C119.302 47.1083 118.51 47.75 117.444 48.15L120.869 55H116.644L113.594 48.6H110.869V55ZM114.869 45.4C115.435 45.4 115.877 45.2583 116.194 44.975C116.527 44.675 116.694 44.2417 116.694 43.675V42.575C116.694 42.0083 116.527 41.5833 116.194 41.3C115.877 41 115.435 40.85 114.869 40.85H110.869V45.4H114.869ZM122.764 55V51.975H125.014V40.575H122.764V37.55H131.064V40.575H128.814V51.975H131.064V55H122.764ZM133.755 37.55H142.23C143.68 37.55 144.805 37.9583 145.605 38.775C146.422 39.5917 146.83 40.675 146.83 42.025C146.83 42.6917 146.739 43.2583 146.555 43.725C146.389 44.1917 146.155 44.575 145.855 44.875C145.572 45.175 145.23 45.4 144.83 45.55C144.447 45.6833 144.03 45.7583 143.58 45.775V45.925C143.997 45.925 144.43 46 144.88 46.15C145.347 46.3 145.772 46.5417 146.155 46.875C146.539 47.1917 146.855 47.6083 147.105 48.125C147.372 48.6417 147.505 49.275 147.505 50.025C147.505 50.7083 147.389 51.3583 147.155 51.975C146.939 52.575 146.63 53.1 146.23 53.55C145.83 54 145.355 54.3583 144.805 54.625C144.255 54.875 143.655 55 143.005 55H133.755V37.55ZM137.555 51.8H141.93C142.43 51.8 142.822 51.6667 143.105 51.4C143.405 51.1167 143.555 50.725 143.555 50.225V49.375C143.555 48.875 143.405 48.4917 143.105 48.225C142.822 47.9417 142.43 47.8 141.93 47.8H137.555V51.8ZM137.555 44.7H141.33C141.83 44.7 142.222 44.5583 142.505 44.275C142.789 43.9917 142.93 43.6 142.93 43.1V42.35C142.93 41.85 142.789 41.4583 142.505 41.175C142.222 40.8917 141.83 40.75 141.33 40.75H137.555V44.7ZM149.955 55V37.55H161.83V40.925H153.755V44.5H160.68V47.85H153.755V51.625H161.83V55H149.955ZM177.374 40.925V55H173.574V40.925H168.849V37.55H182.099V40.925H177.374ZM190.589 55.3C189.439 55.3 188.389 55.1083 187.439 54.725C186.489 54.3417 185.68 53.775 185.014 53.025C184.347 52.2583 183.83 51.3167 183.464 50.2C183.097 49.0667 182.914 47.7583 182.914 46.275C182.914 44.7917 183.097 43.4917 183.464 42.375C183.83 41.2417 184.347 40.3 185.014 39.55C185.68 38.7833 186.489 38.2083 187.439 37.825C188.389 37.4417 189.439 37.25 190.589 37.25C191.739 37.25 192.789 37.4417 193.739 37.825C194.689 38.2083 195.497 38.7833 196.164 39.55C196.83 40.3 197.347 41.2417 197.714 42.375C198.08 43.4917 198.264 44.7917 198.264 46.275C198.264 47.7583 198.08 49.0667 197.714 50.2C197.347 51.3167 196.83 52.2583 196.164 53.025C195.497 53.775 194.689 54.3417 193.739 54.725C192.789 55.1083 191.739 55.3 190.589 55.3ZM190.589 51.925C191.739 51.925 192.63 51.55 193.264 50.8C193.914 50.05 194.239 48.975 194.239 47.575V44.975C194.239 43.575 193.914 42.5 193.264 41.75C192.63 41 191.739 40.625 190.589 40.625C189.439 40.625 188.539 41 187.889 41.75C187.255 42.5 186.939 43.575 186.939 44.975V47.575C186.939 48.975 187.255 50.05 187.889 50.8C188.539 51.55 189.439 51.925 190.589 51.925ZM213.394 55.3C212.244 55.3 211.194 55.1083 210.244 54.725C209.294 54.3417 208.485 53.775 207.819 53.025C207.152 52.2583 206.635 51.3167 206.269 50.2C205.902 49.0667 205.719 47.7583 205.719 46.275C205.719 44.7917 205.902 43.4917 206.269 42.375C206.635 41.2417 207.152 40.3 207.819 39.55C208.485 38.7833 209.294 38.2083 210.244 37.825C211.194 37.4417 212.244 37.25 213.394 37.25C214.544 37.25 215.594 37.4417 216.544 37.825C217.494 38.2083 218.302 38.7833 218.969 39.55C219.635 40.3 220.152 41.2417 220.519 42.375C220.885 43.4917 221.069 44.7917 221.069 46.275C221.069 47.7583 220.885 49.0667 220.519 50.2C220.152 51.3167 219.635 52.2583 218.969 53.025C218.302 53.775 217.494 54.3417 216.544 54.725C215.594 55.1083 214.544 55.3 213.394 55.3ZM213.394 51.925C214.544 51.925 215.435 51.55 216.069 50.8C216.719 50.05 217.044 48.975 217.044 47.575V44.975C217.044 43.575 216.719 42.5 216.069 41.75C215.435 41 214.544 40.625 213.394 40.625C212.244 40.625 211.344 41 210.694 41.75C210.06 42.5 209.744 43.575 209.744 44.975V47.575C209.744 48.975 210.06 50.05 210.694 50.8C211.344 51.55 212.244 51.925 213.394 51.925ZM227.365 37.55V48.25C227.365 49.4833 227.607 50.4083 228.09 51.025C228.574 51.625 229.382 51.925 230.515 51.925C231.649 51.925 232.457 51.625 232.94 51.025C233.424 50.4083 233.665 49.4833 233.665 48.25V37.55H237.365V47.85C237.365 49.1333 237.24 50.25 236.99 51.2C236.757 52.1333 236.365 52.9083 235.815 53.525C235.265 54.125 234.557 54.575 233.69 54.875C232.824 55.1583 231.765 55.3 230.515 55.3C229.265 55.3 228.207 55.1583 227.34 54.875C226.474 54.575 225.765 54.125 225.215 53.525C224.665 52.9083 224.265 52.1333 224.015 51.2C223.782 50.25 223.665 49.1333 223.665 47.85V37.55H227.365ZM244.449 55H240.649V37.55H248.924C249.724 37.55 250.449 37.6833 251.099 37.95C251.749 38.2167 252.299 38.6 252.749 39.1C253.215 39.5833 253.574 40.1667 253.824 40.85C254.074 41.5333 254.199 42.2917 254.199 43.125C254.199 44.3083 253.932 45.3417 253.399 46.225C252.882 47.1083 252.09 47.75 251.024 48.15L254.449 55H250.224L247.174 48.6H244.449V55ZM248.449 45.4C249.015 45.4 249.457 45.2583 249.774 44.975C250.107 44.675 250.274 44.2417 250.274 43.675V42.575C250.274 42.0083 250.107 41.5833 249.774 41.3C249.457 41 249.015 40.85 248.449 40.85H244.449V45.4H248.449ZM262.453 55V37.55H274.328V40.925H266.253V44.5H273.178V47.85H266.253V51.625H274.328V55H262.453ZM281.213 55L275.588 37.55H279.438L282.038 45.925L283.413 51.4H283.488L284.813 45.925L287.413 37.55H291.138L285.463 55H281.213ZM292.948 55V37.55H304.823V40.925H296.748V44.5H303.673V47.85H296.748V51.625H304.823V55H292.948ZM312.983 46.75L311.308 43.25H311.233V55H307.658V37.55H311.808L316.583 45.8L318.258 49.3H318.333V37.55H321.908V55H317.758L312.983 46.75ZM332.549 40.925V55H328.749V40.925H324.024V37.55H337.274V40.925H332.549ZM351.882 55.3C350.699 55.3 349.632 55.1167 348.682 54.75C347.732 54.3667 346.924 53.8083 346.257 53.075C345.59 52.325 345.074 51.4 344.707 50.3C344.34 49.1833 344.157 47.8833 344.157 46.4C344.157 44.9333 344.34 43.6333 344.707 42.5C345.074 41.35 345.59 40.3917 346.257 39.625C346.924 38.8417 347.732 38.25 348.682 37.85C349.632 37.45 350.699 37.25 351.882 37.25C353.499 37.25 354.832 37.5833 355.882 38.25C356.932 38.9 357.774 39.9333 358.407 41.35L355.132 43.05C354.899 42.3167 354.532 41.7333 354.032 41.3C353.549 40.85 352.832 40.625 351.882 40.625C350.765 40.625 349.865 40.9917 349.182 41.725C348.515 42.4417 348.182 43.4917 348.182 44.875V47.675C348.182 49.0583 348.515 50.1167 349.182 50.85C349.865 51.5667 350.765 51.925 351.882 51.925C352.815 51.925 353.557 51.675 354.107 51.175C354.674 50.6583 355.09 50.0417 355.357 49.325L358.457 51.125C357.807 52.4583 356.949 53.4917 355.882 54.225C354.832 54.9417 353.499 55.3 351.882 55.3ZM371.196 55L369.946 50.85H364.121L362.871 55H359.021L364.771 37.55H369.471L375.146 55H371.196ZM367.071 41H366.946L365.021 47.625H369.021L367.071 41ZM377.085 55V37.55H380.885V51.625H387.535V55H377.085ZM389.867 55V37.55H401.742V40.925H393.667V44.5H400.592V47.85H393.667V51.625H401.742V55H389.867ZM409.903 46.75L408.228 43.25H408.153V55H404.578V37.55H408.728L413.503 45.8L415.178 49.3H415.253V37.55H418.828V55H414.678L409.903 46.75ZM422.193 37.55H428.768C429.918 37.55 430.968 37.7333 431.918 38.1C432.868 38.4667 433.677 39.0167 434.343 39.75C435.01 40.4667 435.527 41.375 435.893 42.475C436.26 43.5583 436.443 44.825 436.443 46.275C436.443 47.725 436.26 49 435.893 50.1C435.527 51.1833 435.01 52.0917 434.343 52.825C433.677 53.5417 432.868 54.0833 431.918 54.45C430.968 54.8167 429.918 55 428.768 55H422.193V37.55ZM428.768 51.625C429.902 51.625 430.793 51.3083 431.443 50.675C432.093 50.0417 432.418 49.025 432.418 47.625V44.925C432.418 43.525 432.093 42.5083 431.443 41.875C430.793 41.2417 429.902 40.925 428.768 40.925H425.993V51.625H428.768ZM448.972 55L447.722 50.85H441.897L440.647 55H436.797L442.547 37.55H447.247L452.922 55H448.972ZM444.847 41H444.722L442.797 47.625H446.797L444.847 41ZM458.662 55H454.862V37.55H463.137C463.937 37.55 464.662 37.6833 465.312 37.95C465.962 38.2167 466.512 38.6 466.962 39.1C467.428 39.5833 467.787 40.1667 468.037 40.85C468.287 41.5333 468.412 42.2917 468.412 43.125C468.412 44.3083 468.145 45.3417 467.612 46.225C467.095 47.1083 466.303 47.75 465.237 48.15L468.662 55H464.437L461.387 48.6H458.662V55ZM462.662 45.4C463.228 45.4 463.67 45.2583 463.987 44.975C464.32 44.675 464.487 44.2417 464.487 43.675V42.575C464.487 42.0083 464.32 41.5833 463.987 41.3C463.67 41 463.228 40.85 462.662 40.85H458.662V45.4H462.662Z" fill="#FFF8F2"/>
</svg>
