<svg xmlns="http://www.w3.org/2000/svg" width="155" height="42" fill="none"><g clip-path="url(#a)"><path fill="#FFF8F2" d="M117.843 7.642a6.7 6.7 0 0 0-2.263-1.36q-1.3-.489-2.848-.489h-5.505v13.372h5.542q1.529-.002 2.811-.473a6.9 6.9 0 0 0 2.263-1.376 6.1 6.1 0 0 0 1.49-2.113q.547-1.226.547-2.735 0-1.49-.549-2.715a6.1 6.1 0 0 0-1.49-2.111zm-1.865 6.902a3 3 0 0 1-1.302 1.284q-.83.433-1.963.433h-2.111V8.698h2.111q1.132.001 1.963.436.829.433 1.283 1.283.472.827.473 2.035-.002 1.225-.452 2.094zM131.636 16.294v2.87h-9.999V5.794h9.886v2.87h-6.484v2.425h5.914v2.796h-5.914v2.41zM56.157 8.663v2.592h5.97v2.87h-5.97v5.04h-3.403V5.793h9.676v2.87zM75.512 7.704a6.45 6.45 0 0 0-2.184-1.401q-1.258-.51-2.746-.51-1.49 0-2.749.51a6.4 6.4 0 0 0-2.183 1.4 6.7 6.7 0 0 0-1.457 2.128 6.7 6.7 0 0 0-.508 2.62q0 1.422.527 2.657a6.6 6.6 0 0 0 1.457 2.13 6.8 6.8 0 0 0 2.201 1.417q1.257.51 2.749.51c.995 0 1.886-.164 2.711-.492a6.7 6.7 0 0 0 2.183-1.417 6.6 6.6 0 0 0 1.437-2.148q.525-1.218.526-2.638 0-1.42-.526-2.639a6.4 6.4 0 0 0-1.437-2.127zm-1.802 6.75a3.2 3.2 0 0 1-1.238 1.328q-.8.475-1.89.475a4 4 0 0 1-1.476-.256 3.3 3.3 0 0 1-1.128-.763 3.6 3.6 0 0 1-.729-1.201q-.235-.71-.235-1.585 0-1.13.435-1.983.436-.855 1.239-1.31.798-.472 1.892-.473.817 0 1.473.272a3.2 3.2 0 0 1 1.129.782q.47.493.71 1.183.253.69.253 1.527 0 1.146-.435 2.001zM101.353 5.793h3.374v13.372h-2.507l-5.846-7.43v7.43h-3.376V5.793h2.357l5.998 7.6zM87.362 5.793h3.423v7.8q0 1.616-.724 2.889a5.2 5.2 0 0 1-2.014 1.977q-1.275.704-3.004.703c-1.154 0-2.149-.233-3.024-.703a5.16 5.16 0 0 1-2.016-1.998q-.721-1.273-.722-2.889V5.793h3.384v8.03q0 .72.304 1.254.324.513.856.8a2.75 2.75 0 0 0 1.218.266c.445 0 .854-.088 1.196-.266q.514-.286.817-.8.305-.514.306-1.234zM140.656 13.595q.524-.118.981-.332 1.056-.509 1.642-1.397.604-.904.603-2.093 0-1.188-.584-2.073-.584-.886-1.622-1.397-1.017-.51-2.375-.51h-5.696v13.372h3.376v-5.413h.201l3.664 5.413h3.904l-4.091-5.574zm-3.677-5.293h1.849q.83 0 1.263.436.452.415.452 1.093c0 .452-.151.836-.452 1.113q-.433.399-1.263.398h-1.849v-3.0399999999999996M154.999 15.11q0 1.935-1.37 2.996-1.353 1.058-3.801 1.058-1.624 0-2.831-.493-1.189-.492-2.173-1.552l2.064-2.084q.676.712 1.442 1.096.768.366 1.736.367c.546 0 .969-.093 1.258-.274q.458-.293.456-.786a.96.96 0 0 0-.328-.75 2.7 2.7 0 0 0-.877-.528 10 10 0 0 0-1.188-.437 16 16 0 0 1-1.298-.512 6.5 6.5 0 0 1-1.187-.749 3.3 3.3 0 0 1-.858-1.096q-.328-.656-.328-1.626-.001-1.24.586-2.119.601-.879 1.661-1.351 1.059-.475 2.464-.475t2.596.475q1.187.475 1.954 1.316l-2.084 2.064q-.586-.583-1.187-.88a3 3 0 0 0-1.317-.29q-.677 0-1.058.235a.75.75 0 0 0-.384.677q0 .44.328.712.329.273.859.495.548.201 1.186.419c.44.144.871.317 1.298.511a5 5 0 0 1 1.17.747q.55.459.877 1.152.328.692.328 1.682zM80.056 26.368a6.6 6.6 0 0 0-1.408-2.136 6.4 6.4 0 0 0-2.096-1.426 6.5 6.5 0 0 0-2.567-.505c-.922 0-1.79.169-2.59.505a6.5 6.5 0 0 0-2.082 1.426 6.9 6.9 0 0 0-1.385 2.136q-.488 1.201-.489 2.606c0 .937.164 1.793.49 2.604a6.9 6.9 0 0 0 1.405 2.155 6.6 6.6 0 0 0 2.096 1.444q1.201.505 2.59.506c.924 0 1.76-.17 2.548-.506a6.4 6.4 0 0 0 2.08-1.444 6.7 6.7 0 0 0 1.408-2.136 6.8 6.8 0 0 0 .505-2.606c0-.925-.169-1.812-.505-2.625zm-1.932 5.21a4.7 4.7 0 0 1-1.686 1.781q-1.051.638-2.455.638a4.8 4.8 0 0 1-1.913-.376 4.6 4.6 0 0 1-1.5-1.032 4.9 4.9 0 0 1-.972-1.593 5.9 5.9 0 0 1-.338-2.024q0-1.46.598-2.588.62-1.124 1.671-1.762 1.067-.639 2.456-.637 1.049-.001 1.91.373.861.358 1.499 1.032t.994 1.593q.357.9.357 1.99 0 1.46-.619 2.603zM93.325 22.299v8.289q0 1.027-.435 1.787-.42.761-1.16 1.18-.722.42-1.692.42a3.4 3.4 0 0 1-1.692-.42 3.1 3.1 0 0 1-1.178-1.18q-.439-.76-.438-1.806V22.3h-1.787v8.31q.001 1.46.665 2.624a4.95 4.95 0 0 0 1.805 1.806q1.162.648 2.625.646c.976 0 1.864-.215 2.625-.646a4.9 4.9 0 0 0 1.806-1.806q.663-1.142.664-2.606v-8.326h-1.806zM108.116 30.303a3.1 3.1 0 0 0-.899-1.124 5.5 5.5 0 0 0-1.236-.714q-.677-.28-1.368-.506-.675-.243-1.239-.526a3 3 0 0 1-.918-.675q-.337-.41-.336-1.069 0-.824.619-1.275.62-.468 1.669-.468.864-.001 1.519.338.675.337 1.257 1.011l1.199-1.199a4.6 4.6 0 0 0-1.649-1.294q-1.015-.504-2.286-.505-1.164 0-2.101.431a3.44 3.44 0 0 0-1.461 1.199q-.526.768-.526 1.874 0 .993.336 1.648.359.657.918 1.07.562.395 1.236.676.677.263 1.352.506.675.223 1.236.526.581.28.918.73.337.452.337 1.18 0 .883-.712 1.387-.695.506-1.857.506c-.776 0-1.451-.145-1.988-.431q-.805-.453-1.423-1.313l-1.2 1.2q.844 1.068 1.93 1.63t2.625.56q2.024.001 3.207-.973 1.199-.974 1.198-2.697c0-.687-.117-1.26-.357-1.707zM121.638 34.048v1.637h-8.783V22.299h8.783v1.636h-6.996v4.278h6.368v1.558h-6.368v4.277zM63.059 22.299v13.386h-1.787V29.81h-6.729v5.875h-1.79V22.299h1.79v5.875h6.729v-5.875z"/><path fill="#F02820" d="M11.484 5.793h-5.69v5.689h5.69zM35.681 29.992v5.69H24.3l5.689-5.69h5.693"/><path fill="#9E1B1E" d="M35.683 5.793v24.199h-5.691v-18.51H11.484V5.793z"/><path fill="#F02820" d="M41.374.102v29.89h-5.69v-24.2h-24.2V.103zM24.3 35.685l-5.689 5.69H.104v-29.89h5.689v24.198H24.3z"/><path fill="#9E1B1E" d="m29.992 29.994-5.69 5.69H5.794v-24.2h5.689v18.51h18.51"/><path fill="#590D0F" d="M29.994 11.484v18.508H11.486V11.484h18.51z"/></g><defs><clipPath id="a"><path fill="#fff" d="M0 0h155v41.478H0z"/></clipPath></defs></svg>