<svg width="79" height="57" viewBox="0 0 79 57" fill="none" xmlns="http://www.w3.org/2000/svg">
<mask id="path-1-inside-1_1274_382" fill="white">
<path d="M42 21C42 32.598 32.598 42 21 42C9.40202 42 0 32.598 0 21C0 9.40202 9.40202 0 21 0C32.598 0 42 9.40202 42 21Z"/>
<path d="M44.0036 44V36.4674H46.5289C47.1548 36.4674 47.698 36.6077 48.1584 36.8883C48.6261 37.1617 48.9858 37.579 49.2376 38.1401C49.4894 38.6941 49.6153 39.392 49.6153 40.2337C49.6153 41.0755 49.4894 41.7769 49.2376 42.3381C48.9858 42.8921 48.6261 43.3093 48.1584 43.5899C47.698 43.8633 47.1548 44 46.5289 44H44.0036ZM44.9101 43.2014H46.5289C46.9462 43.2014 47.3131 43.1079 47.6296 42.9208C47.9462 42.7338 48.1944 42.4676 48.3743 42.1222C48.5541 41.7697 48.644 41.3452 48.644 40.8488V39.6186C48.644 39.1222 48.5541 38.6977 48.3743 38.3452C48.1944 37.9926 47.9462 37.7264 47.6296 37.5466C47.3131 37.3595 46.9462 37.266 46.5289 37.266H44.9101V43.2014Z"/>
<path d="M51.8049 44H50.9416V38.4315H51.8049V39.4567H51.8589C51.9236 39.2768 52.0243 39.1114 52.161 38.9603C52.2977 38.802 52.474 38.6761 52.6898 38.5826C52.9057 38.4819 53.1647 38.4315 53.4668 38.4315H53.8014V39.2948H53.2942C52.9848 39.2948 52.7186 39.338 52.4956 39.4243C52.2725 39.5035 52.0999 39.6114 51.9776 39.7481C51.8625 39.8848 51.8049 40.0431 51.8049 40.2229V44Z"/>
<path d="M59.1786 44H58.693C58.4628 44 58.2757 43.9532 58.1319 43.8597C57.988 43.759 57.8836 43.6223 57.8189 43.4496C57.7541 43.277 57.7218 43.0791 57.7218 42.8561V42.7805L58.0563 43.0935H57.6786C57.5635 43.4316 57.3621 43.6906 57.0743 43.8705C56.7937 44.0432 56.4591 44.1295 56.0706 44.1295C55.4807 44.1295 55.0203 43.9784 54.6893 43.6763C54.3656 43.3741 54.2037 42.964 54.2037 42.446C54.2037 42.0935 54.29 41.7985 54.4627 41.5611C54.6354 41.3165 54.8944 41.133 55.2397 41.0107C55.5922 40.8812 56.0383 40.8165 56.5779 40.8165H57.6786V40.2661C57.6786 39.8704 57.5707 39.5682 57.3549 39.3596C57.139 39.1509 56.8081 39.0466 56.362 39.0466C56.0311 39.0466 55.7505 39.1222 55.5203 39.2733C55.29 39.4243 55.0994 39.6258 54.9483 39.8776L54.4303 39.392C54.5814 39.097 54.8224 38.8416 55.1534 38.6257C55.4843 38.4099 55.9016 38.302 56.4052 38.302C57.0743 38.302 57.5959 38.4675 57.97 38.7984C58.3513 39.1294 58.5419 39.5898 58.5419 40.1797V43.2446H59.1786V44ZM57.6786 41.464H56.5347C56.0455 41.464 55.6857 41.5359 55.4555 41.6798C55.2253 41.8237 55.1102 42.0323 55.1102 42.3057V42.5323C55.1102 42.8057 55.2109 43.018 55.4124 43.169C55.6138 43.3201 55.88 43.3957 56.2109 43.3957C56.4987 43.3957 56.7505 43.3525 56.9664 43.2662C57.1894 43.1726 57.3621 43.0503 57.4844 42.8993C57.6139 42.741 57.6786 42.5683 57.6786 42.3812V41.464Z"/>
<path d="M64.8894 44.6151C64.8894 44.9964 64.7887 45.3094 64.5872 45.554C64.3858 45.8058 64.0836 45.9893 63.6807 46.1044C63.285 46.2267 62.7886 46.2878 62.1915 46.2878C61.6159 46.2878 61.1447 46.2339 60.7778 46.126C60.418 46.018 60.1554 45.8598 59.99 45.6511C59.8245 45.4497 59.7418 45.2051 59.7418 44.9173C59.7418 44.6151 59.8209 44.3777 59.9792 44.205C60.1374 44.0324 60.3533 43.9101 60.6267 43.8381V43.7194C60.4684 43.6403 60.3461 43.5396 60.2598 43.4173C60.1734 43.2878 60.1303 43.1295 60.1303 42.9424C60.1303 42.6618 60.2202 42.4496 60.4 42.3057C60.5799 42.1546 60.8101 42.0431 61.0907 41.9712V41.928C60.7598 41.7697 60.5008 41.5431 60.3137 41.2481C60.1339 40.9532 60.0439 40.6114 60.0439 40.2229C60.0439 39.8416 60.1303 39.5071 60.3029 39.2193C60.4756 38.9315 60.7202 38.7085 61.0368 38.5502C61.3533 38.3847 61.7202 38.302 62.1375 38.302C62.3389 38.302 62.526 38.32 62.6987 38.356C62.8785 38.3919 63.044 38.4459 63.1951 38.5178V38.4207C63.1951 38.2049 63.2454 38.0286 63.3462 37.8919C63.4469 37.748 63.6124 37.6761 63.8426 37.6761H64.6735V38.4315H63.616V38.7876C63.8174 38.9603 63.9721 39.1689 64.08 39.4135C64.1951 39.6582 64.2527 39.9279 64.2527 40.2229C64.2527 40.597 64.1663 40.9316 63.9937 41.2265C63.821 41.5143 63.5764 41.7409 63.2598 41.9064C62.9433 42.0647 62.5728 42.1438 62.1483 42.1438C62.0548 42.1438 61.9612 42.1402 61.8677 42.133C61.7742 42.1187 61.6879 42.1043 61.6087 42.0899C61.4289 42.1402 61.2598 42.2158 61.1015 42.3165C60.9504 42.41 60.8749 42.5431 60.8749 42.7158C60.8749 42.8813 60.954 42.9928 61.1123 43.0503C61.2706 43.1079 61.4756 43.1367 61.7274 43.1367H62.9145C63.6052 43.1367 64.1052 43.2698 64.4145 43.536C64.7311 43.795 64.8894 44.1547 64.8894 44.6151ZM64.08 44.6799C64.08 44.4568 63.9937 44.277 63.821 44.1403C63.6555 44.0108 63.357 43.946 62.9253 43.946H61.0691C60.8893 44.0252 60.7562 44.1259 60.6698 44.2482C60.5907 44.3777 60.5511 44.5288 60.5511 44.7015C60.5511 44.9461 60.6411 45.1547 60.8209 45.3274C61.008 45.5 61.3209 45.5864 61.7598 45.5864H62.5584C63.0404 45.5864 63.4145 45.5108 63.6807 45.3597C63.9469 45.2087 64.08 44.982 64.08 44.6799ZM62.1483 41.4532C62.5152 41.4532 62.8066 41.3668 63.0224 41.1942C63.2383 41.0143 63.3462 40.7409 63.3462 40.374V40.0718C63.3462 39.7049 63.2383 39.4351 63.0224 39.2625C62.8066 39.0826 62.5152 38.9927 62.1483 38.9927C61.7814 38.9927 61.49 39.0826 61.2742 39.2625C61.0583 39.4351 60.9504 39.7049 60.9504 40.0718V40.374C60.9504 40.7409 61.0583 41.0143 61.2742 41.1942C61.49 41.3668 61.7814 41.4532 62.1483 41.4532Z"/>
<path d="M73.1844 44L72.3858 43.1259H72.3642C72.2635 43.2554 72.1196 43.3993 71.9325 43.5575C71.7455 43.7086 71.5081 43.8417 71.2203 43.9568C70.9325 44.0719 70.5872 44.1295 70.1843 44.1295C69.6879 44.1295 69.267 44.036 68.9217 43.8489C68.5763 43.6619 68.3137 43.4101 68.1339 43.0935C67.9612 42.7769 67.8749 42.428 67.8749 42.0467C67.8749 41.6726 67.9504 41.3524 68.1015 41.0863C68.2526 40.8201 68.4432 40.5934 68.6735 40.4064C68.9109 40.2193 69.1591 40.0574 69.4181 39.9207C69.1591 39.6474 68.9504 39.3668 68.7922 39.079C68.6411 38.7912 68.5655 38.4819 68.5655 38.1509C68.5655 37.8128 68.6447 37.507 68.803 37.2336C68.9684 36.9602 69.1987 36.7444 69.4936 36.5861C69.7886 36.4207 70.1303 36.3379 70.5188 36.3379C70.8786 36.3379 71.1915 36.4063 71.4577 36.543C71.7311 36.6797 71.9433 36.8703 72.0944 37.1149C72.2527 37.3523 72.3318 37.6329 72.3318 37.9567C72.3318 38.2876 72.2527 38.5754 72.0944 38.82C71.9433 39.0646 71.7347 39.284 71.4685 39.4783C71.2095 39.6725 70.9217 39.8596 70.6052 40.0395L72.2995 41.8633C72.4074 41.5899 72.4901 41.2985 72.5477 40.9891C72.6052 40.6726 72.6412 40.356 72.6556 40.0395H74.1233V40.7733H73.357C73.3067 41.0827 73.2383 41.3776 73.152 41.6582C73.0657 41.9388 72.9613 42.1978 72.839 42.4352L74.3067 44H73.1844ZM70.4757 37.061C70.1663 37.061 69.9109 37.1581 69.7095 37.3523C69.5152 37.5466 69.4181 37.7876 69.4181 38.0754V38.2049C69.4181 38.3488 69.4469 38.4927 69.5044 38.6365C69.5692 38.7804 69.6555 38.9279 69.7634 39.079C69.8713 39.2301 69.9972 39.3884 70.1411 39.5538C70.3714 39.4315 70.5872 39.2984 70.7886 39.1545C70.9973 39.0035 71.1663 38.8416 71.2958 38.6689C71.4325 38.4891 71.5009 38.302 71.5009 38.1077V37.9782C71.5009 37.784 71.4541 37.6185 71.3606 37.4818C71.2671 37.3451 71.1412 37.2408 70.9829 37.1689C70.8318 37.0969 70.6627 37.061 70.4757 37.061ZM70.2598 43.3741C70.5044 43.3741 70.7239 43.3417 70.9181 43.277C71.1196 43.2122 71.2994 43.1223 71.4577 43.0072C71.6232 42.8921 71.7671 42.7554 71.8894 42.5971L69.8713 40.4172C69.6771 40.5179 69.4936 40.633 69.321 40.7625C69.1555 40.892 69.0224 41.0503 68.9217 41.2373C68.8209 41.4172 68.7706 41.6474 68.7706 41.928V42.0899C68.7706 42.4856 68.9037 42.7985 69.1699 43.0288C69.4433 43.259 69.8066 43.3741 70.2598 43.3741Z"/>
<path d="M48.6009 54H44.0036V46.4674H48.6009V47.266H44.9101V49.7912H48.385V50.5898H44.9101V53.2014H48.6009V54Z"/>
<path d="M49.3024 54L51.3636 51.1942L49.3888 48.4315H50.4032L51.8169 50.5035H51.8493L53.3169 48.4315H54.2774L52.3133 51.1294L54.3205 54H53.3061L51.86 51.8201H51.8277L50.2629 54H49.3024Z"/>
<path d="M55.2469 56.1583V48.4315H56.1102V49.338H56.1534C56.2972 48.9855 56.5095 48.7265 56.7901 48.561C57.0706 48.3883 57.4016 48.302 57.7829 48.302C58.2505 48.302 58.6534 48.4207 58.9916 48.6581C59.3297 48.8955 59.5887 49.2337 59.7686 49.6725C59.9556 50.1042 60.0491 50.6186 60.0491 51.2158C60.0491 51.8057 59.9556 52.3201 59.7686 52.759C59.5887 53.1978 59.3297 53.536 58.9916 53.7734C58.6534 54.0108 58.2505 54.1295 57.7829 54.1295C57.4016 54.1295 57.0742 54.0432 56.8009 53.8705C56.5347 53.6978 56.3188 53.4388 56.1534 53.0935H56.1102V56.1583H55.2469ZM57.5455 53.3525C58.0347 53.3525 58.4196 53.2014 58.7002 52.8993C58.9808 52.5899 59.1211 52.187 59.1211 51.6906V50.7409C59.1211 50.2445 58.9808 49.8452 58.7002 49.543C58.4196 49.2337 58.0347 49.079 57.5455 49.079C57.2865 49.079 57.0455 49.1258 56.8224 49.2193C56.6066 49.3128 56.4339 49.4387 56.3044 49.597C56.1749 49.7553 56.1102 49.9387 56.1102 50.1474V52.2194C56.1102 52.4568 56.1749 52.6618 56.3044 52.8345C56.4339 53 56.6066 53.1295 56.8224 53.223C57.0455 53.3093 57.2865 53.3525 57.5455 53.3525Z"/>
<path d="M62.9745 54H62.2083C61.9134 54 61.6867 53.9173 61.5285 53.7518C61.3702 53.5791 61.291 53.3633 61.291 53.1043V46.0142H62.1544V53.2446H62.9745V54Z"/>
<path d="M66.1199 54.1295C65.6235 54.1295 65.1846 54.0108 64.8033 53.7734C64.4292 53.5288 64.1342 53.1906 63.9184 52.759C63.7097 52.3201 63.6054 51.8057 63.6054 51.2158C63.6054 50.6258 63.7097 50.115 63.9184 49.6833C64.1342 49.2445 64.4292 48.9063 64.8033 48.6689C65.1846 48.4243 65.6235 48.302 66.1199 48.302C66.6163 48.302 67.0516 48.4243 67.4257 48.6689C67.807 48.9063 68.102 49.2445 68.3106 49.6833C68.5264 50.115 68.6343 50.6258 68.6343 51.2158C68.6343 51.8057 68.5264 52.3201 68.3106 52.759C68.102 53.1906 67.807 53.5288 67.4257 53.7734C67.0516 54.0108 66.6163 54.1295 66.1199 54.1295ZM66.1199 53.3633C66.5875 53.3633 66.9688 53.2194 67.2638 52.9316C67.5588 52.6438 67.7063 52.205 67.7063 51.615V50.8165C67.7063 50.2265 67.5588 49.7877 67.2638 49.4999C66.9688 49.2121 66.5875 49.0682 66.1199 49.0682C65.6594 49.0682 65.2781 49.2121 64.976 49.4999C64.681 49.7877 64.5335 50.2265 64.5335 50.8165V51.615C64.5335 52.205 64.681 52.6438 64.976 52.9316C65.2781 53.2194 65.6594 53.3633 66.1199 53.3633Z"/>
<path d="M70.7017 54H69.8384V48.4315H70.7017V49.4567H70.7557C70.8204 49.2768 70.9211 49.1114 71.0578 48.9603C71.1945 48.802 71.3708 48.6761 71.5866 48.5826C71.8024 48.4819 72.0615 48.4315 72.3636 48.4315H72.6982V49.2948H72.191C71.8816 49.2948 71.6154 49.338 71.3924 49.4243C71.1693 49.5035 70.9967 49.6114 70.8744 49.7481C70.7593 49.8848 70.7017 50.0431 70.7017 50.2229V54Z"/>
<path d="M75.626 54.1295C75.1224 54.1295 74.6835 54.0108 74.3094 53.7734C73.9353 53.5288 73.6439 53.1906 73.4353 52.759C73.2266 52.3201 73.1223 51.8057 73.1223 51.2158C73.1223 50.6258 73.2266 50.115 73.4353 49.6833C73.6439 49.2445 73.9353 48.9063 74.3094 48.6689C74.6835 48.4243 75.1224 48.302 75.626 48.302C76.1224 48.302 76.5505 48.4207 76.9102 48.6581C77.2699 48.8883 77.5469 49.2085 77.7412 49.6186C77.9354 50.0287 78.0325 50.4963 78.0325 51.0215V51.4316H74.0288V51.6906C74.0288 52.1726 74.1727 52.5755 74.4605 52.8993C74.7555 53.2158 75.1619 53.3741 75.6799 53.3741C76.0325 53.3741 76.3382 53.2913 76.5972 53.1259C76.8634 52.9604 77.0685 52.723 77.2124 52.4136L77.8275 52.8561C77.6476 53.2302 77.367 53.536 76.9857 53.7734C76.6044 54.0108 76.1512 54.1295 75.626 54.1295ZM75.626 49.025C75.3166 49.025 75.0396 49.097 74.795 49.2409C74.5576 49.3848 74.3706 49.5862 74.2339 49.8452C74.0972 50.097 74.0288 50.3848 74.0288 50.7085V50.7841H77.1044V50.6654C77.1044 50.3344 77.0433 50.0467 76.921 49.802C76.7987 49.5574 76.626 49.3668 76.403 49.2301C76.18 49.0934 75.921 49.025 75.626 49.025Z"/>
</mask>
<path d="M6 21L11 23.8868V18.1132L6 21ZM36 21L31 18.1132V23.8868L36 21ZM10.5 21V21.5H31.5V21V20.5H10.5V21ZM44.0036 44H43.0036V45H44.0036V44ZM44.0036 36.4674V35.4674H43.0036V36.4674H44.0036ZM48.1584 36.8883L47.638 37.7422L47.6458 37.747L47.6537 37.7516L48.1584 36.8883ZM49.2376 38.1401L48.3252 38.5495L48.3272 38.5539L49.2376 38.1401ZM49.2376 42.3381L50.148 42.7519L50.1499 42.7475L49.2376 42.3381ZM48.1584 43.5899L48.669 44.4498L48.6729 44.4474L48.1584 43.5899ZM44.9101 43.2014H43.9101V44.2014H44.9101V43.2014ZM48.3743 42.1222L49.2612 42.5842L49.265 42.5767L48.3743 42.1222ZM48.3743 38.3452L49.265 37.8907V37.8907L48.3743 38.3452ZM47.6296 37.5466L47.1209 38.4075L47.1282 38.4118L47.1356 38.416L47.6296 37.5466ZM44.9101 37.266V36.266H43.9101V37.266H44.9101ZM51.8049 44V45H52.8049V44H51.8049ZM50.9416 44H49.9416V45H50.9416V44ZM50.9416 38.4315V37.4315H49.9416V38.4315H50.9416ZM51.8049 38.4315H52.8049V37.4315H51.8049V38.4315ZM51.8049 39.4567H50.8049V40.4567H51.8049V39.4567ZM51.8589 39.4567V40.4567H52.5617L52.7998 39.7954L51.8589 39.4567ZM52.161 38.9603L52.9026 39.6312L52.9103 39.6226L52.9179 39.6139L52.161 38.9603ZM52.6898 38.5826L53.0874 39.5001L53.1001 39.4946L53.1127 39.4888L52.6898 38.5826ZM53.8014 38.4315H54.8014V37.4315H53.8014V38.4315ZM53.8014 39.2948V40.2948H54.8014V39.2948H53.8014ZM52.4956 39.4243L52.83 40.3668L52.8433 40.362L52.8566 40.3569L52.4956 39.4243ZM51.9776 39.7481L51.2323 39.0813L51.2223 39.0925L51.2127 39.1039L51.9776 39.7481ZM59.1786 44V45H60.1786V44H59.1786ZM58.1319 43.8597L57.5584 44.6789L57.5725 44.6888L57.5869 44.6982L58.1319 43.8597ZM57.8189 43.4496L58.7552 43.0985V43.0985L57.8189 43.4496ZM57.7218 42.7805L58.4049 42.0503L56.7218 40.4757V42.7805H57.7218ZM58.0563 43.0935V44.0935H60.5891L58.7395 42.3632L58.0563 43.0935ZM57.6786 43.0935V42.0935H56.9627L56.732 42.7712L57.6786 43.0935ZM57.0743 43.8705L57.5984 44.7222L57.6043 44.7185L57.0743 43.8705ZM54.6893 43.6763L54.007 44.4073L54.015 44.4147L54.6893 43.6763ZM54.4627 41.5611L55.2715 42.1493L55.2797 42.1378L54.4627 41.5611ZM55.2397 41.0107L55.5736 41.9534L55.5845 41.9494L55.2397 41.0107ZM57.6786 40.8165V41.8165H58.6786V40.8165H57.6786ZM57.3549 39.3596L56.6598 40.0786V40.0786L57.3549 39.3596ZM54.9483 39.8776L54.2644 40.6071L55.1683 41.4546L55.8058 40.3921L54.9483 39.8776ZM54.4303 39.392L53.5403 38.9361L53.1969 39.6064L53.7464 40.1215L54.4303 39.392ZM55.1534 38.6257L54.6071 37.7881V37.7881L55.1534 38.6257ZM57.97 38.7984L57.3074 39.5474L57.3145 39.5536L57.97 38.7984ZM58.5419 43.2446H57.5419V44.2446H58.5419V43.2446ZM59.1786 43.2446H60.1786V42.2446H59.1786V43.2446ZM57.6786 41.464H58.6786V40.464H57.6786V41.464ZM55.4555 41.6798L55.9855 42.5278V42.5278L55.4555 41.6798ZM55.4124 43.169L54.8124 43.969V43.969L55.4124 43.169ZM56.9664 43.2662L57.3377 44.1946L57.3454 44.1916L57.3531 44.1884L56.9664 43.2662ZM57.4844 42.8993L56.7104 42.266L56.7071 42.2701L57.4844 42.8993ZM64.5872 45.554L63.8153 44.9183L63.8108 44.9238L63.8063 44.9293L64.5872 45.554ZM63.6807 46.1044L63.406 45.1428L63.3957 45.1458L63.3854 45.149L63.6807 46.1044ZM60.7778 46.126L60.4904 47.0838L60.4956 47.0853L60.7778 46.126ZM59.99 45.6511L60.7735 45.0297L60.7681 45.023L60.7627 45.0164L59.99 45.6511ZM59.9792 44.205L60.7163 44.8808V44.8808L59.9792 44.205ZM60.6267 43.8381L60.8812 44.8052L61.6267 44.609V43.8381H60.6267ZM60.6267 43.7194H61.6267V43.1014L61.0739 42.825L60.6267 43.7194ZM60.2598 43.4173L59.4277 43.972L59.4351 43.983L59.4428 43.9939L60.2598 43.4173ZM60.4 42.3057L61.0247 43.0866L61.0341 43.0791L61.0432 43.0714L60.4 42.3057ZM61.0907 41.9712L61.3391 42.9398L62.0907 42.7471V41.9712H61.0907ZM61.0907 41.928H62.0907V41.2978L61.5222 41.0259L61.0907 41.928ZM60.3137 41.2481L59.4599 41.7687L59.4645 41.7762L59.4692 41.7837L60.3137 41.2481ZM60.3029 39.2193L61.1604 39.7338V39.7338L60.3029 39.2193ZM61.0368 38.5502L61.484 39.4446L61.492 39.4406L61.5 39.4364L61.0368 38.5502ZM62.6987 38.356L62.4947 39.335L62.5026 39.3365L62.6987 38.356ZM63.1951 38.5178L62.7652 39.4207L64.1951 40.1016V38.5178H63.1951ZM63.3462 37.8919L64.1512 38.4851L64.1584 38.4753L64.1654 38.4654L63.3462 37.8919ZM64.6735 37.6761H65.6735V36.6761H64.6735V37.6761ZM64.6735 38.4315V39.4315H65.6735V38.4315H64.6735ZM63.616 38.4315V37.4315H62.616V38.4315H63.616ZM63.616 38.7876H62.616V39.2476L62.9652 39.5469L63.616 38.7876ZM64.08 39.4135L63.1651 39.8172L63.17 39.8283L63.1752 39.8393L64.08 39.4135ZM63.9937 41.2265L64.8512 41.7411L64.8567 41.7317L63.9937 41.2265ZM63.2598 41.9064L63.7071 42.8008L63.7151 42.7968L63.7231 42.7926L63.2598 41.9064ZM61.8677 42.133L61.7157 43.1214L61.7532 43.1272L61.791 43.1301L61.8677 42.133ZM61.6087 42.0899L61.7876 41.106L61.5609 41.0648L61.3391 41.1269L61.6087 42.0899ZM61.1015 42.3165L61.6279 43.1668L61.6384 43.1602L61.1015 42.3165ZM61.1123 43.0503L61.454 42.1105V42.1105L61.1123 43.0503ZM64.4145 43.536L63.7623 44.294L63.7717 44.3021L63.7813 44.3099L64.4145 43.536ZM63.821 44.1403L64.4417 43.3562L64.4373 43.3528L63.821 44.1403ZM61.0691 43.946V42.946H60.8589L60.6664 43.0307L61.0691 43.946ZM60.6698 44.2482L59.8529 43.6715L59.8338 43.6985L59.8166 43.7268L60.6698 44.2482ZM60.8209 45.3274L60.1284 46.0488L60.1354 46.0555L60.1426 46.0622L60.8209 45.3274ZM63.0224 41.1942L63.6471 41.975L63.6549 41.9688L63.6626 41.9624L63.0224 41.1942ZM63.0224 39.2625L62.3822 40.0307L62.3899 40.0371L62.3977 40.0433L63.0224 39.2625ZM61.2742 39.2625L61.8989 40.0433L61.9067 40.0371L61.9144 40.0307L61.2742 39.2625ZM61.2742 41.1942L60.634 41.9624L60.6417 41.9688L60.6495 41.975L61.2742 41.1942ZM73.1844 44L72.4461 44.6745L72.7435 45H73.1844V44ZM72.3858 43.1259L73.1241 42.4514L72.8267 42.1259H72.3858V43.1259ZM72.3642 43.1259V42.1259H71.8751L71.5749 42.5119L72.3642 43.1259ZM71.9325 43.5575L72.5609 44.3355L72.5698 44.3283L72.5785 44.3209L71.9325 43.5575ZM71.2203 43.9568L71.5917 44.8853V44.8853L71.2203 43.9568ZM68.9217 43.8489L69.3979 42.9696V42.9696L68.9217 43.8489ZM68.1339 43.0935L67.256 43.5723L67.2601 43.58L67.2644 43.5875L68.1339 43.0935ZM68.1015 41.0863L67.2318 40.5926V40.5926L68.1015 41.0863ZM68.6735 40.4064L68.0546 39.6209L68.0487 39.6255L68.0429 39.6303L68.6735 40.4064ZM69.4181 39.9207L69.8848 40.8051L71.0506 40.1899L70.144 39.233L69.4181 39.9207ZM68.7922 39.079L67.9068 39.5438L67.9113 39.5524L67.916 39.5609L68.7922 39.079ZM68.803 37.2336L67.9475 36.7158L67.9424 36.7242L67.9375 36.7326L68.803 37.2336ZM69.4936 36.5861L69.9664 37.4673L69.9747 37.4629L69.9829 37.4583L69.4936 36.5861ZM71.4577 36.543L71.0009 37.4326L71.0105 37.4374L71.4577 36.543ZM72.0944 37.1149L71.2436 37.6404L71.2527 37.6552L71.2624 37.6696L72.0944 37.1149ZM72.0944 38.82L71.2549 38.2767L71.2491 38.2856L71.2436 38.2945L72.0944 38.82ZM71.4685 39.4783L70.879 38.6704L70.8685 38.6783L71.4685 39.4783ZM70.6052 40.0395L70.1112 39.17L69.0125 39.7943L69.8725 40.7201L70.6052 40.0395ZM72.2995 41.8633L71.5668 42.5439L72.6469 43.7065L73.2296 42.2304L72.2995 41.8633ZM72.5477 40.9891L73.5308 41.172L73.5315 41.168L72.5477 40.9891ZM72.6556 40.0395V39.0395H71.7L71.6566 39.994L72.6556 40.0395ZM74.1233 40.0395H75.1233V39.0395H74.1233V40.0395ZM74.1233 40.7733V41.7733H75.1233V40.7733H74.1233ZM73.357 40.7733V39.7733H72.5067L72.37 40.6126L73.357 40.7733ZM73.152 41.6582L74.1078 41.9523V41.9523L73.152 41.6582ZM72.839 42.4352L71.9501 41.9772L71.6269 42.6046L72.1097 43.1193L72.839 42.4352ZM74.3067 44V45H76.6157L75.0361 43.3159L74.3067 44ZM69.7095 37.3523L69.0153 36.6325L69.0088 36.6388L69.0023 36.6452L69.7095 37.3523ZM69.5044 38.6365L68.5759 39.0079L68.5838 39.0276L68.5925 39.0469L69.5044 38.6365ZM69.7634 39.079L68.9497 39.6602V39.6602L69.7634 39.079ZM70.1411 39.5538L69.3865 40.21L69.9082 40.8099L70.6103 40.437L70.1411 39.5538ZM70.7886 39.1545L71.3699 39.9683L71.3751 39.9645L70.7886 39.1545ZM71.2958 38.6689L70.4997 38.0638L70.4958 38.0689L71.2958 38.6689ZM71.3606 37.4818L70.5353 38.0465V38.0465L71.3606 37.4818ZM70.9829 37.1689L70.5529 38.0717L70.561 38.0756L70.5691 38.0792L70.9829 37.1689ZM70.9181 43.277L70.6121 42.3249L70.6019 42.3283L70.9181 43.277ZM71.4577 43.0072L70.8866 42.1863L70.878 42.1923L70.8695 42.1984L71.4577 43.0072ZM71.8894 42.5971L72.6807 43.2085L73.1982 42.5388L72.6232 41.9177L71.8894 42.5971ZM69.8713 40.4172L70.6052 39.7378L70.0875 39.1786L69.411 39.5294L69.8713 40.4172ZM69.321 40.7625L68.721 39.9625L68.7127 39.9687L68.7047 39.975L69.321 40.7625ZM68.9217 41.2373L69.7942 41.7259L69.7982 41.7187L69.8021 41.7114L68.9217 41.2373ZM69.1699 43.0288L68.5157 43.7852L68.5257 43.7937L69.1699 43.0288ZM48.6009 54V55H49.6009V54H48.6009ZM44.0036 54H43.0036V55H44.0036V54ZM44.0036 46.4674V45.4674H43.0036V46.4674H44.0036ZM48.6009 46.4674H49.6009V45.4674H48.6009V46.4674ZM48.6009 47.266V48.266H49.6009V47.266H48.6009ZM44.9101 47.266V46.266H43.9101V47.266H44.9101ZM44.9101 49.7912H43.9101V50.7912H44.9101V49.7912ZM48.385 49.7912H49.385V48.7912H48.385V49.7912ZM48.385 50.5898V51.5898H49.385V50.5898H48.385ZM44.9101 50.5898V49.5898H43.9101V50.5898H44.9101ZM44.9101 53.2014H43.9101V54.2014H44.9101V53.2014ZM48.6009 53.2014H49.6009V52.2014H48.6009V53.2014ZM49.3024 54L48.4965 53.408L47.327 55H49.3024V54ZM51.3636 51.1942L52.1695 51.7862L52.5986 51.2022L52.1771 50.6126L51.3636 51.1942ZM49.3888 48.4315V47.4315H47.4447L48.5752 49.013L49.3888 48.4315ZM50.4032 48.4315L51.2292 47.8679L50.9315 47.4315H50.4032V48.4315ZM51.8169 50.5035L50.9908 51.0671L51.2886 51.5035H51.8169V50.5035ZM51.8493 50.5035V51.5035H52.3664L52.6653 51.0815L51.8493 50.5035ZM53.3169 48.4315V47.4315H52.7998L52.5009 47.8535L53.3169 48.4315ZM54.2774 48.4315L55.0858 49.0201L56.2423 47.4315H54.2774V48.4315ZM52.3133 51.1294L51.5048 50.5409L51.0849 51.1177L51.4938 51.7025L52.3133 51.1294ZM54.3205 54V55H56.24L55.1401 53.427L54.3205 54ZM53.3061 54L52.4728 54.5528L52.7695 55H53.3061V54ZM51.86 51.8201L52.6934 51.2673L52.3967 50.8201H51.86V51.8201ZM51.8277 51.8201V50.8201H51.3145L51.0153 51.2369L51.8277 51.8201ZM50.2629 54V55H50.776L51.0752 54.5831L50.2629 54ZM55.2469 56.1583H54.2469V57.1583H55.2469V56.1583ZM55.2469 48.4315V47.4315H54.2469V48.4315H55.2469ZM56.1102 48.4315H57.1102V47.4315H56.1102V48.4315ZM56.1102 49.338H55.1102V50.338H56.1102V49.338ZM56.1534 49.338V50.338H56.8253L57.0792 49.7159L56.1534 49.338ZM56.7901 48.561L57.298 49.4224L57.3062 49.4176L57.3142 49.4127L56.7901 48.561ZM58.9916 48.6581L59.5662 47.8397V47.8397L58.9916 48.6581ZM59.7686 49.6725L58.8433 50.0518L58.847 50.061L58.851 50.0701L59.7686 49.6725ZM59.7686 52.759L58.8486 52.3668L58.8433 52.3797L59.7686 52.759ZM58.9916 53.7734L58.4169 52.955V52.955L58.9916 53.7734ZM56.8009 53.8705L56.2566 54.7095L56.2669 54.716L56.8009 53.8705ZM56.1534 53.0935L57.0552 52.6614L56.7831 52.0935H56.1534V53.0935ZM56.1102 53.0935V52.0935H55.1102V53.0935H56.1102ZM56.1102 56.1583V57.1583H57.1102V56.1583H56.1102ZM58.7002 52.8993L59.433 53.5797L59.4409 53.5711L58.7002 52.8993ZM58.7002 49.543L57.9594 50.2149L57.9674 50.2235L58.7002 49.543ZM56.8224 49.2193L56.4357 48.297L56.4248 48.3017L56.8224 49.2193ZM56.3044 49.597L55.5305 48.9638V48.9638L56.3044 49.597ZM56.3044 52.8345L55.5044 53.4345L55.5106 53.4427L55.5169 53.4508L56.3044 52.8345ZM56.8224 53.223L56.4248 54.1406L56.443 54.1484L56.4614 54.1556L56.8224 53.223ZM62.9745 54V55H63.9745V54H62.9745ZM61.5285 53.7518L60.7913 54.4275L60.7985 54.4353L60.8058 54.443L61.5285 53.7518ZM61.291 46.0142V45.0142H60.291V46.0142H61.291ZM62.1544 46.0142H63.1544V45.0142H62.1544V46.0142ZM62.1544 53.2446H61.1544V54.2446H62.1544V53.2446ZM62.9745 53.2446H63.9745V52.2446H62.9745V53.2446ZM64.8033 53.7734L64.2561 54.6103L64.2653 54.6164L64.2747 54.6223L64.8033 53.7734ZM63.9184 52.759L63.0152 53.1883L63.0195 53.1973L63.024 53.2062L63.9184 52.759ZM63.9184 49.6833L63.021 49.242L63.018 49.2482L63.9184 49.6833ZM64.8033 48.6689L65.3391 49.5133L65.3433 49.5106L64.8033 48.6689ZM67.4257 48.6689L66.8784 49.5059L66.8877 49.512L66.8971 49.5178L67.4257 48.6689ZM68.3106 49.6833L67.4075 50.1127L67.4117 50.1217L67.4162 50.1305L68.3106 49.6833ZM68.3106 52.759L67.4132 52.3176L67.4102 52.3238L68.3106 52.759ZM67.4257 53.7734L67.9615 54.6177L67.9656 54.6151L67.4257 53.7734ZM67.2638 52.9316L66.5655 52.2158V52.2158L67.2638 52.9316ZM67.2638 49.4999L67.9621 48.7841L67.2638 49.4999ZM64.976 49.4999L64.2863 48.7757L64.2776 48.7841L64.976 49.4999ZM64.976 52.9316L64.2776 53.6475L64.2863 53.6558L64.976 52.9316ZM70.7017 54V55H71.7017V54H70.7017ZM69.8384 54H68.8384V55H69.8384V54ZM69.8384 48.4315V47.4315H68.8384V48.4315H69.8384ZM70.7017 48.4315H71.7017V47.4315H70.7017V48.4315ZM70.7017 49.4567H69.7017V50.4567H70.7017V49.4567ZM70.7557 49.4567V50.4567H71.4585L71.6965 49.7954L70.7557 49.4567ZM71.0578 48.9603L71.7994 49.6312L71.8071 49.6226L71.8147 49.6139L71.0578 48.9603ZM71.5866 48.5826L71.9842 49.5001L71.9969 49.4946L72.0095 49.4888L71.5866 48.5826ZM72.6982 48.4315H73.6982V47.4315H72.6982V48.4315ZM72.6982 49.2948V50.2948H73.6982V49.2948H72.6982ZM71.3924 49.4243L71.7268 50.3668L71.7401 50.362L71.7534 50.3569L71.3924 49.4243ZM70.8744 49.7481L70.1291 49.0813L70.1191 49.0925L70.1095 49.1039L70.8744 49.7481ZM74.3094 53.7734L73.7621 54.6104L73.7736 54.6177L74.3094 53.7734ZM73.4353 52.759L72.5321 53.1883L72.5349 53.1941L73.4353 52.759ZM73.4353 49.6833L74.3356 50.1185L74.3384 50.1127L73.4353 49.6833ZM74.3094 48.6689L74.8453 49.5133L74.8567 49.5059L74.3094 48.6689ZM76.9102 48.6581L76.3593 49.4928L76.3711 49.5004L76.9102 48.6581ZM78.0325 51.4316V52.4316H79.0325V51.4316H78.0325ZM74.0288 51.4316V50.4316H73.0288V51.4316H74.0288ZM74.4605 52.8993L73.7131 53.5636L73.7209 53.5724L73.7289 53.581L74.4605 52.8993ZM76.5972 53.1259L76.0693 52.2765L76.0589 52.2832L76.5972 53.1259ZM77.2124 52.4136L77.7963 51.6018L76.8153 50.8962L76.3056 51.9919L77.2124 52.4136ZM77.8275 52.8561L78.7287 53.2894L79.092 52.5338L78.4114 52.0443L77.8275 52.8561ZM76.9857 53.7734L76.4572 52.9245V52.9245L76.9857 53.7734ZM74.795 49.2409L74.288 48.3789L74.2767 48.3857L74.795 49.2409ZM74.2339 49.8452L75.1128 50.3223L75.1182 50.312L74.2339 49.8452ZM74.0288 50.7841H73.0288V51.7841H74.0288V50.7841ZM77.1044 50.7841V51.7841H78.1044V50.7841H77.1044ZM76.921 49.802L77.8154 49.3548V49.3548L76.921 49.802ZM76.403 49.2301L76.9256 48.3775V48.3775L76.403 49.2301ZM42 21H41C41 32.0457 32.0457 41 21 41V42V43C33.1503 43 43 33.1503 43 21H42ZM21 42V41C9.95431 41 1 32.0457 1 21H0H-1C-1 33.1503 8.84974 43 21 43V42ZM0 21H1C1 9.95431 9.95431 1 21 1V0V-1C8.84974 -1 -1 8.84974 -1 21H0ZM21 0V1C32.0457 1 41 9.95431 41 21H42H43C43 8.84974 33.1503 -1 21 -1V0ZM44.0036 44H45.0036V36.4674H44.0036H43.0036V44H44.0036ZM44.0036 36.4674V37.4674H46.5289V36.4674V35.4674H44.0036V36.4674ZM46.5289 36.4674V37.4674C47.0012 37.4674 47.3581 37.5717 47.638 37.7422L48.1584 36.8883L48.6788 36.0344C48.0378 35.6437 47.3084 35.4674 46.5289 35.4674V36.4674ZM48.1584 36.8883L47.6537 37.7516C47.9177 37.9059 48.1467 38.1516 48.3252 38.5495L49.2376 38.1401L50.1499 37.7307C49.8249 37.0063 49.3344 36.4174 48.6631 36.025L48.1584 36.8883ZM49.2376 38.1401L48.3272 38.5539C48.5019 38.9382 48.6153 39.4834 48.6153 40.2337H49.6153H50.6153C50.6153 39.3005 50.4769 38.45 50.1479 37.7263L49.2376 38.1401ZM49.6153 40.2337H48.6153C48.6153 40.9833 48.5021 41.5345 48.3252 41.9287L49.2376 42.3381L50.1499 42.7475C50.4767 42.0194 50.6153 41.1677 50.6153 40.2337H49.6153ZM49.2376 42.3381L48.3272 41.9243C48.1492 42.3159 47.9178 42.5681 47.6439 42.7324L48.1584 43.5899L48.6729 44.4474C49.3343 44.0506 49.8223 43.4682 50.1479 42.7519L49.2376 42.3381ZM48.1584 43.5899L47.6479 42.7301C47.3663 42.8972 47.0058 43 46.5289 43V44V45C47.3038 45 48.0296 44.8294 48.669 44.4498L48.1584 43.5899ZM46.5289 44V43H44.0036V44V45H46.5289V44ZM44.9101 43.2014V44.2014H46.5289V43.2014V42.2014H44.9101V43.2014ZM46.5289 43.2014V44.2014C47.1005 44.2014 47.6478 44.0716 48.1384 43.7818L47.6296 42.9208L47.1209 42.0599C46.9783 42.1442 46.7918 42.2014 46.5289 42.2014V43.2014ZM47.6296 42.9208L48.1384 43.7818C48.6254 43.494 49.0003 43.085 49.2612 42.5842L48.3743 42.1222L47.4873 41.6603C47.3885 41.8501 47.267 41.9736 47.1209 42.0599L47.6296 42.9208ZM48.3743 42.1222L49.265 42.5767C49.5326 42.0522 49.644 41.464 49.644 40.8488H48.644H47.644C47.644 41.2265 47.5756 41.4872 47.4835 41.6678L48.3743 42.1222ZM48.644 40.8488H49.644V39.6186H48.644H47.644V40.8488H48.644ZM48.644 39.6186H49.644C49.644 39.0034 49.5326 38.4152 49.265 37.8907L48.3743 38.3452L47.4835 38.7996C47.5756 38.9802 47.644 39.2409 47.644 39.6186H48.644ZM48.3743 38.3452L49.265 37.8907C49.0044 37.3798 48.625 36.962 48.1236 36.6771L47.6296 37.5466L47.1356 38.416C47.2674 38.4909 47.3844 38.6054 47.4835 38.7996L48.3743 38.3452ZM47.6296 37.5466L48.1384 36.6857C47.6478 36.3958 47.1005 36.266 46.5289 36.266V37.266V38.266C46.7918 38.266 46.9783 38.3233 47.1209 38.4075L47.6296 37.5466ZM46.5289 37.266V36.266H44.9101V37.266V38.266H46.5289V37.266ZM44.9101 37.266H43.9101V43.2014H44.9101H45.9101V37.266H44.9101ZM51.8049 44V43H50.9416V44V45H51.8049V44ZM50.9416 44H51.9416V38.4315H50.9416H49.9416V44H50.9416ZM50.9416 38.4315V39.4315H51.8049V38.4315V37.4315H50.9416V38.4315ZM51.8049 38.4315H50.8049V39.4567H51.8049H52.8049V38.4315H51.8049ZM51.8049 39.4567V40.4567H51.8589V39.4567V38.4567H51.8049V39.4567ZM51.8589 39.4567L52.7998 39.7954C52.8175 39.7462 52.8475 39.6921 52.9026 39.6312L52.161 38.9603L51.4195 38.2894C51.2012 38.5307 51.0297 38.8075 50.918 39.118L51.8589 39.4567ZM52.161 38.9603L52.9179 39.6139C52.9445 39.583 52.9923 39.5414 53.0874 39.5001L52.6898 38.5826L52.2922 37.665C51.9556 37.8109 51.6509 38.021 51.4042 38.3067L52.161 38.9603ZM52.6898 38.5826L53.1127 39.4888C53.1655 39.4641 53.2728 39.4315 53.4668 39.4315V38.4315V37.4315C53.0565 37.4315 52.6458 37.4996 52.2669 37.6764L52.6898 38.5826ZM53.4668 38.4315V39.4315H53.8014V38.4315V37.4315H53.4668V38.4315ZM53.8014 38.4315H52.8014V39.2948H53.8014H54.8014V38.4315H53.8014ZM53.8014 39.2948V38.2948H53.2942V39.2948V40.2948H53.8014V39.2948ZM53.2942 39.2948V38.2948C52.8958 38.2948 52.501 38.3499 52.1346 38.4918L52.4956 39.4243L52.8566 40.3569C52.9361 40.3261 53.0738 40.2948 53.2942 40.2948V39.2948ZM52.4956 39.4243L52.1612 38.4819C51.8249 38.6012 51.4941 38.7887 51.2323 39.0813L51.9776 39.7481L52.7228 40.4149C52.7056 40.4341 52.7202 40.4057 52.83 40.3668L52.4956 39.4243ZM51.9776 39.7481L51.2127 39.1039C50.9446 39.4222 50.8049 39.809 50.8049 40.2229H51.8049H52.8049C52.8049 40.2416 52.8016 40.2734 52.7879 40.311C52.7741 40.3488 52.7559 40.3763 52.7425 40.3922L51.9776 39.7481ZM51.8049 40.2229H50.8049V44H51.8049H52.8049V40.2229H51.8049ZM59.1786 44V43H58.693V44V45H59.1786V44ZM58.693 44V43C58.6692 43 58.6517 42.9988 58.6398 42.9975C58.634 42.9968 58.6297 42.9961 58.6268 42.9956C58.6239 42.9951 58.6226 42.9948 58.6226 42.9948C58.6227 42.9948 58.6283 42.9962 58.6382 43.0004C58.6481 43.0046 58.6615 43.0113 58.6768 43.0213L58.1319 43.8597L57.5869 44.6982C57.9397 44.9275 58.3338 45 58.693 45V44ZM58.1319 43.8597L58.7053 43.0405C58.7159 43.0479 58.729 43.0597 58.7407 43.075C58.752 43.0899 58.7557 43.0998 58.7552 43.0985L57.8189 43.4496L56.8826 43.8007C57.0145 44.1525 57.2405 44.4564 57.5584 44.6789L58.1319 43.8597ZM57.8189 43.4496L58.7552 43.0985C58.7404 43.0589 58.7218 42.9836 58.7218 42.8561H57.7218H56.7218C56.7218 43.1746 56.7679 43.495 56.8826 43.8007L57.8189 43.4496ZM57.7218 42.8561H58.7218V42.7805H57.7218H56.7218V42.8561H57.7218ZM57.7218 42.7805L57.0386 43.5108L57.3732 43.8238L58.0563 43.0935L58.7395 42.3632L58.4049 42.0503L57.7218 42.7805ZM58.0563 43.0935V42.0935H57.6786V43.0935V44.0935H58.0563V43.0935ZM57.6786 43.0935L56.732 42.7712C56.6868 42.9037 56.626 42.9714 56.5443 43.0225L57.0743 43.8705L57.6043 44.7185C58.0981 44.4098 58.4401 43.9595 58.6253 43.4158L57.6786 43.0935ZM57.0743 43.8705L56.5502 43.0188C56.4535 43.0783 56.3077 43.1295 56.0706 43.1295V44.1295V45.1295C56.6106 45.1295 57.1339 45.008 57.5984 44.7222L57.0743 43.8705ZM56.0706 44.1295V43.1295C55.6494 43.1295 55.4582 43.0242 55.3636 42.9378L54.6893 43.6763L54.015 44.4147C54.5823 44.9327 55.312 45.1295 56.0706 45.1295V44.1295ZM54.6893 43.6763L55.3716 42.9452C55.2852 42.8645 55.2037 42.7381 55.2037 42.446H54.2037H53.2037C53.2037 43.1899 53.4459 43.8836 54.007 44.4073L54.6893 43.6763ZM54.2037 42.446H55.2037C55.2037 42.2613 55.2464 42.1837 55.2714 42.1493L54.4627 41.5611L53.654 40.9729C53.3336 41.4134 53.2037 41.9256 53.2037 42.446H54.2037ZM54.4627 41.5611L55.2797 42.1378C55.3085 42.0969 55.379 42.0222 55.5735 41.9533L55.2397 41.0107L54.9058 40.0681C54.4098 40.2438 53.9622 40.5361 53.6457 40.9844L54.4627 41.5611ZM55.2397 41.0107L55.5845 41.9494C55.7897 41.874 56.1089 41.8165 56.5779 41.8165V40.8165V39.8165C55.9676 39.8165 55.3947 39.8884 54.8949 40.072L55.2397 41.0107ZM56.5779 40.8165V41.8165H57.6786V40.8165V39.8165H56.5779V40.8165ZM57.6786 40.8165H58.6786V40.2661H57.6786H56.6786V40.8165H57.6786ZM57.6786 40.2661H58.6786C58.6786 39.6892 58.517 39.0921 58.0499 38.6406L57.3549 39.3596L56.6598 40.0786C56.6497 40.0687 56.6501 40.0626 56.6559 40.079C56.6635 40.1003 56.6786 40.1571 56.6786 40.2661H57.6786ZM57.3549 39.3596L58.0499 38.6406C57.5741 38.1806 56.9431 38.0466 56.362 38.0466V39.0466V40.0466C56.6731 40.0466 56.704 40.1213 56.6598 40.0786L57.3549 39.3596ZM56.362 39.0466V38.0466C55.876 38.0466 55.3952 38.1592 54.9716 38.4372L55.5203 39.2733L56.0689 40.1093C56.1058 40.0851 56.1862 40.0466 56.362 40.0466V39.0466ZM55.5203 39.2733L54.9716 38.4372C54.6073 38.6763 54.3141 38.991 54.0908 39.3631L54.9483 39.8776L55.8058 40.3921C55.8847 40.2606 55.9728 40.1724 56.0689 40.1093L55.5203 39.2733ZM54.9483 39.8776L55.6323 39.148L55.1143 38.6624L54.4303 39.392L53.7464 40.1215L54.2644 40.6071L54.9483 39.8776ZM54.4303 39.392L55.3204 39.8478C55.378 39.7352 55.4865 39.6024 55.6996 39.4634L55.1534 38.6257L54.6071 37.7881C54.1584 38.0808 53.7848 38.4587 53.5403 38.9361L54.4303 39.392ZM55.1534 38.6257L55.6996 39.4634C55.8288 39.3791 56.0427 39.302 56.4052 39.302V38.302V37.302C55.7605 37.302 55.1398 37.4407 54.6071 37.7881L55.1534 38.6257ZM56.4052 38.302V39.302C56.9141 39.302 57.1705 39.4263 57.3074 39.5474L57.97 38.7984L58.6326 38.0494C58.0212 37.5086 57.2344 37.302 56.4052 37.302V38.302ZM57.97 38.7984L57.3145 39.5536C57.4393 39.6619 57.5419 39.8256 57.5419 40.1797H58.5419H59.5419C59.5419 39.354 59.2633 38.5968 58.6255 38.0432L57.97 38.7984ZM58.5419 40.1797H57.5419V43.2446H58.5419H59.5419V40.1797H58.5419ZM58.5419 43.2446V44.2446H59.1786V43.2446V42.2446H58.5419V43.2446ZM59.1786 43.2446H58.1786V44H59.1786H60.1786V43.2446H59.1786ZM57.6786 41.464V40.464H56.5347V41.464V42.464H57.6786V41.464ZM56.5347 41.464V40.464C55.9877 40.464 55.3972 40.537 54.9255 40.8318L55.4555 41.6798L55.9855 42.5278C55.9693 42.538 55.9937 42.5186 56.0941 42.4985C56.1921 42.4789 56.3356 42.464 56.5347 42.464V41.464ZM55.4555 41.6798L54.9255 40.8318C54.4004 41.16 54.1102 41.6905 54.1102 42.3057H55.1102H56.1102C56.1102 42.3128 56.1075 42.3631 56.0721 42.4273C56.0365 42.4917 55.9944 42.5222 55.9855 42.5278L55.4555 41.6798ZM55.1102 42.3057H54.1102V42.5323H55.1102H56.1102V42.3057H55.1102ZM55.1102 42.5323H54.1102C54.1102 43.0892 54.3351 43.6111 54.8124 43.969L55.4124 43.169L56.0124 42.369C56.0318 42.3836 56.065 42.417 56.0892 42.4678C56.112 42.5159 56.1102 42.5449 56.1102 42.5323H55.1102ZM55.4124 43.169L54.8124 43.969C55.2343 44.2855 55.7315 44.3957 56.2109 44.3957V43.3957V42.3957C56.0285 42.3957 55.9933 42.3548 56.0124 42.369L55.4124 43.169ZM56.2109 43.3957V44.3957C56.5967 44.3957 56.9794 44.338 57.3377 44.1946L56.9664 43.2662L56.595 42.3377C56.5217 42.367 56.4008 42.3957 56.2109 42.3957V43.3957ZM56.9664 43.2662L57.3531 44.1884C57.6919 44.0463 58.0129 43.8356 58.2616 43.5284L57.4844 42.8993L56.7071 42.2701C56.7112 42.265 56.6869 42.299 56.5796 42.344L56.9664 43.2662ZM57.4844 42.8993L58.2583 43.5325C58.5194 43.2134 58.6786 42.8212 58.6786 42.3812H57.6786H56.6786C56.6786 42.3566 56.6834 42.3275 56.6937 42.2999C56.7036 42.2735 56.7135 42.2623 56.7104 42.266L57.4844 42.8993ZM57.6786 42.3812H58.6786V41.464H57.6786H56.6786V42.3812H57.6786ZM64.8894 44.6151H63.8894C63.8894 44.8135 63.8409 44.8872 63.8153 44.9183L64.5872 45.554L65.3591 46.1897C65.7365 45.7315 65.8894 45.1793 65.8894 44.6151H64.8894ZM64.5872 45.554L63.8063 44.9293C63.7685 44.9766 63.6688 45.0678 63.406 45.1428L63.6807 46.1044L63.9554 47.0659C64.4984 46.9108 65.003 46.635 65.3681 46.1787L64.5872 45.554ZM63.6807 46.1044L63.3854 45.149C63.1174 45.2318 62.7286 45.2878 62.1915 45.2878V46.2878V47.2878C62.8486 47.2878 63.4527 47.2215 63.976 47.0598L63.6807 46.1044ZM62.1915 46.2878V45.2878C61.6684 45.2878 61.3015 45.2376 61.0599 45.1666L60.7778 46.126L60.4956 47.0853C60.9879 47.2301 61.5634 47.2878 62.1915 47.2878V46.2878ZM60.7778 46.126L61.0651 45.1681C60.8237 45.0957 60.7694 45.0246 60.7735 45.0297L59.99 45.6511L59.2065 46.2725C59.5415 46.6949 60.0124 46.9404 60.4904 47.0838L60.7778 46.126ZM59.99 45.6511L60.7627 45.0164C60.7559 45.0081 60.7534 45.0029 60.7511 44.9962C60.7484 44.9882 60.7418 44.9646 60.7418 44.9173H59.7418H58.7418C58.7418 45.4109 58.8893 45.8867 59.2172 46.2859L59.99 45.6511ZM59.7418 44.9173H60.7418C60.7418 44.8521 60.7504 44.827 60.7498 44.8288C60.7494 44.8302 60.7468 44.8372 60.7407 44.8477C60.7345 44.8584 60.7263 44.8699 60.7163 44.8808L59.9792 44.205L59.242 43.5293C58.8701 43.935 58.7418 44.4398 58.7418 44.9173H59.7418ZM59.9792 44.205L60.7163 44.8808C60.7203 44.8764 60.7545 44.8385 60.8812 44.8052L60.6267 43.8381L60.3722 42.871C59.952 42.9816 59.5546 43.1884 59.242 43.5293L59.9792 44.205ZM60.6267 43.8381H61.6267V43.7194H60.6267H59.6267V43.8381H60.6267ZM60.6267 43.7194L61.0739 42.825C61.0543 42.8152 61.0488 42.81 61.0519 42.8126C61.0535 42.8139 61.0569 42.8169 61.0615 42.8218C61.0661 42.8267 61.0714 42.833 61.0767 42.8406L60.2598 43.4173L59.4428 43.9939C59.6402 44.2736 59.9005 44.4743 60.1795 44.6138L60.6267 43.7194ZM60.2598 43.4173L61.0918 42.8626C61.1114 42.892 61.1222 42.9194 61.1274 42.9383C61.1322 42.9559 61.1303 42.9592 61.1303 42.9424H60.1303H59.1303C59.1303 43.2865 59.2114 43.6475 59.4277 43.972L60.2598 43.4173ZM60.1303 42.9424H61.1303C61.1303 42.9078 61.1358 42.9219 61.1185 42.963C61.1097 42.9835 61.0968 43.0069 61.0791 43.0303C61.0614 43.0537 61.0423 43.0725 61.0247 43.0866L60.4 42.3057L59.7753 41.5248C59.3064 41.9 59.1303 42.4313 59.1303 42.9424H60.1303ZM60.4 42.3057L61.0432 43.0714C61.0848 43.0365 61.1705 42.983 61.3391 42.9398L61.0907 41.9712L60.8423 41.0025C60.4497 41.1032 60.075 41.2727 59.7569 41.54L60.4 42.3057ZM61.0907 41.9712H62.0907V41.928H61.0907H60.0907V41.9712H61.0907ZM61.0907 41.928L61.5222 41.0259C61.3517 40.9443 61.2396 40.8409 61.1582 40.7126L60.3137 41.2481L59.4692 41.7837C59.762 42.2453 60.1679 42.5951 60.6593 42.8301L61.0907 41.928ZM60.3137 41.2481L61.1675 40.7275C61.0948 40.6082 61.0439 40.4512 61.0439 40.2229H60.0439H59.0439C59.0439 40.7716 59.1729 41.2981 59.4599 41.7687L60.3137 41.2481ZM60.0439 40.2229H61.0439C61.0439 39.9977 61.0932 39.8459 61.1604 39.7338L60.3029 39.2193L59.4454 38.7048C59.1673 39.1683 59.0439 39.6856 59.0439 40.2229H60.0439ZM60.3029 39.2193L61.1604 39.7338C61.2298 39.6182 61.3278 39.5227 61.484 39.4446L61.0368 38.5502L60.5895 37.6558C60.1126 37.8942 59.7214 38.2448 59.4454 38.7048L60.3029 39.2193ZM61.0368 38.5502L61.5 39.4364C61.6513 39.3573 61.8544 39.302 62.1375 39.302V38.302V37.302C61.5861 37.302 61.0553 37.4121 60.5735 37.664L61.0368 38.5502ZM62.1375 38.302V39.302C62.2799 39.302 62.3978 39.3147 62.4947 39.3349L62.6987 38.356L62.9026 37.377C62.6542 37.3252 62.398 37.302 62.1375 37.302V38.302ZM62.6987 38.356L62.5026 39.3365C62.6092 39.3579 62.6953 39.3874 62.7652 39.4207L63.1951 38.5178L63.625 37.615C63.3928 37.5044 63.1478 37.426 62.8948 37.3754L62.6987 38.356ZM63.1951 38.5178H64.1951V38.4207H63.1951H62.1951V38.5178H63.1951ZM63.1951 38.4207H64.1951C64.1951 38.3897 64.1988 38.386 64.1944 38.4013C64.1894 38.4187 64.177 38.4501 64.1512 38.4851L63.3462 37.8919L62.5411 37.2987C62.2831 37.6489 62.1951 38.0497 62.1951 38.4207H63.1951ZM63.3462 37.8919L64.1654 38.4654C64.107 38.5489 64.0261 38.6116 63.9445 38.6471C63.8719 38.6787 63.8283 38.6761 63.8426 38.6761V37.6761V36.6761C63.3981 36.6761 62.871 36.827 62.5269 37.3185L63.3462 37.8919ZM63.8426 37.6761V38.6761H64.6735V37.6761V36.6761H63.8426V37.6761ZM64.6735 37.6761H63.6735V38.4315H64.6735H65.6735V37.6761H64.6735ZM64.6735 38.4315V37.4315H63.616V38.4315V39.4315H64.6735V38.4315ZM63.616 38.4315H62.616V38.7876H63.616H64.616V38.4315H63.616ZM63.616 38.7876L62.9652 39.5469C63.0522 39.6215 63.117 39.7083 63.1651 39.8172L64.08 39.4135L64.9949 39.0099C64.8271 38.6296 64.5826 38.2991 64.2668 38.0284L63.616 38.7876ZM64.08 39.4135L63.1752 39.8393C63.2221 39.939 63.2527 40.0616 63.2527 40.2229H64.2527H65.2527C65.2527 39.7943 65.1682 39.3773 64.9848 38.9877L64.08 39.4135ZM64.2527 40.2229H63.2527C63.2527 40.4368 63.2053 40.5939 63.1307 40.7214L63.9937 41.2265L64.8567 41.7317C65.1274 41.2692 65.2527 40.7573 65.2527 40.2229H64.2527ZM63.9937 41.2265L63.1362 40.712C63.0644 40.8317 62.961 40.9343 62.7966 41.0202L63.2598 41.9064L63.7231 42.7926C64.1918 42.5476 64.5776 42.1969 64.8512 41.741L63.9937 41.2265ZM63.2598 41.9064L62.8126 41.012C62.66 41.0883 62.4482 41.1438 62.1483 41.1438V42.1438V43.1438C62.6974 43.1438 63.2266 43.0411 63.7071 42.8008L63.2598 41.9064ZM62.1483 42.1438V41.1438C62.0804 41.1438 62.0125 41.1412 61.9444 41.136L61.8677 42.133L61.791 43.1301C61.91 43.1392 62.0291 43.1438 62.1483 43.1438V42.1438ZM61.8677 42.133L62.0198 41.1447C61.9337 41.1314 61.8564 41.1185 61.7876 41.106L61.6087 42.0899L61.4298 43.0737C61.5193 43.09 61.6147 43.1059 61.7157 43.1214L61.8677 42.133ZM61.6087 42.0899L61.3391 41.1269C61.0643 41.2038 60.8053 41.3197 60.5646 41.4728L61.1015 42.3165L61.6384 43.1602C61.7143 43.1119 61.7934 43.0766 61.8783 43.0528L61.6087 42.0899ZM61.1015 42.3165L60.5751 41.4662C60.1401 41.7356 59.8749 42.1847 59.8749 42.7158H60.8749H61.8749C61.8749 42.7799 61.8594 42.8776 61.8012 42.9801C61.7438 43.0813 61.6717 43.1396 61.6279 43.1668L61.1015 42.3165ZM60.8749 42.7158H59.8749C59.8749 42.9615 59.9358 43.2445 60.1187 43.5023C60.3007 43.7587 60.5452 43.9082 60.7706 43.9901L61.1123 43.0503L61.454 42.1105C61.5211 42.1349 61.6469 42.1999 61.7497 42.3448C61.8536 42.4911 61.8749 42.6355 61.8749 42.7158H60.8749ZM61.1123 43.0503L60.7706 43.9901C61.0784 44.1021 61.4111 44.1367 61.7274 44.1367V43.1367V42.1367C61.6385 42.1367 61.5717 42.1315 61.5238 42.1248C61.5002 42.1215 61.4829 42.118 61.471 42.1152C61.459 42.1124 61.4538 42.1104 61.454 42.1105L61.1123 43.0503ZM61.7274 43.1367V44.1367H62.9145V43.1367V42.1367H61.7274V43.1367ZM62.9145 43.1367V44.1367C63.5182 44.1367 63.7236 44.2607 63.7623 44.294L64.4145 43.536L65.0668 42.7779C64.4867 42.2788 63.6922 42.1367 62.9145 42.1367V43.1367ZM64.4145 43.536L63.7813 44.3099C63.8347 44.3536 63.8894 44.4121 63.8894 44.6151H64.8894H65.8894C65.8894 43.8973 65.6275 43.2363 65.0478 42.762L64.4145 43.536ZM64.08 44.6799H65.08C65.08 44.1558 64.8575 43.6854 64.4417 43.3562L63.821 44.1403L63.2003 44.9243C63.1801 44.9083 63.1429 44.8711 63.1137 44.8104C63.0848 44.7501 63.08 44.7004 63.08 44.6799H64.08ZM63.821 44.1403L64.4373 43.3528C63.9872 43.0005 63.385 42.946 62.9253 42.946V43.946V44.946C63.0966 44.946 63.2034 44.9594 63.261 44.9719C63.3248 44.9857 63.2821 44.9884 63.2047 44.9278L63.821 44.1403ZM62.9253 43.946V42.946H61.0691V43.946V44.946H62.9253V43.946ZM61.0691 43.946L60.6664 43.0307C60.371 43.1607 60.0719 43.3613 59.8529 43.6715L60.6698 44.2482L61.4868 44.8249C61.4642 44.8569 61.4441 44.8736 61.4379 44.8783C61.4325 44.8824 61.441 44.8749 61.4719 44.8614L61.0691 43.946ZM60.6698 44.2482L59.8166 43.7268C59.6288 44.034 59.5511 44.3707 59.5511 44.7015H60.5511H61.5511C61.5511 44.6917 61.5522 44.6967 61.5482 44.712C61.5439 44.7281 61.5359 44.7487 61.5231 44.7697L60.6698 44.2482ZM60.5511 44.7015H59.5511C59.5511 45.2242 59.7564 45.6916 60.1284 46.0488L60.8209 45.3274L61.5135 44.606C61.5103 44.603 61.5241 44.6159 61.5369 44.6456C61.5498 44.6756 61.5511 44.6982 61.5511 44.7015H60.5511ZM60.8209 45.3274L60.1426 46.0622C60.6087 46.4924 61.2371 46.5864 61.7598 46.5864V45.5864V44.5864C61.6009 44.5864 61.5074 44.5702 61.4619 44.5576C61.418 44.5455 61.4477 44.545 61.4992 44.5926L60.8209 45.3274ZM61.7598 45.5864V46.5864H62.5584V45.5864V44.5864H61.7598V45.5864ZM62.5584 45.5864V46.5864C63.1233 46.5864 63.6949 46.5015 64.1743 46.2294L63.6807 45.3597L63.1871 44.4901C63.1341 44.5202 62.9576 44.5864 62.5584 44.5864V45.5864ZM63.6807 45.3597L64.1743 46.2294C64.7485 45.9036 65.08 45.3477 65.08 44.6799H64.08H63.08C63.08 44.68 63.0815 44.632 63.1179 44.57C63.1539 44.5087 63.1929 44.4868 63.1871 44.4901L63.6807 45.3597ZM62.1483 41.4532V42.4532C62.6677 42.4532 63.2034 42.33 63.6471 41.975L63.0224 41.1942L62.3977 40.4133C62.4098 40.4037 62.3627 40.4532 62.1483 40.4532V41.4532ZM63.0224 41.1942L63.6626 41.9624C64.1719 41.5379 64.3462 40.9403 64.3462 40.374H63.3462H62.3462C62.3462 40.4619 62.333 40.4923 62.3351 40.4871C62.3364 40.4838 62.3409 40.4738 62.3503 40.4605C62.3599 40.4471 62.3712 40.4352 62.3822 40.4259L63.0224 41.1942ZM63.3462 40.374H64.3462V40.0718H63.3462H62.3462V40.374H63.3462ZM63.3462 40.0718H64.3462C64.3462 39.508 64.1726 38.902 63.6471 38.4816L63.0224 39.2625L62.3977 40.0433C62.3833 40.0318 62.3691 40.0172 62.357 40.0007C62.3451 39.9844 62.3391 39.9714 62.3368 39.9657C62.3328 39.9559 62.3462 39.9835 62.3462 40.0718H63.3462ZM63.0224 39.2625L63.6626 38.4942C63.2182 38.1239 62.6766 37.9927 62.1483 37.9927V38.9927V39.9927C62.2514 39.9927 62.314 40.0054 62.3471 40.0156C62.3632 40.0206 62.3725 40.025 62.3768 40.0273C62.3809 40.0295 62.3822 40.0307 62.3822 40.0307L63.0224 39.2625ZM62.1483 38.9927V37.9927C61.62 37.9927 61.0783 38.1239 60.634 38.4942L61.2742 39.2625L61.9144 40.0307C61.9144 40.0307 61.9157 40.0295 61.9198 40.0273C61.9241 40.025 61.9334 40.0206 61.9495 40.0156C61.9826 40.0054 62.0452 39.9927 62.1483 39.9927V38.9927ZM61.2742 39.2625L60.6495 38.4816C60.124 38.902 59.9504 39.508 59.9504 40.0718H60.9504H61.9504C61.9504 39.9835 61.9637 39.9559 61.9598 39.9657C61.9575 39.9714 61.9515 39.9844 61.9396 40.0007C61.9275 40.0172 61.9132 40.0318 61.8989 40.0433L61.2742 39.2625ZM60.9504 40.0718H59.9504V40.374H60.9504H61.9504V40.0718H60.9504ZM60.9504 40.374H59.9504C59.9504 40.9403 60.1246 41.5379 60.634 41.9624L61.2742 41.1942L61.9144 40.4259C61.9254 40.4352 61.9367 40.4471 61.9463 40.4605C61.9557 40.4738 61.9602 40.4838 61.9615 40.4871C61.9636 40.4923 61.9504 40.4619 61.9504 40.374H60.9504ZM61.2742 41.1942L60.6495 41.975C61.0932 42.33 61.6289 42.4532 62.1483 42.4532V41.4532V40.4532C61.9339 40.4532 61.8868 40.4037 61.8989 40.4133L61.2742 41.1942ZM73.1844 44L73.9227 43.3255L73.1241 42.4514L72.3858 43.1259L71.6475 43.8004L72.4461 44.6745L73.1844 44ZM72.3858 43.1259V42.1259H72.3642V43.1259V44.1259H72.3858V43.1259ZM72.3642 43.1259L71.5749 42.5119C71.5319 42.5671 71.444 42.661 71.2866 42.7942L71.9325 43.5575L72.5785 44.3209C72.7952 44.1375 72.9951 43.9436 73.1536 43.7398L72.3642 43.1259ZM71.9325 43.5575L71.3042 42.7796C71.2135 42.8529 71.0693 42.9402 70.8489 43.0284L71.2203 43.9568L71.5917 44.8853C71.9468 44.7432 72.2775 44.5644 72.5609 44.3355L71.9325 43.5575ZM71.2203 43.9568L70.8489 43.0284C70.7088 43.0844 70.4963 43.1295 70.1843 43.1295V44.1295V45.1295C70.6781 45.1295 71.1562 45.0595 71.5917 44.8853L71.2203 43.9568ZM70.1843 44.1295V43.1295C69.8112 43.1295 69.5634 43.0592 69.3979 42.9696L68.9217 43.8489L68.4454 44.7282C68.9706 45.0127 69.5645 45.1295 70.1843 45.1295V44.1295ZM68.9217 43.8489L69.3979 42.9696C69.2037 42.8644 69.0835 42.7405 69.0033 42.5995L68.1339 43.0935L67.2644 43.5875C67.544 44.0796 67.949 44.4593 68.4454 44.7282L68.9217 43.8489ZM68.1339 43.0935L69.0118 42.6146C68.9239 42.4535 68.8749 42.2706 68.8749 42.0467H67.8749H66.8749C66.8749 42.5854 66.9986 43.1004 67.256 43.5723L68.1339 43.0935ZM67.8749 42.0467H68.8749C68.8749 41.8074 68.9226 41.6655 68.9712 41.5799L68.1015 41.0863L67.2318 40.5926C66.9782 41.0394 66.8749 41.5378 66.8749 42.0467H67.8749ZM68.1015 41.0863L68.9712 41.5799C69.0628 41.4184 69.1735 41.2886 69.3041 41.1825L68.6735 40.4064L68.0429 39.6303C67.713 39.8983 67.4423 40.2217 67.2318 40.5926L68.1015 41.0863ZM68.6735 40.4064L69.2923 41.1919C69.4837 41.0411 69.6811 40.9126 69.8848 40.8051L69.4181 39.9207L68.9513 39.0364C68.637 39.2022 68.3381 39.3975 68.0546 39.6209L68.6735 40.4064ZM69.4181 39.9207L70.144 39.233C69.9353 39.0127 69.7801 38.8001 69.6684 38.5971L68.7922 39.079L67.916 39.5609C68.1208 39.9334 68.3829 40.282 68.6921 40.6085L69.4181 39.9207ZM68.7922 39.079L69.6776 38.6142C69.6032 38.4725 69.5655 38.323 69.5655 38.1509H68.5655H67.5655C67.5655 38.6407 67.679 39.11 67.9068 39.5438L68.7922 39.079ZM68.5655 38.1509H69.5655C69.5655 37.9759 69.6045 37.8451 69.6684 37.7347L68.803 37.2336L67.9375 36.7326C67.6849 37.169 67.5655 37.6497 67.5655 38.1509H68.5655ZM68.803 37.2336L69.6585 37.7514C69.7267 37.6387 69.8214 37.5451 69.9664 37.4673L69.4936 36.5861L69.0208 35.705C68.5759 35.9437 68.2102 36.2818 67.9475 36.7158L68.803 37.2336ZM69.4936 36.5861L69.9829 37.4583C70.1074 37.3884 70.2759 37.3379 70.5188 37.3379V36.3379V35.3379C69.9848 35.3379 69.4698 35.4529 69.0044 35.714L69.4936 36.5861ZM70.5188 36.3379V37.3379C70.7515 37.3379 70.9019 37.3817 71.0009 37.4325L71.4577 36.543L71.9145 35.6534C71.4812 35.4309 71.0056 35.3379 70.5188 35.3379V36.3379ZM71.4577 36.543L71.0105 37.4374C71.1286 37.4965 71.1964 37.564 71.2436 37.6404L72.0944 37.1149L72.9452 36.5894C72.6903 36.1766 72.3336 35.8628 71.9049 35.6485L71.4577 36.543ZM72.0944 37.1149L71.2624 37.6696C71.2968 37.7213 71.3318 37.8029 71.3318 37.9567H72.3318H73.3318C73.3318 37.4629 73.2085 36.9833 72.9265 36.5602L72.0944 37.1149ZM72.3318 37.9567H71.3318C71.3318 38.1218 71.2947 38.2152 71.2549 38.2767L72.0944 38.82L72.934 39.3633C73.2107 38.9356 73.3318 38.4534 73.3318 37.9567H72.3318ZM72.0944 38.82L71.2436 38.2945C71.1698 38.4141 71.0558 38.5415 70.879 38.6705L71.4685 39.4783L72.058 40.2861C72.4136 40.0266 72.7169 39.7151 72.9452 39.3455L72.0944 38.82ZM71.4685 39.4783L70.8685 38.6783C70.6472 38.8443 70.3954 39.0085 70.1112 39.17L70.6052 40.0395L71.0992 40.9089C71.4481 40.7107 71.7718 40.5008 72.0685 40.2783L71.4685 39.4783ZM70.6052 40.0395L69.8725 40.7201L71.5668 42.5439L72.2995 41.8633L73.0321 41.1826L71.3378 39.3588L70.6052 40.0395ZM72.2995 41.8633L73.2296 42.2304C73.3626 41.8934 73.4623 41.54 73.5308 41.172L72.5477 40.9891L71.5645 40.8062C71.5179 41.057 71.4521 41.2863 71.3693 41.4961L72.2995 41.8633ZM72.5477 40.9891L73.5315 41.168C73.597 40.808 73.6381 40.4469 73.6546 40.0849L72.6556 40.0395L71.6566 39.994C71.6443 40.2651 71.6135 40.5371 71.5638 40.8102L72.5477 40.9891ZM72.6556 40.0395V41.0395H74.1233V40.0395V39.0395H72.6556V40.0395ZM74.1233 40.0395H73.1233V40.7733H74.1233H75.1233V40.0395H74.1233ZM74.1233 40.7733V39.7733H73.357V40.7733V41.7733H74.1233V40.7733ZM73.357 40.7733L72.37 40.6126C72.3265 40.8798 72.2682 41.1301 72.1962 41.3641L73.152 41.6582L74.1078 41.9523C74.2084 41.6252 74.2868 41.2855 74.3441 40.934L73.357 40.7733ZM73.152 41.6582L72.1962 41.3641C72.1256 41.5937 72.0428 41.7973 71.9501 41.9772L72.839 42.4352L73.728 42.8932C73.8799 42.5983 74.0058 42.2839 74.1078 41.9523L73.152 41.6582ZM72.839 42.4352L72.1097 43.1193L73.5773 44.6841L74.3067 44L75.0361 43.3159L73.5684 41.7511L72.839 42.4352ZM74.3067 44V43H73.1844V44V45H74.3067V44ZM70.4757 37.061V36.061C69.9372 36.061 69.4236 36.2388 69.0153 36.6325L69.7095 37.3523L70.4036 38.0722C70.4076 38.0683 70.4092 38.0675 70.4084 38.068C70.4075 38.0685 70.4069 38.0688 70.4075 38.0685C70.4077 38.0684 70.4265 38.061 70.4757 38.061V37.061ZM69.7095 37.3523L69.0023 36.6452C68.6109 37.0367 68.4181 37.5364 68.4181 38.0754H69.4181H70.4181C70.4181 38.0598 70.4194 38.0514 70.4198 38.049C70.4203 38.0467 70.4201 38.0484 70.4184 38.0526C70.4167 38.0568 70.4146 38.0606 70.413 38.0631C70.4114 38.0654 70.4119 38.0641 70.4166 38.0594L69.7095 37.3523ZM69.4181 38.0754H68.4181V38.2049H69.4181H70.4181V38.0754H69.4181ZM69.4181 38.2049H68.4181C68.4181 38.4855 68.4748 38.7551 68.5759 39.0079L69.5044 38.6365L70.4329 38.2652C70.4189 38.2302 70.4181 38.212 70.4181 38.2049H69.4181ZM69.5044 38.6365L68.5925 39.0469C68.6885 39.2603 68.81 39.4647 68.9497 39.6602L69.7634 39.079L70.5772 38.4978C70.501 38.3911 70.4498 38.3006 70.4163 38.2262L69.5044 38.6365ZM69.7634 39.079L68.9497 39.6602C69.0791 39.8414 69.2254 40.0247 69.3865 40.21L70.1411 39.5538L70.8957 38.8977C70.7691 38.752 70.6636 38.6188 70.5772 38.4978L69.7634 39.079ZM70.1411 39.5538L70.6103 40.437C70.8773 40.2951 71.1308 40.139 71.3699 39.9683L70.7886 39.1545L70.2074 38.3408C70.0436 38.4578 69.8654 38.568 69.672 38.6707L70.1411 39.5538ZM70.7886 39.1545L71.3751 39.9645C71.6498 39.7656 71.8958 39.5357 72.0958 39.2689L71.2958 38.6689L70.4958 38.0689C70.4369 38.1475 70.3447 38.2414 70.2021 38.3446L70.7886 39.1545ZM71.2958 38.6689L72.092 39.274C72.3385 38.9496 72.5009 38.5549 72.5009 38.1077H71.5009H70.5009C70.5009 38.0973 70.5018 38.0864 70.5037 38.0757C70.5057 38.065 70.5082 38.0564 70.5104 38.0505C70.5148 38.0384 70.5155 38.043 70.4997 38.0638L71.2958 38.6689ZM71.5009 38.1077H72.5009V37.9782H71.5009H70.5009V38.1077H71.5009ZM71.5009 37.9782H72.5009C72.5009 37.6182 72.4118 37.2474 72.1859 36.9171L71.3606 37.4818L70.5353 38.0465C70.5185 38.022 70.5085 37.998 70.5035 37.9804C70.4989 37.9641 70.5009 37.9614 70.5009 37.9782H71.5009ZM71.3606 37.4818L72.1859 36.9172C71.9841 36.6222 71.7125 36.4021 71.3967 36.2585L70.9829 37.1689L70.5691 38.0792C70.5727 38.0809 70.5674 38.0789 70.558 38.0711C70.5483 38.0631 70.5404 38.054 70.5353 38.0465L71.3606 37.4818ZM70.9829 37.1689L71.4128 36.266C71.1123 36.1229 70.7938 36.061 70.4757 36.061V37.061V38.061C70.5316 38.061 70.5513 38.0709 70.5529 38.0717L70.9829 37.1689ZM70.2598 43.3741V44.3741C70.5916 44.3741 70.9205 44.3303 71.2344 44.2256L70.9181 43.277L70.6019 42.3283C70.5272 42.3532 70.4173 42.3741 70.2598 42.3741V43.3741ZM70.9181 43.277L71.2241 44.229C71.5185 44.1344 71.7951 43.9983 72.0459 43.8159L71.4577 43.0072L70.8695 42.1984C70.8038 42.2462 70.7207 42.29 70.6121 42.3249L70.9181 43.277ZM71.4577 43.0072L72.0288 43.8281C72.2772 43.6552 72.4956 43.4481 72.6807 43.2085L71.8894 42.5971L71.0981 41.9856C71.0386 42.0626 70.9691 42.1289 70.8866 42.1863L71.4577 43.0072ZM71.8894 42.5971L72.6232 41.9177L70.6052 39.7378L69.8713 40.4172L69.1375 41.0965L71.1556 43.2764L71.8894 42.5971ZM69.8713 40.4172L69.411 39.5294C69.1685 39.6551 68.9383 39.7995 68.721 39.9625L69.321 40.7625L69.921 41.5625C70.049 41.4665 70.1856 41.3806 70.3317 41.3049L69.8713 40.4172ZM69.321 40.7625L68.7047 39.975C68.4292 40.1906 68.2066 40.456 68.0412 40.7632L68.9217 41.2373L69.8021 41.7114C69.8381 41.6446 69.8818 41.5934 69.9373 41.55L69.321 40.7625ZM68.9217 41.2373L68.0492 40.7487C67.84 41.1221 67.7706 41.5355 67.7706 41.928H68.7706H69.7706C69.7706 41.7594 69.8018 41.7122 69.7942 41.7259L68.9217 41.2373ZM68.7706 41.928H67.7706V42.0899H68.7706H69.7706V41.928H68.7706ZM68.7706 42.0899H67.7706C67.7706 42.7356 68.0011 43.34 68.5157 43.7851L69.1699 43.0288L69.824 42.2724C69.8063 42.257 69.7706 42.2356 69.7706 42.0899H68.7706ZM69.1699 43.0288L68.5257 43.7937C69.0235 44.2128 69.6357 44.3741 70.2598 44.3741V43.3741V42.3741C69.9775 42.3741 69.8631 42.3052 69.814 42.2638L69.1699 43.0288ZM48.6009 54V53H44.0036V54V55H48.6009V54ZM44.0036 54H45.0036V46.4674H44.0036H43.0036V54H44.0036ZM44.0036 46.4674V47.4674H48.6009V46.4674V45.4674H44.0036V46.4674ZM48.6009 46.4674H47.6009V47.266H48.6009H49.6009V46.4674H48.6009ZM48.6009 47.266V46.266H44.9101V47.266V48.266H48.6009V47.266ZM44.9101 47.266H43.9101V49.7912H44.9101H45.9101V47.266H44.9101ZM44.9101 49.7912V50.7912H48.385V49.7912V48.7912H44.9101V49.7912ZM48.385 49.7912H47.385V50.5898H48.385H49.385V49.7912H48.385ZM48.385 50.5898V49.5898H44.9101V50.5898V51.5898H48.385V50.5898ZM44.9101 50.5898H43.9101V53.2014H44.9101H45.9101V50.5898H44.9101ZM44.9101 53.2014V54.2014H48.6009V53.2014V52.2014H44.9101V53.2014ZM48.6009 53.2014H47.6009V54H48.6009H49.6009V53.2014H48.6009ZM49.3024 54L50.1083 54.592L52.1695 51.7862L51.3636 51.1942L50.5577 50.6021L48.4965 53.408L49.3024 54ZM51.3636 51.1942L52.1771 50.6126L50.2023 47.85L49.3888 48.4315L48.5752 49.013L50.5501 51.7757L51.3636 51.1942ZM49.3888 48.4315V49.4315H50.4032V48.4315V47.4315H49.3888V48.4315ZM50.4032 48.4315L49.5771 48.9951L50.9908 51.0671L51.8169 50.5035L52.6429 49.9399L51.2292 47.8679L50.4032 48.4315ZM51.8169 50.5035V51.5035H51.8493V50.5035V49.5035H51.8169V50.5035ZM51.8493 50.5035L52.6653 51.0815L54.1329 49.0095L53.3169 48.4315L52.5009 47.8535L51.0332 49.9255L51.8493 50.5035ZM53.3169 48.4315V49.4315H54.2774V48.4315V47.4315H53.3169V48.4315ZM54.2774 48.4315L53.4689 47.8429L51.5048 50.5409L52.3133 51.1294L53.1217 51.718L55.0858 49.0201L54.2774 48.4315ZM52.3133 51.1294L51.4938 51.7025L53.501 54.573L54.3205 54L55.1401 53.427L53.1328 50.5564L52.3133 51.1294ZM54.3205 54V53H53.3061V54V55H54.3205V54ZM53.3061 54L54.1394 53.4472L52.6934 51.2673L51.86 51.8201L51.0267 52.3729L52.4728 54.5528L53.3061 54ZM51.86 51.8201V50.8201H51.8277V51.8201V52.8201H51.86V51.8201ZM51.8277 51.8201L51.0153 51.2369L49.4505 53.4169L50.2629 54L51.0752 54.5831L52.64 52.4032L51.8277 51.8201ZM50.2629 54V53H49.3024V54V55H50.2629V54ZM55.2469 56.1583H56.2469V48.4315H55.2469H54.2469V56.1583H55.2469ZM55.2469 48.4315V49.4315H56.1102V48.4315V47.4315H55.2469V48.4315ZM56.1102 48.4315H55.1102V49.338H56.1102H57.1102V48.4315H56.1102ZM56.1102 49.338V50.338H56.1534V49.338V48.338H56.1102V49.338ZM56.1534 49.338L57.0792 49.7159C57.1549 49.5304 57.2365 49.4587 57.298 49.4224L56.7901 48.561L56.2821 47.6996C55.7825 47.9943 55.4396 48.4406 55.2275 48.9601L56.1534 49.338ZM56.7901 48.561L57.3142 49.4127C57.4137 49.3514 57.557 49.302 57.7829 49.302V48.302V47.302C57.2462 47.302 56.7276 47.4252 56.266 47.7093L56.7901 48.561ZM57.7829 48.302V49.302C58.073 49.302 58.2688 49.3725 58.4169 49.4765L58.9916 48.6581L59.5662 47.8397C59.0381 47.4689 58.428 47.302 57.7829 47.302V48.302ZM58.9916 48.6581L58.4169 49.4765C58.5765 49.5885 58.7249 49.763 58.8433 50.0518L59.7686 49.6725L60.6939 49.2933C60.4525 48.7044 60.0829 48.2025 59.5662 47.8397L58.9916 48.6581ZM59.7686 49.6725L58.851 50.0701C58.9712 50.3474 59.0491 50.7199 59.0491 51.2158H60.0491H61.0491C61.0491 50.5173 60.9401 49.861 60.6861 49.2749L59.7686 49.6725ZM60.0491 51.2158H59.0491C59.0491 51.7019 58.9719 52.0776 58.8486 52.3669L59.7686 52.759L60.6885 53.1511C60.9393 52.5626 61.0491 51.9095 61.0491 51.2158H60.0491ZM59.7686 52.759L58.8433 52.3797C58.7249 52.6685 58.5765 52.843 58.4169 52.955L58.9916 53.7734L59.5662 54.5918C60.0829 54.229 60.4525 53.7271 60.6939 53.1382L59.7686 52.759ZM58.9916 53.7734L58.4169 52.955C58.2688 53.059 58.073 53.1295 57.7829 53.1295V54.1295V55.1295C58.428 55.1295 59.0381 54.9626 59.5662 54.5918L58.9916 53.7734ZM57.7829 54.1295V53.1295C57.5562 53.1295 57.4217 53.0798 57.3349 53.025L56.8009 53.8705L56.2669 54.716C56.7268 55.0065 57.2469 55.1295 57.7829 55.1295V54.1295ZM56.8009 53.8705L57.345 53.0315C57.2624 52.9779 57.1577 52.8753 57.0552 52.6614L56.1534 53.0935L55.2515 53.5256C55.48 54.0024 55.8069 54.4177 56.2567 54.7095L56.8009 53.8705ZM56.1534 53.0935V52.0935H56.1102V53.0935V54.0935H56.1534V53.0935ZM56.1102 53.0935H55.1102V56.1583H56.1102H57.1102V53.0935H56.1102ZM56.1102 56.1583V55.1583H55.2469V56.1583V57.1583H56.1102V56.1583ZM57.5455 53.3525V54.3525C58.2564 54.3525 58.928 54.1236 59.433 53.5797L58.7002 52.8993L57.9674 52.2188C57.9112 52.2793 57.813 52.3525 57.5455 52.3525V53.3525ZM58.7002 52.8993L59.4409 53.5711C59.9189 53.0441 60.1211 52.3858 60.1211 51.6906H59.1211H58.1211C58.1211 51.9882 58.0427 52.1357 57.9595 52.2274L58.7002 52.8993ZM59.1211 51.6906H60.1211V50.7409H59.1211H58.1211V51.6906H59.1211ZM59.1211 50.7409H60.1211C60.1211 50.0465 59.9191 49.3861 59.433 48.8626L58.7002 49.543L57.9674 50.2235C58.0425 50.3043 58.1211 50.4425 58.1211 50.7409H59.1211ZM58.7002 49.543L59.4409 48.8712C58.9379 48.3166 58.2639 48.079 57.5455 48.079V49.079V50.079C57.8055 50.079 57.9013 50.1507 57.9595 50.2149L58.7002 49.543ZM57.5455 49.079V48.079C57.1632 48.079 56.7897 48.1487 56.4357 48.2971L56.8224 49.2193L57.2092 50.1415C57.3012 50.1029 57.4098 50.079 57.5455 50.079V49.079ZM56.8224 49.2193L56.4248 48.3017C56.0848 48.4491 55.7752 48.6647 55.5305 48.9638L56.3044 49.597L57.0784 50.2302C57.0927 50.2128 57.1285 50.1765 57.22 50.1368L56.8224 49.2193ZM56.3044 49.597L55.5305 48.9638C55.2516 49.3046 55.1102 49.713 55.1102 50.1474H56.1102H57.1102C57.1102 50.1471 57.1102 50.1511 57.109 50.1586C57.1077 50.1661 57.1055 50.1756 57.1017 50.1861C57.0936 50.2091 57.0832 50.2244 57.0784 50.2302L56.3044 49.597ZM56.1102 50.1474H55.1102V52.2194H56.1102H57.1102V50.1474H56.1102ZM56.1102 52.2194H55.1102C55.1102 52.6503 55.2321 53.0713 55.5044 53.4345L56.3044 52.8345L57.1044 52.2345C57.1052 52.2356 57.1069 52.238 57.1087 52.2416C57.1106 52.2452 57.1117 52.2482 57.1123 52.2501C57.1129 52.2519 57.1124 52.251 57.1118 52.2466C57.1111 52.2421 57.1102 52.2332 57.1102 52.2194H56.1102ZM56.3044 52.8345L55.5169 53.4508C55.761 53.7627 56.0745 53.9888 56.4248 54.1406L56.8224 53.223L57.22 52.3054C57.1387 52.2702 57.1068 52.2372 57.0919 52.2182L56.3044 52.8345ZM56.8224 53.223L56.4614 54.1556C56.8088 54.29 57.1733 54.3525 57.5455 54.3525V53.3525V52.3525C57.3997 52.3525 57.2821 52.3286 57.1834 52.2904L56.8224 53.223ZM62.9745 54V53H62.2083V54V55H62.9745V54ZM62.2083 54V53C62.1526 53 62.1421 52.992 62.1601 52.9986C62.1695 53.002 62.1843 53.0086 62.2019 53.02C62.2197 53.0314 62.2365 53.0453 62.2511 53.0606L61.5285 53.7518L60.8058 54.443C61.2032 54.8585 61.7233 55 62.2083 55V54ZM61.5285 53.7518L62.2656 53.0761C62.2684 53.0791 62.2729 53.0847 62.2779 53.0928C62.2828 53.1008 62.2866 53.109 62.2893 53.1162C62.2949 53.1316 62.291 53.1311 62.291 53.1043H61.291H60.291C60.291 53.5848 60.4455 54.0503 60.7913 54.4275L61.5285 53.7518ZM61.291 53.1043H62.291V46.0142H61.291H60.291V53.1043H61.291ZM61.291 46.0142V47.0142H62.1544V46.0142V45.0142H61.291V46.0142ZM62.1544 46.0142H61.1544V53.2446H62.1544H63.1544V46.0142H62.1544ZM62.1544 53.2446V54.2446H62.9745V53.2446V52.2446H62.1544V53.2446ZM62.9745 53.2446H61.9745V54H62.9745H63.9745V53.2446H62.9745ZM66.1199 54.1295V53.1295C65.79 53.1295 65.5382 53.0529 65.3319 52.9245L64.8033 53.7734L64.2747 54.6223C64.831 54.9687 65.4569 55.1295 66.1199 55.1295V54.1295ZM64.8033 53.7734L65.3505 52.9364C65.1364 52.7964 64.956 52.5981 64.8128 52.3117L63.9184 52.759L63.024 53.2062C63.3124 53.7831 63.722 54.2612 64.2561 54.6103L64.8033 53.7734ZM63.9184 52.759L64.8215 52.3296C64.6888 52.0505 64.6054 51.6884 64.6054 51.2158H63.6054H62.6054C62.6054 51.923 62.7307 52.5897 63.0152 53.1883L63.9184 52.759ZM63.6054 51.2158H64.6054C64.6054 50.7425 64.689 50.3868 64.8187 50.1185L63.9184 49.6833L63.018 49.2482C62.7305 49.8432 62.6054 50.5091 62.6054 51.2158H63.6054ZM63.9184 49.6833L64.8157 50.1247C64.9591 49.8332 65.1361 49.6421 65.3391 49.5132L64.8033 48.6689L64.2675 47.8246C63.7223 48.1706 63.3093 48.6558 63.021 49.242L63.9184 49.6833ZM64.8033 48.6689L65.3433 49.5106C65.5481 49.3792 65.7959 49.302 66.1199 49.302V48.302V47.302C65.4511 47.302 64.8211 47.4694 64.2633 47.8272L64.8033 48.6689ZM66.1199 48.302V49.302C66.4442 49.302 66.6847 49.3792 66.8784 49.5059L67.4257 48.6689L67.9729 47.8319C67.4184 47.4694 66.7884 47.302 66.1199 47.302V48.302ZM67.4257 48.6689L66.8971 49.5178C67.1027 49.6458 67.274 49.8319 67.4075 50.1127L68.3106 49.6833L69.2137 49.254C68.9299 48.6571 68.5113 48.1669 67.9542 47.82L67.4257 48.6689ZM68.3106 49.6833L67.4162 50.1305C67.5488 50.3959 67.6343 50.7471 67.6343 51.2158H68.6343H69.6343C69.6343 50.5045 69.504 49.8341 69.205 49.2361L68.3106 49.6833ZM68.6343 51.2158H67.6343C67.6343 51.6838 67.549 52.0416 67.4132 52.3176L68.3106 52.759L69.2079 53.2003C69.5038 52.5986 69.6343 51.9276 69.6343 51.2158H68.6343ZM68.3106 52.759L67.4102 52.3238C67.277 52.5994 67.1025 52.7926 66.8857 52.9317L67.4257 53.7734L67.9656 54.6151C68.5115 54.2649 68.9269 53.7818 69.2109 53.1941L68.3106 52.759ZM67.4257 53.7734L66.8898 52.929C66.6947 53.0529 66.4501 53.1295 66.1199 53.1295V54.1295V55.1295C66.7825 55.1295 67.4084 54.9687 67.9615 54.6177L67.4257 53.7734ZM66.1199 53.3633V54.3633C66.8103 54.3633 67.4547 54.1424 67.9621 53.6474L67.2638 52.9316L66.5655 52.2158C66.4829 52.2964 66.3647 52.3633 66.1199 52.3633V53.3633ZM67.2638 52.9316L67.9621 53.6474C68.5204 53.1027 68.7063 52.357 68.7063 51.615H67.7063H66.7063C66.7063 52.053 66.5971 52.185 66.5655 52.2158L67.2638 52.9316ZM67.7063 51.615H68.7063V50.8165H67.7063H66.7063V51.615H67.7063ZM67.7063 50.8165H68.7063C68.7063 50.0745 68.5204 49.3288 67.9621 48.7841L67.2638 49.4999L66.5655 50.2157C66.5971 50.2465 66.7063 50.3785 66.7063 50.8165H67.7063ZM67.2638 49.4999L67.9621 48.7841C67.4547 48.2891 66.8103 48.0682 66.1199 48.0682V49.0682V50.0682C66.3647 50.0682 66.4829 50.1351 66.5655 50.2157L67.2638 49.4999ZM66.1199 49.0682V48.0682C65.4316 48.0682 64.7944 48.2919 64.2863 48.7757L64.976 49.4999L65.6656 50.224C65.7619 50.1323 65.8873 50.0682 66.1199 50.0682V49.0682ZM64.976 49.4999L64.2776 48.7841C63.7194 49.3288 63.5335 50.0745 63.5335 50.8165H64.5335H65.5335C65.5335 50.3785 65.6426 50.2465 65.6743 50.2157L64.976 49.4999ZM64.5335 50.8165H63.5335V51.615H64.5335H65.5335V50.8165H64.5335ZM64.5335 51.615H63.5335C63.5335 52.357 63.7194 53.1027 64.2776 53.6474L64.976 52.9316L65.6743 52.2158C65.6426 52.185 65.5335 52.053 65.5335 51.615H64.5335ZM64.976 52.9316L64.2863 53.6558C64.7944 54.1396 65.4316 54.3633 66.1199 54.3633V53.3633V52.3633C65.8873 52.3633 65.7619 52.2992 65.6656 52.2075L64.976 52.9316ZM70.7017 54V53H69.8384V54V55H70.7017V54ZM69.8384 54H70.8384V48.4315H69.8384H68.8384V54H69.8384ZM69.8384 48.4315V49.4315H70.7017V48.4315V47.4315H69.8384V48.4315ZM70.7017 48.4315H69.7017V49.4567H70.7017H71.7017V48.4315H70.7017ZM70.7017 49.4567V50.4567H70.7557V49.4567V48.4567H70.7017V49.4567ZM70.7557 49.4567L71.6965 49.7954C71.7143 49.7462 71.7443 49.6921 71.7994 49.6312L71.0578 48.9603L70.3163 48.2894C70.098 48.5307 69.9265 48.8075 69.8148 49.118L70.7557 49.4567ZM71.0578 48.9603L71.8147 49.6139C71.8414 49.583 71.8891 49.5413 71.9842 49.5001L71.5866 48.5826L71.189 47.665C70.8524 47.8109 70.5477 48.021 70.301 48.3067L71.0578 48.9603ZM71.5866 48.5826L72.0095 49.4888C72.0623 49.4641 72.1696 49.4315 72.3636 49.4315V48.4315V47.4315C71.9533 47.4315 71.5426 47.4996 71.1637 47.6764L71.5866 48.5826ZM72.3636 48.4315V49.4315H72.6982V48.4315V47.4315H72.3636V48.4315ZM72.6982 48.4315H71.6982V49.2948H72.6982H73.6982V48.4315H72.6982ZM72.6982 49.2948V48.2948H72.191V49.2948V50.2948H72.6982V49.2948ZM72.191 49.2948V48.2948C71.7926 48.2948 71.3979 48.3499 71.0314 48.4918L71.3924 49.4243L71.7534 50.3569C71.833 50.3261 71.9706 50.2948 72.191 50.2948V49.2948ZM71.3924 49.4243L71.058 48.4819C70.7217 48.6012 70.3909 48.7887 70.1291 49.0813L70.8744 49.7481L71.6196 50.4149C71.6024 50.4341 71.617 50.4057 71.7268 50.3668L71.3924 49.4243ZM70.8744 49.7481L70.1095 49.1039C69.8414 49.4222 69.7017 49.809 69.7017 50.2229H70.7017H71.7017C71.7017 50.2416 71.6984 50.2734 71.6847 50.311C71.671 50.3488 71.6527 50.3763 71.6393 50.3922L70.8744 49.7481ZM70.7017 50.2229H69.7017V54H70.7017H71.7017V50.2229H70.7017ZM75.626 54.1295V53.1295C75.2855 53.1295 75.038 53.0514 74.8452 52.929L74.3094 53.7734L73.7736 54.6177C74.329 54.9702 74.9592 55.1295 75.626 55.1295V54.1295ZM74.3094 53.7734L74.8567 52.9364C74.6456 52.7984 74.4712 52.6043 74.3356 52.3238L73.4353 52.759L72.5349 53.1941C72.8166 53.777 73.225 54.2591 73.7622 54.6103L74.3094 53.7734ZM73.4353 52.759L74.3384 52.3296C74.2057 52.0505 74.1223 51.6884 74.1223 51.2158H73.1223H72.1223C72.1223 51.923 72.2476 52.5897 72.5321 53.1883L73.4353 52.759ZM73.1223 51.2158H74.1223C74.1223 50.7425 74.2059 50.3868 74.3356 50.1185L73.4353 49.6833L72.5349 49.2482C72.2474 49.8432 72.1223 50.5091 72.1223 51.2158H73.1223ZM73.4353 49.6833L74.3384 50.1127C74.4743 49.827 74.6454 49.64 74.8452 49.5132L74.3094 48.6689L73.7736 47.8246C73.2252 48.1726 72.8136 48.662 72.5321 49.254L73.4353 49.6833ZM74.3094 48.6689L74.8567 49.5059C75.048 49.3808 75.2913 49.302 75.626 49.302V48.302V47.302C74.9534 47.302 74.319 47.4678 73.7622 47.8319L74.3094 48.6689ZM75.626 48.302V49.302C75.9571 49.302 76.1868 49.3789 76.3594 49.4927L76.9102 48.6581L77.461 47.8235C76.9141 47.4626 76.2877 47.302 75.626 47.302V48.302ZM76.9102 48.6581L76.3711 49.5004C76.5629 49.6231 76.7182 49.7951 76.8374 50.0467L77.7412 49.6186L78.6449 49.1905C78.3756 48.6219 77.977 48.1536 77.4493 47.8159L76.9102 48.6581ZM77.7412 49.6186L76.8374 50.0467C76.959 50.3034 77.0325 50.6211 77.0325 51.0215H78.0325H79.0325C79.0325 50.3715 78.9118 49.7539 78.6449 49.1905L77.7412 49.6186ZM78.0325 51.0215H77.0325V51.4316H78.0325H79.0325V51.0215H78.0325ZM78.0325 51.4316V50.4316H74.0288V51.4316V52.4316H78.0325V51.4316ZM74.0288 51.4316H73.0288V51.6906H74.0288H75.0288V51.4316H74.0288ZM74.0288 51.6906H73.0288C73.0288 52.3878 73.2439 53.0358 73.7131 53.5636L74.4605 52.8993L75.2079 52.2349C75.1016 52.1152 75.0288 51.9574 75.0288 51.6906H74.0288ZM74.4605 52.8993L73.7289 53.581C74.2499 54.1402 74.9437 54.3741 75.6799 54.3741V53.3741V52.3741C75.3801 52.3741 75.261 52.2915 75.1921 52.2175L74.4605 52.8993ZM75.6799 53.3741V54.3741C76.1945 54.3741 76.6932 54.2512 77.1356 53.9686L76.5972 53.1259L76.0589 52.2832C75.9832 52.3315 75.8704 52.3741 75.6799 52.3741V53.3741ZM76.5972 53.1259L77.1252 53.9752C77.5711 53.6979 77.9008 53.3047 78.1191 52.8354L77.2124 52.4136L76.3056 51.9919C76.2362 52.1412 76.1557 52.2229 76.0693 52.2766L76.5972 53.1259ZM77.2124 52.4136L76.6284 53.2254L77.2436 53.6679L77.8275 52.8561L78.4114 52.0443L77.7963 51.6018L77.2124 52.4136ZM77.8275 52.8561L76.9262 52.4228C76.8354 52.6117 76.6911 52.7788 76.4572 52.9245L76.9857 53.7734L77.5143 54.6223C78.043 54.2931 78.4599 53.8486 78.7287 53.2894L77.8275 52.8561ZM76.9857 53.7734L76.4572 52.9245C76.2597 53.0474 75.9965 53.1295 75.626 53.1295V54.1295V55.1295C76.3059 55.1295 76.9492 54.9742 77.5143 54.6223L76.9857 53.7734ZM75.626 49.025V48.025C75.1549 48.025 74.7 48.1366 74.288 48.3789L74.795 49.2409L75.3021 50.1028C75.3793 50.0574 75.4784 50.025 75.626 50.025V49.025ZM74.795 49.2409L74.2767 48.3857C73.8757 48.6287 73.5659 48.9684 73.3495 49.3784L74.2339 49.8452L75.1182 50.312C75.1752 50.2041 75.2395 50.1408 75.3133 50.0961L74.795 49.2409ZM74.2339 49.8452L73.355 49.3681C73.129 49.7845 73.0288 50.2401 73.0288 50.7085H74.0288H75.0288C75.0288 50.5295 75.0654 50.4095 75.1127 50.3223L74.2339 49.8452ZM74.0288 50.7085H73.0288V50.7841H74.0288H75.0288V50.7085H74.0288ZM74.0288 50.7841V51.7841H77.1044V50.7841V49.7841H74.0288V50.7841ZM77.1044 50.7841H78.1044V50.6654H77.1044H76.1044V50.7841H77.1044ZM77.1044 50.6654H78.1044C78.1044 50.2114 78.0202 49.7645 77.8154 49.3548L76.921 49.802L76.0266 50.2493C76.0663 50.3288 76.1044 50.4575 76.1044 50.6654H77.1044ZM76.921 49.802L77.8154 49.3548C77.6135 48.951 77.3154 48.6164 76.9256 48.3775L76.403 49.2301L75.8804 50.0827C75.9366 50.1171 75.9839 50.1639 76.0266 50.2493L76.921 49.802ZM76.403 49.2301L76.9256 48.3775C76.5259 48.1325 76.0813 48.025 75.626 48.025V49.025V50.025C75.7607 50.025 75.834 50.0543 75.8804 50.0827L76.403 49.2301Z" fill="#D82E11" mask="url(#path-1-inside-1_1274_382)"/>
</svg>
