<svg width="90" height="47" viewBox="0 0 90 47" fill="none" xmlns="http://www.w3.org/2000/svg">
<path d="M34.0036 36V28.4674H36.5289C37.1548 28.4674 37.698 28.6077 38.1584 28.8883C38.6261 29.1617 38.9858 29.579 39.2376 30.1401C39.4894 30.6941 39.6153 31.392 39.6153 32.2337C39.6153 33.0755 39.4894 33.7769 39.2376 34.3381C38.9858 34.8921 38.6261 35.3093 38.1584 35.5899C37.698 35.8633 37.1548 36 36.5289 36H34.0036ZM34.9101 35.2014H36.5289C36.9462 35.2014 37.3131 35.1079 37.6296 34.9208C37.9462 34.7338 38.1944 34.4676 38.3743 34.1222C38.5541 33.7697 38.644 33.3452 38.644 32.8488V31.6186C38.644 31.1222 38.5541 30.6977 38.3743 30.3452C38.1944 29.9926 37.9462 29.7264 37.6296 29.5466C37.3131 29.3595 36.9462 29.266 36.5289 29.266H34.9101V35.2014ZM41.9344 32.7625V36H41.0279V28.4674H44.028C44.4668 28.4674 44.841 28.5502 45.1503 28.7156C45.4669 28.8811 45.7079 29.1221 45.8734 29.4387C46.046 29.7552 46.1324 30.1437 46.1324 30.6042C46.1324 31.1509 46.0029 31.6042 45.7439 31.9639C45.4849 32.3236 45.1108 32.5611 44.6215 32.6762L46.3482 36H45.323L43.6934 32.7625H41.9344ZM41.9344 31.9855H44.028C44.2654 31.9855 44.4668 31.9459 44.6323 31.8668C44.805 31.7805 44.9345 31.6582 45.0208 31.4999C45.1143 31.3344 45.1611 31.1366 45.1611 30.9063V30.3452C45.1611 30.1149 45.1143 29.9207 45.0208 29.7624C44.9345 29.5969 44.805 29.4746 44.6323 29.3955C44.4668 29.3092 44.2654 29.266 44.028 29.266H41.9344V31.9855ZM53.3806 36H52.4309L51.6755 33.7769H48.6322L47.8768 36H46.9595L49.5927 28.4674H50.7474L53.3806 36ZM51.4489 32.9783L50.4992 30.248L50.1754 29.3092H50.1215L49.7977 30.248L48.8481 32.9783H51.4489ZM59.1323 36V34.8992H59.0999C59.0064 35.2518 58.7762 35.5467 58.4092 35.7842C58.0495 36.0144 57.5819 36.1295 57.0063 36.1295C56.3948 36.1295 55.8516 35.982 55.3768 35.687C54.9091 35.3849 54.5422 34.946 54.276 34.3705C54.0098 33.7877 53.8767 33.0755 53.8767 32.2337C53.8767 31.3992 54.0098 30.6941 54.276 30.1185C54.5422 29.5358 54.9163 29.0933 55.3984 28.7912C55.8804 28.489 56.4416 28.3379 57.0819 28.3379C57.7581 28.3379 58.3229 28.4926 58.7762 28.802C59.2294 29.1041 59.5783 29.4998 59.8229 29.989L59.0783 30.4423C58.9057 30.0394 58.6467 29.7228 58.3013 29.4926C57.9632 29.2624 57.5567 29.1473 57.0819 29.1473C56.643 29.1473 56.2545 29.2516 55.9164 29.4602C55.5782 29.6617 55.3156 29.9495 55.1286 30.3236C54.9415 30.6905 54.848 31.1222 54.848 31.6186V32.838C54.848 33.3345 54.9415 33.7697 55.1286 34.1438C55.3156 34.5107 55.5818 34.7985 55.9271 35.0072C56.2797 35.2158 56.6934 35.3201 57.1682 35.3201C57.5207 35.3201 57.8409 35.259 58.1287 35.1367C58.4164 35.0144 58.6467 34.8309 58.8193 34.5863C58.9992 34.3417 59.0891 34.0359 59.0891 33.669V32.9244H57.4272V32.1258H59.974V36H59.1323ZM67.9884 36H63.8767V28.4674H64.7832V35.2014H67.9884V36ZM73.6645 36H69.0673V28.4674H73.6645V29.266H69.9738V31.7912H73.4487V32.5898H69.9738V35.2014H73.6645V36ZM76.0496 36H75.1431V28.4674H79.6324V29.266H76.0496V31.7912H79.3194V32.5898H76.0496V36ZM85.8872 29.266H83.4914V36H82.5849V29.266H80.1892V28.4674H85.8872V29.266ZM86.027 37.6295H85.25L88.0666 28.0142H88.8436L86.027 37.6295ZM34.9101 42.7625V46H34.0036V38.4674H37.0037C37.4426 38.4674 37.8167 38.5502 38.126 38.7156C38.4426 38.8811 38.6836 39.1221 38.8491 39.4387C39.0218 39.7552 39.1081 40.1437 39.1081 40.6042C39.1081 41.1509 38.9786 41.6042 38.7196 41.9639C38.4606 42.3236 38.0865 42.5611 37.5973 42.6762L39.3239 46H38.2987L36.6692 42.7625H34.9101ZM34.9101 41.9855H37.0037C37.2411 41.9855 37.4426 41.9459 37.608 41.8668C37.7807 41.7805 37.9102 41.6582 37.9965 41.4999C38.0901 41.3344 38.1368 41.1366 38.1368 40.9063V40.3452C38.1368 40.1149 38.0901 39.9207 37.9965 39.7624C37.9102 39.5969 37.7807 39.4746 37.608 39.3955C37.4426 39.3092 37.2411 39.266 37.0037 39.266H34.9101V41.9855ZM43.3562 46H40.3345V45.2446H41.3921V39.2228H40.3345V38.4674H43.3562V39.2228H42.2986V45.2446H43.3562V46ZM49.6735 46V44.8992H49.6412C49.5476 45.2518 49.3174 45.5467 48.9505 45.7842C48.5908 46.0144 48.1231 46.1295 47.5476 46.1295C46.9361 46.1295 46.3929 45.982 45.918 45.687C45.4504 45.3849 45.0835 44.946 44.8173 44.3705C44.5511 43.7877 44.418 43.0755 44.418 42.2337C44.418 41.3992 44.5511 40.6941 44.8173 40.1185C45.0835 39.5358 45.4576 39.0933 45.9396 38.7912C46.4217 38.489 46.9828 38.3379 47.6231 38.3379C48.2994 38.3379 48.8642 38.4926 49.3174 38.802C49.7707 39.1041 50.1196 39.4998 50.3642 39.989L49.6196 40.4423C49.4469 40.0394 49.1879 39.7228 48.8426 39.4926C48.5045 39.2624 48.098 39.1473 47.6231 39.1473C47.1843 39.1473 46.7958 39.2516 46.4576 39.4602C46.1195 39.6617 45.8569 39.9495 45.6698 40.3236C45.4828 40.6905 45.3893 41.1222 45.3893 41.6186V42.838C45.3893 43.3345 45.4828 43.7697 45.6698 44.1438C45.8569 44.5107 46.1231 44.7985 46.4684 45.0072C46.8209 45.2158 47.2346 45.3201 47.7095 45.3201C48.062 45.3201 48.3821 45.259 48.6699 45.1367C48.9577 45.0144 49.1879 44.8309 49.3606 44.5863C49.5404 44.3417 49.6304 44.0359 49.6304 43.669V42.9244H47.9685V42.1258H50.5153V46H49.6735ZM56.7994 46V42.5898H52.99V46H52.0835V38.4674H52.99V41.7912H56.7994V38.4674H57.7059V46H56.7994ZM64.4295 39.266H62.0337V46H61.1272V39.266H58.7315V38.4674H64.4295V39.266Z" fill="#D82E11"/>
<path d="M21 0C31.9234 0 40.8971 8.34021 41.9043 19H40.3984C39.397 9.17001 31.0943 1.5 21 1.5C10.2304 1.5 1.5 10.2304 1.5 21C1.5 31.7696 10.2304 40.5 21 40.5C21.6752 40.5 22.3424 40.4654 23 40.3984V41.9043C22.3417 41.9665 21.6746 42 21 42C9.40202 42 0 32.598 0 21C0 9.40202 9.40202 0 21 0Z" fill="#D82E11"/>
<path d="M9.64645 20.6464C9.45118 20.8417 9.45118 21.1583 9.64645 21.3536L12.8284 24.5355C13.0237 24.7308 13.3403 24.7308 13.5355 24.5355C13.7308 24.3403 13.7308 24.0237 13.5355 23.8284L10.7071 21L13.5355 18.1716C13.7308 17.9763 13.7308 17.6597 13.5355 17.4645C13.3403 17.2692 13.0237 17.2692 12.8284 17.4645L9.64645 20.6464ZM31.3536 21.3536C31.5488 21.1583 31.5488 20.8417 31.3536 20.6464L28.1716 17.4645C27.9763 17.2692 27.6597 17.2692 27.4645 17.4645C27.2692 17.6597 27.2692 17.9763 27.4645 18.1716L30.2929 21L27.4645 23.8284C27.2692 24.0237 27.2692 24.3403 27.4645 24.5355C27.6597 24.7308 27.9763 24.7308 28.1716 24.5355L31.3536 21.3536ZM10 21V21.5H31V21V20.5H10V21Z" fill="#D82E11"/>
</svg>
