<svg width="89" height="47" viewBox="0 0 89 47" fill="none" xmlns="http://www.w3.org/2000/svg">
<mask id="path-1-inside-1_1736_390" fill="white">
<path d="M34.0036 36V28.4674H36.5289C37.1548 28.4674 37.698 28.6077 38.1584 28.8883C38.6261 29.1617 38.9858 29.579 39.2376 30.1401C39.4894 30.6941 39.6153 31.392 39.6153 32.2337C39.6153 33.0755 39.4894 33.7769 39.2376 34.3381C38.9858 34.8921 38.6261 35.3093 38.1584 35.5899C37.698 35.8633 37.1548 36 36.5289 36H34.0036ZM34.9101 35.2014H36.5289C36.9462 35.2014 37.3131 35.1079 37.6296 34.9208C37.9462 34.7338 38.1944 34.4676 38.3743 34.1222C38.5541 33.7697 38.644 33.3452 38.644 32.8488V31.6186C38.644 31.1222 38.5541 30.6977 38.3743 30.3452C38.1944 29.9926 37.9462 29.7264 37.6296 29.5466C37.3131 29.3595 36.9462 29.266 36.5289 29.266H34.9101V35.2014Z"/>
<path d="M41.9344 32.7625V36H41.0279V28.4674H44.028C44.4668 28.4674 44.841 28.5502 45.1503 28.7156C45.4669 28.8811 45.7079 29.1221 45.8734 29.4387C46.046 29.7552 46.1324 30.1437 46.1324 30.6042C46.1324 31.1509 46.0029 31.6042 45.7439 31.9639C45.4849 32.3236 45.1108 32.5611 44.6215 32.6762L46.3482 36H45.323L43.6934 32.7625H41.9344ZM41.9344 31.9855H44.028C44.2654 31.9855 44.4668 31.9459 44.6323 31.8668C44.805 31.7805 44.9345 31.6582 45.0208 31.4999C45.1143 31.3344 45.1611 31.1366 45.1611 30.9063V30.3452C45.1611 30.1149 45.1143 29.9207 45.0208 29.7624C44.9345 29.5969 44.805 29.4746 44.6323 29.3955C44.4668 29.3092 44.2654 29.266 44.028 29.266H41.9344V31.9855Z"/>
<path d="M53.3806 36H52.4309L51.6755 33.7769H48.6322L47.8768 36H46.9595L49.5927 28.4674H50.7474L53.3806 36ZM51.4489 32.9783L50.4992 30.248L50.1754 29.3092H50.1215L49.7977 30.248L48.8481 32.9783H51.4489Z"/>
<path d="M59.1323 36V34.8993H59.0999C59.0064 35.2518 58.7761 35.5468 58.4092 35.7842C58.0495 36.0144 57.5819 36.1295 57.0063 36.1295C56.3948 36.1295 55.8516 35.982 55.3768 35.687C54.9091 35.3849 54.5422 34.946 54.276 34.3705C54.0098 33.7877 53.8767 33.0755 53.8767 32.2337C53.8767 31.3992 54.0098 30.6941 54.276 30.1185C54.5422 29.5358 54.9163 29.0933 55.3984 28.7912C55.8804 28.489 56.4416 28.3379 57.0819 28.3379C57.7581 28.3379 58.3229 28.4926 58.7761 28.802C59.2294 29.1041 59.5783 29.4998 59.8229 29.989L59.0783 30.4423C58.9056 30.0394 58.6466 29.7228 58.3013 29.4926C57.9632 29.2624 57.5567 29.1473 57.0819 29.1473C56.643 29.1473 56.2545 29.2516 55.9164 29.4602C55.5782 29.6617 55.3156 29.9495 55.1286 30.3236C54.9415 30.6905 54.848 31.1222 54.848 31.6186V32.838C54.848 33.3345 54.9415 33.7697 55.1286 34.1438C55.3156 34.5107 55.5818 34.7985 55.9272 35.0072C56.2797 35.2158 56.6934 35.3201 57.1682 35.3201C57.5207 35.3201 57.8409 35.259 58.1287 35.1367C58.4164 35.0144 58.6467 34.8309 58.8193 34.5863C58.9992 34.3417 59.0891 34.0359 59.0891 33.669V32.9244H57.4272V32.1258H59.974V36H59.1323Z"/>
<path d="M67.9884 36H63.8767V28.4674H64.7832V35.2014H67.9884V36Z"/>
<path d="M73.6645 36H69.0673V28.4674H73.6645V29.266H69.9738V31.7913H73.4487V32.5898H69.9738V35.2014H73.6645V36Z"/>
<path d="M76.0496 36H75.1431V28.4674H79.6324V29.266H76.0496V31.7913H79.3194V32.5898H76.0496V36Z"/>
<path d="M85.8872 29.266H83.4914V36H82.5849V29.266H80.1892V28.4674H85.8872V29.266Z"/>
<path d="M86.027 37.6295H85.25L88.0666 28.0142H88.8436L86.027 37.6295Z"/>
<path d="M34.9101 42.7625V46H34.0036V38.4674H37.0037C37.4426 38.4674 37.8167 38.5502 38.126 38.7156C38.4426 38.8811 38.6836 39.1221 38.8491 39.4387C39.0217 39.7552 39.1081 40.1437 39.1081 40.6042C39.1081 41.1509 38.9786 41.6042 38.7196 41.9639C38.4606 42.3236 38.0865 42.5611 37.5973 42.6762L39.3239 46H38.2987L36.6692 42.7625H34.9101ZM34.9101 41.9855H37.0037C37.2411 41.9855 37.4426 41.9459 37.608 41.8668C37.7807 41.7805 37.9102 41.6582 37.9965 41.4999C38.0901 41.3344 38.1368 41.1366 38.1368 40.9063V40.3452C38.1368 40.1149 38.0901 39.9207 37.9965 39.7624C37.9102 39.5969 37.7807 39.4746 37.608 39.3955C37.4426 39.3092 37.2411 39.266 37.0037 39.266H34.9101V41.9855Z"/>
<path d="M43.3562 46H40.3345V45.2446H41.3921V39.2228H40.3345V38.4674H43.3562V39.2228H42.2986V45.2446H43.3562V46Z"/>
<path d="M49.6735 46V44.8993H49.6412C49.5476 45.2518 49.3174 45.5468 48.9505 45.7842C48.5908 46.0144 48.1231 46.1295 47.5476 46.1295C46.9361 46.1295 46.3929 45.982 45.918 45.687C45.4504 45.3849 45.0835 44.946 44.8173 44.3705C44.5511 43.7877 44.418 43.0755 44.418 42.2337C44.418 41.3992 44.5511 40.6941 44.8173 40.1185C45.0835 39.5358 45.4576 39.0933 45.9396 38.7912C46.4217 38.489 46.9828 38.3379 47.6231 38.3379C48.2994 38.3379 48.8642 38.4926 49.3174 38.802C49.7707 39.1041 50.1196 39.4998 50.3642 39.989L49.6196 40.4423C49.4469 40.0394 49.1879 39.7228 48.8426 39.4926C48.5045 39.2624 48.098 39.1473 47.6231 39.1473C47.1843 39.1473 46.7958 39.2516 46.4576 39.4603C46.1195 39.6617 45.8569 39.9495 45.6698 40.3236C45.4828 40.6905 45.3893 41.1222 45.3893 41.6186V42.838C45.3893 43.3345 45.4828 43.7697 45.6698 44.1438C45.8569 44.5107 46.1231 44.7985 46.4684 45.0072C46.8209 45.2158 47.2346 45.3201 47.7095 45.3201C48.062 45.3201 48.3821 45.259 48.6699 45.1367C48.9577 45.0144 49.1879 44.8309 49.3606 44.5863C49.5404 44.3417 49.6304 44.0359 49.6304 43.669V42.9244H47.9685V42.1258H50.5153V46H49.6735Z"/>
<path d="M56.7994 46V42.5898H52.99V46H52.0835V38.4674H52.99V41.7912H56.7994V38.4674H57.7059V46H56.7994Z"/>
<path d="M64.4295 39.266H62.0337V46H61.1272V39.266H58.7315V38.4674H64.4295V39.266Z"/>
<path d="M21 0C31.9234 0 40.8971 8.34021 41.9043 19H40.3984C39.397 9.17001 31.0943 1.5 21 1.5C10.2304 1.5 1.5 10.2304 1.5 21C1.5 31.7696 10.2304 40.5 21 40.5C21.6752 40.5 22.3424 40.4654 23 40.3984V41.9043C22.3417 41.9665 21.6746 42 21 42C9.40202 42 0 32.598 0 21C0 9.40202 9.40202 0 21 0Z"/>
</mask>
<path d="M9.64645 20.6464C9.45118 20.8417 9.45118 21.1583 9.64645 21.3536L12.8284 24.5355C13.0237 24.7308 13.3403 24.7308 13.5355 24.5355C13.7308 24.3403 13.7308 24.0237 13.5355 23.8284L10.7071 21L13.5355 18.1716C13.7308 17.9763 13.7308 17.6597 13.5355 17.4645C13.3403 17.2692 13.0237 17.2692 12.8284 17.4645L9.64645 20.6464ZM31.3536 21.3536C31.5488 21.1583 31.5488 20.8417 31.3536 20.6464L28.1716 17.4645C27.9763 17.2692 27.6597 17.2692 27.4645 17.4645C27.2692 17.6597 27.2692 17.9763 27.4645 18.1716L30.2929 21L27.4645 23.8284C27.2692 24.0237 27.2692 24.3403 27.4645 24.5355C27.6597 24.7308 27.9763 24.7308 28.1716 24.5355L31.3536 21.3536ZM10 21V21.5H31V21V20.5H10V21ZM34.0036 36H33.0036V37H34.0036V36ZM34.0036 28.4674V27.4674H33.0036V28.4674H34.0036ZM38.1584 28.8883L37.638 29.7422L37.6458 29.747L37.6537 29.7516L38.1584 28.8883ZM39.2376 30.1401L38.3252 30.5495L38.3272 30.5539L39.2376 30.1401ZM39.2376 34.3381L40.148 34.7519L40.1499 34.7475L39.2376 34.3381ZM38.1584 35.5899L38.669 36.4498L38.6729 36.4474L38.1584 35.5899ZM34.9101 35.2014H33.9101V36.2014H34.9101V35.2014ZM38.3743 34.1222L39.2612 34.5842L39.265 34.5767L38.3743 34.1222ZM38.3743 30.3452L39.265 29.8907V29.8907L38.3743 30.3452ZM37.6296 29.5466L37.1209 30.4075L37.1282 30.4118L37.1356 30.416L37.6296 29.5466ZM34.9101 29.266V28.266H33.9101V29.266H34.9101ZM41.9344 32.7625V31.7625H40.9344V32.7625H41.9344ZM41.9344 36V37H42.9344V36H41.9344ZM41.0279 36H40.0279V37H41.0279V36ZM41.0279 28.4674V27.4674H40.0279V28.4674H41.0279ZM45.1503 28.7156L44.6786 29.5974L44.6871 29.6018L45.1503 28.7156ZM45.8734 29.4387L44.9871 29.9019L44.9912 29.9098L44.9955 29.9175L45.8734 29.4387ZM44.6215 32.6762L44.3925 31.7027L43.1418 31.997L43.7341 33.1372L44.6215 32.6762ZM46.3482 36V37H47.9946L47.2356 35.539L46.3482 36ZM45.323 36L44.4298 36.4496L44.7068 37H45.323V36ZM43.6934 32.7625L44.5867 32.3129L44.3096 31.7625H43.6934V32.7625ZM41.9344 31.9855H40.9344V32.9855H41.9344V31.9855ZM44.6323 31.8668L45.0638 32.7689L45.0717 32.7651L45.0795 32.7612L44.6323 31.8668ZM45.0208 31.4999L44.1503 31.0078L44.1465 31.0144L44.1429 31.021L45.0208 31.4999ZM45.0208 29.7624L44.1342 30.225L44.1465 30.2484L44.1599 30.2711L45.0208 29.7624ZM44.6323 29.3955L44.1698 30.2821L44.1924 30.2939L44.2157 30.3046L44.6323 29.3955ZM41.9344 29.266V28.266H40.9344V29.266H41.9344ZM53.3806 36V37H54.7895L54.3246 35.67L53.3806 36ZM52.4309 36L51.4841 36.3217L51.7146 37H52.4309V36ZM51.6755 33.7769L52.6223 33.4552L52.3918 32.7769H51.6755V33.7769ZM48.6322 33.7769V32.7769H47.9159L47.6854 33.4552L48.6322 33.7769ZM47.8768 36V37H48.5932L48.8236 36.3217L47.8768 36ZM46.9595 36L46.0155 35.67L45.5506 37H46.9595V36ZM49.5927 28.4674V27.4674H48.8829L48.6487 28.1374L49.5927 28.4674ZM50.7474 28.4674L51.6914 28.1374L51.4572 27.4674H50.7474V28.4674ZM51.4489 32.9783V33.9783H52.8554L52.3934 32.6498L51.4489 32.9783ZM50.4992 30.248L49.5538 30.574L49.5547 30.5766L50.4992 30.248ZM50.1754 29.3092L51.1208 28.9832L50.8884 28.3092H50.1754V29.3092ZM50.1215 29.3092V28.3092H49.4085L49.1761 28.9832L50.1215 29.3092ZM49.7977 30.248L50.7422 30.5766L50.7431 30.574L49.7977 30.248ZM48.8481 32.9783L47.9036 32.6498L47.4415 33.9783H48.8481V32.9783ZM59.1323 36H58.1323V37H59.1323V36ZM59.1323 34.8993H60.1323V33.8993H59.1323V34.8993ZM59.0999 34.8993V33.8993H58.3306L58.1333 34.6428L59.0999 34.8993ZM58.4092 35.7842L58.9483 36.6264L58.9525 36.6237L58.4092 35.7842ZM55.3768 35.687L54.8341 36.527L54.8415 36.5318L54.8491 36.5365L55.3768 35.687ZM54.276 34.3705L53.3664 34.786L53.3684 34.7902L54.276 34.3705ZM54.276 30.1185L55.1837 30.5383L55.1856 30.534L54.276 30.1185ZM55.3984 28.7912L55.9295 29.6385V29.6385L55.3984 28.7912ZM58.7761 28.802L58.2124 29.628L58.2215 29.634L58.7761 28.802ZM59.8229 29.989L60.3429 30.8432L61.1289 30.3648L60.7174 29.5418L59.8229 29.989ZM59.0783 30.4423L58.1592 30.8362L58.6134 31.896L59.5983 31.2965L59.0783 30.4423ZM58.3013 29.4926L57.7385 30.3193L57.7466 30.3247L58.3013 29.4926ZM55.9164 29.4602L56.4282 30.3194L56.4348 30.3154L56.4415 30.3113L55.9164 29.4602ZM55.1286 30.3236L56.0195 30.7778L56.023 30.7708L55.1286 30.3236ZM55.1286 34.1438L54.2341 34.5911L54.2377 34.598L55.1286 34.1438ZM55.9272 35.0072L55.41 35.8631L55.4178 35.8677L55.9272 35.0072ZM58.1287 35.1367L57.7375 34.2163V34.2163L58.1287 35.1367ZM58.8193 34.5863L58.0137 33.9939L58.0079 34.0017L58.0023 34.0096L58.8193 34.5863ZM59.0891 32.9244H60.0891V31.9244H59.0891V32.9244ZM57.4272 32.9244H56.4272V33.9244H57.4272V32.9244ZM57.4272 32.1258V31.1258H56.4272V32.1258H57.4272ZM59.974 32.1258H60.974V31.1258H59.974V32.1258ZM59.974 36V37H60.974V36H59.974ZM67.9884 36V37H68.9884V36H67.9884ZM63.8767 36H62.8767V37H63.8767V36ZM63.8767 28.4674V27.4674H62.8767V28.4674H63.8767ZM64.7832 28.4674H65.7832V27.4674H64.7832V28.4674ZM64.7832 35.2014H63.7832V36.2014H64.7832V35.2014ZM67.9884 35.2014H68.9884V34.2014H67.9884V35.2014ZM73.6645 36V37H74.6645V36H73.6645ZM69.0673 36H68.0673V37H69.0673V36ZM69.0673 28.4674V27.4674H68.0673V28.4674H69.0673ZM73.6645 28.4674H74.6645V27.4674H73.6645V28.4674ZM73.6645 29.266V30.266H74.6645V29.266H73.6645ZM69.9738 29.266V28.266H68.9738V29.266H69.9738ZM69.9738 31.7913H68.9738V32.7913H69.9738V31.7913ZM73.4487 31.7913H74.4487V30.7913H73.4487V31.7913ZM73.4487 32.5898V33.5898H74.4487V32.5898H73.4487ZM69.9738 32.5898V31.5898H68.9738V32.5898H69.9738ZM69.9738 35.2014H68.9738V36.2014H69.9738V35.2014ZM73.6645 35.2014H74.6645V34.2014H73.6645V35.2014ZM76.0496 36V37H77.0496V36H76.0496ZM75.1431 36H74.1431V37H75.1431V36ZM75.1431 28.4674V27.4674H74.1431V28.4674H75.1431ZM79.6324 28.4674H80.6324V27.4674H79.6324V28.4674ZM79.6324 29.266V30.266H80.6324V29.266H79.6324ZM76.0496 29.266V28.266H75.0496V29.266H76.0496ZM76.0496 31.7913H75.0496V32.7913H76.0496V31.7913ZM79.3194 31.7913H80.3194V30.7913H79.3194V31.7913ZM79.3194 32.5898V33.5898H80.3194V32.5898H79.3194ZM76.0496 32.5898V31.5898H75.0496V32.5898H76.0496ZM85.8872 29.266V30.266H86.8872V29.266H85.8872ZM83.4914 29.266V28.266H82.4914V29.266H83.4914ZM83.4914 36V37H84.4914V36H83.4914ZM82.5849 36H81.5849V37H82.5849V36ZM82.5849 29.266H83.5849V28.266H82.5849V29.266ZM80.1892 29.266H79.1892V30.266H80.1892V29.266ZM80.1892 28.4674V27.4674H79.1892V28.4674H80.1892ZM85.8872 28.4674H86.8872V27.4674H85.8872V28.4674ZM86.027 37.6295V38.6295H86.7761L86.9866 37.9107L86.027 37.6295ZM85.25 37.6295L84.2903 37.3484L83.915 38.6295H85.25V37.6295ZM88.0666 28.0142V27.0142H87.3175L87.1069 27.733L88.0666 28.0142ZM88.8436 28.0142L89.8033 28.2953L90.1785 27.0142H88.8436V28.0142ZM34.9101 42.7625V41.7625H33.9101V42.7625H34.9101ZM34.9101 46V47H35.9101V46H34.9101ZM34.0036 46H33.0036V47H34.0036V46ZM34.0036 38.4674V37.4674H33.0036V38.4674H34.0036ZM38.126 38.7156L37.6544 39.5975L37.6628 39.6019L38.126 38.7156ZM38.8491 39.4387L37.9629 39.9019L37.967 39.9098L37.9712 39.9175L38.8491 39.4387ZM37.5973 42.6762L37.3682 41.7028L36.1176 41.997L36.7098 43.1372L37.5973 42.6762ZM39.3239 46V47H40.9703L40.2113 45.539L39.3239 46ZM38.2987 46L37.4055 46.4496L37.6825 47H38.2987V46ZM36.6692 42.7625L37.5624 42.3129L37.2854 41.7625H36.6692V42.7625ZM34.9101 41.9855H33.9101V42.9855H34.9101V41.9855ZM37.608 41.8668L38.0395 42.7689L38.0474 42.7651L38.0553 42.7612L37.608 41.8668ZM37.9965 41.4999L37.126 41.0078L37.1223 41.0144L37.1186 41.021L37.9965 41.4999ZM37.9965 39.7624L37.11 40.225L37.1222 40.2484L37.1356 40.2711L37.9965 39.7624ZM37.608 39.3955L37.1455 40.2821L37.1681 40.2939L37.1914 40.3046L37.608 39.3955ZM34.9101 39.266V38.266H33.9101V39.266H34.9101ZM43.3562 46V47H44.3562V46H43.3562ZM40.3345 46H39.3345V47H40.3345V46ZM40.3345 45.2446V44.2446H39.3345V45.2446H40.3345ZM41.3921 45.2446V46.2446H42.3921V45.2446H41.3921ZM41.3921 39.2228H42.3921V38.2228H41.3921V39.2228ZM40.3345 39.2228H39.3345V40.2228H40.3345V39.2228ZM40.3345 38.4674V37.4674H39.3345V38.4674H40.3345ZM43.3562 38.4674H44.3562V37.4674H43.3562V38.4674ZM43.3562 39.2228V40.2228H44.3562V39.2228H43.3562ZM42.2986 39.2228V38.2228H41.2986V39.2228H42.2986ZM42.2986 45.2446H41.2986V46.2446H42.2986V45.2446ZM43.3562 45.2446H44.3562V44.2446H43.3562V45.2446ZM49.6735 46H48.6735V47H49.6735V46ZM49.6735 44.8993H50.6735V43.8993H49.6735V44.8993ZM49.6412 44.8993V43.8993H48.8719L48.6746 44.6428L49.6412 44.8993ZM48.9505 45.7842L49.4896 46.6264L49.4938 46.6237L48.9505 45.7842ZM45.918 45.687L45.3753 46.527L45.3828 46.5318L45.3904 46.5365L45.918 45.687ZM44.8173 44.3705L43.9077 44.786L43.9097 44.7902L44.8173 44.3705ZM44.8173 40.1185L45.7249 40.5383L45.7269 40.534L44.8173 40.1185ZM45.9396 38.7912L46.4708 39.6385V39.6385L45.9396 38.7912ZM49.3174 38.802L48.7536 39.628L48.7627 39.634L49.3174 38.802ZM50.3642 39.989L50.8842 40.8432L51.6701 40.3648L51.2586 39.5418L50.3642 39.989ZM49.6196 40.4423L48.7004 40.8362L49.1546 41.896L50.1395 41.2965L49.6196 40.4423ZM48.8426 39.4926L48.2798 40.3193L48.2879 40.3247L48.8426 39.4926ZM46.4576 39.4603L46.9694 40.3194L46.9761 40.3154L46.9827 40.3113L46.4576 39.4603ZM45.6698 40.3236L46.5608 40.7778L46.5643 40.7708L45.6698 40.3236ZM45.6698 44.1438L44.7754 44.5911L44.7789 44.598L45.6698 44.1438ZM46.4684 45.0072L45.9513 45.8631L45.9591 45.8677L46.4684 45.0072ZM48.6699 45.1367L48.2788 44.2163V44.2163L48.6699 45.1367ZM49.3606 44.5863L48.5549 43.9939L48.5492 44.0017L48.5436 44.0096L49.3606 44.5863ZM49.6304 42.9244H50.6304V41.9244H49.6304V42.9244ZM47.9685 42.9244H46.9685V43.9244H47.9685V42.9244ZM47.9685 42.1258V41.1258H46.9685V42.1258H47.9685ZM50.5153 42.1258H51.5153V41.1258H50.5153V42.1258ZM50.5153 46V47H51.5153V46H50.5153ZM56.7994 46H55.7994V47H56.7994V46ZM56.7994 42.5898H57.7994V41.5898H56.7994V42.5898ZM52.99 42.5898V41.5898H51.99V42.5898H52.99ZM52.99 46V47H53.99V46H52.99ZM52.0835 46H51.0835V47H52.0835V46ZM52.0835 38.4674V37.4674H51.0835V38.4674H52.0835ZM52.99 38.4674H53.99V37.4674H52.99V38.4674ZM52.99 41.7912H51.99V42.7912H52.99V41.7912ZM56.7994 41.7912V42.7912H57.7994V41.7912H56.7994ZM56.7994 38.4674V37.4674H55.7994V38.4674H56.7994ZM57.7059 38.4674H58.7059V37.4674H57.7059V38.4674ZM57.7059 46V47H58.7059V46H57.7059ZM64.4295 39.266V40.266H65.4295V39.266H64.4295ZM62.0337 39.266V38.266H61.0337V39.266H62.0337ZM62.0337 46V47H63.0337V46H62.0337ZM61.1272 46H60.1272V47H61.1272V46ZM61.1272 39.266H62.1272V38.266H61.1272V39.266ZM58.7315 39.266H57.7315V40.266H58.7315V39.266ZM58.7315 38.4674V37.4674H57.7315V38.4674H58.7315ZM64.4295 38.4674H65.4295V37.4674H64.4295V38.4674ZM41.9043 19V20H43.0032L42.8999 18.9059L41.9043 19ZM40.3984 19L39.4036 19.1014L39.4951 20H40.3984V19ZM23 40.3984H24V39.2914L22.8986 39.4036L23 40.3984ZM23 41.9043L23.0941 42.8999L24 42.8143V41.9043H23ZM34.0036 36H35.0036V28.4674H34.0036H33.0036V36H34.0036ZM34.0036 28.4674V29.4674H36.5289V28.4674V27.4674H34.0036V28.4674ZM36.5289 28.4674V29.4674C37.0012 29.4674 37.3581 29.5717 37.638 29.7422L38.1584 28.8883L38.6788 28.0343C38.0378 27.6437 37.3084 27.4674 36.5289 27.4674V28.4674ZM38.1584 28.8883L37.6537 29.7516C37.9177 29.9059 38.1467 30.1516 38.3252 30.5495L39.2376 30.1401L40.1499 29.7307C39.8249 29.0063 39.3344 28.4174 38.6631 28.025L38.1584 28.8883ZM39.2376 30.1401L38.3272 30.5539C38.5019 30.9382 38.6153 31.4834 38.6153 32.2337H39.6153H40.6153C40.6153 31.3005 40.4769 30.45 40.1479 29.7263L39.2376 30.1401ZM39.6153 32.2337H38.6153C38.6153 32.9833 38.5021 33.5345 38.3252 33.9287L39.2376 34.3381L40.1499 34.7475C40.4767 34.0194 40.6153 33.1677 40.6153 32.2337H39.6153ZM39.2376 34.3381L38.3272 33.9243C38.1492 34.3159 37.9178 34.5681 37.6439 34.7324L38.1584 35.5899L38.6729 36.4474C39.3343 36.0506 39.8223 35.4682 40.1479 34.7519L39.2376 34.3381ZM38.1584 35.5899L37.6479 34.7301C37.3663 34.8972 37.0058 35 36.5289 35V36V37C37.3038 37 38.0296 36.8294 38.669 36.4498L38.1584 35.5899ZM36.5289 36V35H34.0036V36V37H36.5289V36ZM34.9101 35.2014V36.2014H36.5289V35.2014V34.2014H34.9101V35.2014ZM36.5289 35.2014V36.2014C37.1005 36.2014 37.6478 36.0716 38.1384 35.7818L37.6296 34.9208L37.1209 34.0599C36.9783 34.1442 36.7918 34.2014 36.5289 34.2014V35.2014ZM37.6296 34.9208L38.1384 35.7818C38.6254 35.494 39.0003 35.085 39.2612 34.5842L38.3743 34.1222L37.4873 33.6603C37.3885 33.8501 37.267 33.9736 37.1209 34.0599L37.6296 34.9208ZM38.3743 34.1222L39.265 34.5767C39.5326 34.0522 39.644 33.464 39.644 32.8488H38.644H37.644C37.644 33.2265 37.5756 33.4872 37.4835 33.6678L38.3743 34.1222ZM38.644 32.8488H39.644V31.6186H38.644H37.644V32.8488H38.644ZM38.644 31.6186H39.644C39.644 31.0034 39.5326 30.4152 39.265 29.8907L38.3743 30.3452L37.4835 30.7996C37.5756 30.9802 37.644 31.2409 37.644 31.6186H38.644ZM38.3743 30.3452L39.265 29.8907C39.0044 29.3798 38.625 28.962 38.1236 28.6771L37.6296 29.5466L37.1356 30.416C37.2674 30.4909 37.3844 30.6054 37.4835 30.7996L38.3743 30.3452ZM37.6296 29.5466L38.1384 28.6857C37.6478 28.3958 37.1005 28.266 36.5289 28.266V29.266V30.266C36.7918 30.266 36.9783 30.3233 37.1209 30.4075L37.6296 29.5466ZM36.5289 29.266V28.266H34.9101V29.266V30.266H36.5289V29.266ZM34.9101 29.266H33.9101V35.2014H34.9101H35.9101V29.266H34.9101ZM41.9344 32.7625H40.9344V36H41.9344H42.9344V32.7625H41.9344ZM41.9344 36V35H41.0279V36V37H41.9344V36ZM41.0279 36H42.0279V28.4674H41.0279H40.0279V36H41.0279ZM41.0279 28.4674V29.4674H44.028V28.4674V27.4674H41.0279V28.4674ZM44.028 28.4674V29.4674C44.3428 29.4674 44.5464 29.5266 44.6787 29.5974L45.1503 28.7156L45.622 27.8338C45.1356 27.5737 44.5909 27.4674 44.028 27.4674V28.4674ZM45.1503 28.7156L44.6871 29.6018C44.8228 29.6728 44.9162 29.7662 44.9871 29.9019L45.8734 29.4387L46.7596 28.9754C46.4996 28.478 46.111 28.0894 45.6136 27.8294L45.1503 28.7156ZM45.8734 29.4387L44.9955 29.9175C45.0688 30.052 45.1324 30.2658 45.1324 30.6042H46.1324H47.1324C47.1324 30.0217 47.0232 29.4584 46.7513 28.9598L45.8734 29.4387ZM46.1324 30.6042H45.1324C45.1324 30.9909 45.0426 31.2264 44.9323 31.3796L45.7439 31.9639L46.5554 32.5482C46.9631 31.982 47.1324 31.311 47.1324 30.6042H46.1324ZM45.7439 31.9639L44.9323 31.3796C44.8331 31.5174 44.6805 31.635 44.3925 31.7027L44.6215 32.6762L44.8506 33.6496C45.541 33.4871 46.1366 33.1299 46.5554 32.5482L45.7439 31.9639ZM44.6215 32.6762L43.7341 33.1372L45.4608 36.461L46.3482 36L47.2356 35.539L45.5089 32.2152L44.6215 32.6762ZM46.3482 36V35H45.323V36V37H46.3482V36ZM45.323 36L46.2162 35.5504L44.5867 32.3129L43.6934 32.7625L42.8002 33.2121L44.4298 36.4496L45.323 36ZM43.6934 32.7625V31.7625H41.9344V32.7625V33.7625H43.6934V32.7625ZM41.9344 31.9855V32.9855H44.028V31.9855V30.9855H41.9344V31.9855ZM44.028 31.9855V32.9855C44.3724 32.9855 44.73 32.9285 45.0638 32.7689L44.6323 31.8668L44.2009 30.9647C44.2037 30.9633 44.1584 30.9855 44.028 30.9855V31.9855ZM44.6323 31.8668L45.0795 32.7612C45.4212 32.5904 45.7076 32.3292 45.8987 31.9787L45.0208 31.4999L44.1429 31.021C44.1495 31.009 44.1597 30.9952 44.1723 30.9833C44.1844 30.9718 44.1912 30.9693 44.1851 30.9724L44.6323 31.8668ZM45.0208 31.4999L45.8914 31.9919C46.086 31.6476 46.1611 31.2727 46.1611 30.9063H45.1611H44.1611C44.1611 31.0004 44.1427 31.0212 44.1503 31.0078L45.0208 31.4999ZM45.1611 30.9063H46.1611V30.3452H45.1611H44.1611V30.9063H45.1611ZM45.1611 30.3452H46.1611C46.1611 29.9806 46.0866 29.6004 45.8817 29.2537L45.0208 29.7624L44.1599 30.2711C44.1519 30.2577 44.1517 30.252 44.1538 30.2609C44.1562 30.2708 44.1611 30.2972 44.1611 30.3452H45.1611ZM45.0208 29.7624L45.9074 29.2999C45.7164 28.9338 45.4197 28.6563 45.049 28.4864L44.6323 29.3955L44.2157 30.3046C44.2093 30.3016 44.1921 30.2923 44.1723 30.2736C44.1524 30.2547 44.1401 30.2362 44.1342 30.225L45.0208 29.7624ZM44.6323 29.3955L45.0949 28.5089C44.753 28.3306 44.3838 28.266 44.028 28.266V29.266V30.266C44.147 30.266 44.1807 30.2878 44.1698 30.2821L44.6323 29.3955ZM44.028 29.266V28.266H41.9344V29.266V30.266H44.028V29.266ZM41.9344 29.266H40.9344V31.9855H41.9344H42.9344V29.266H41.9344ZM53.3806 36V35H52.4309V36V37H53.3806V36ZM52.4309 36L53.3777 35.6783L52.6223 33.4552L51.6755 33.7769L50.7287 34.0987L51.4841 36.3217L52.4309 36ZM51.6755 33.7769V32.7769H48.6322V33.7769V34.7769H51.6755V33.7769ZM48.6322 33.7769L47.6854 33.4552L46.93 35.6783L47.8768 36L48.8236 36.3217L49.5791 34.0987L48.6322 33.7769ZM47.8768 36V35H46.9595V36V37H47.8768V36ZM46.9595 36L47.9035 36.33L50.5367 28.7974L49.5927 28.4674L48.6487 28.1374L46.0155 35.67L46.9595 36ZM49.5927 28.4674V29.4674H50.7474V28.4674V27.4674H49.5927V28.4674ZM50.7474 28.4674L49.8034 28.7974L52.4366 36.33L53.3806 36L54.3246 35.67L51.6914 28.1374L50.7474 28.4674ZM51.4489 32.9783L52.3934 32.6498L51.4437 29.9195L50.4992 30.248L49.5547 30.5766L50.5044 33.3069L51.4489 32.9783ZM50.4992 30.248L51.4446 29.9221L51.1208 28.9832L50.1754 29.3092L49.2301 29.6352L49.5538 30.574L50.4992 30.248ZM50.1754 29.3092V28.3092H50.1215V29.3092V30.3092H50.1754V29.3092ZM50.1215 29.3092L49.1761 28.9832L48.8524 29.9221L49.7977 30.248L50.7431 30.574L51.0669 29.6352L50.1215 29.3092ZM49.7977 30.248L48.8532 29.9195L47.9036 32.6498L48.8481 32.9783L49.7926 33.3069L50.7422 30.5766L49.7977 30.248ZM48.8481 32.9783V33.9783H51.4489V32.9783V31.9783H48.8481V32.9783ZM59.1323 36H60.1323V34.8993H59.1323H58.1323V36H59.1323ZM59.1323 34.8993V33.8993H59.0999V34.8993V35.8993H59.1323V34.8993ZM59.0999 34.8993L58.1333 34.6428C58.1157 34.7092 58.0679 34.814 57.866 34.9446L58.4092 35.7842L58.9525 36.6237C59.4844 36.2795 59.897 35.7944 60.0665 35.1557L59.0999 34.8993ZM58.4092 35.7842L57.8702 34.9419C57.7183 35.0391 57.4554 35.1295 57.0063 35.1295V36.1295V37.1295C57.7083 37.1295 58.3807 36.9897 58.9483 36.6264L58.4092 35.7842ZM57.0063 36.1295V35.1295C56.5631 35.1295 56.2061 35.025 55.9045 34.8376L55.3768 35.687L54.8491 36.5365C55.4971 36.939 56.2264 37.1295 57.0063 37.1295V36.1295ZM55.3768 35.687L55.9195 34.8471C55.632 34.6614 55.3817 34.379 55.1837 33.9507L54.276 34.3705L53.3684 34.7902C53.7027 35.5131 54.1863 36.1084 54.8341 36.527L55.3768 35.687ZM54.276 34.3705L55.1856 33.955C54.9946 33.5368 54.8767 32.9751 54.8767 32.2337H53.8767H52.8767C52.8767 33.1758 53.0251 34.0387 53.3664 34.7859L54.276 34.3705ZM53.8767 32.2337H54.8767C54.8767 31.5003 54.9943 30.9476 55.1837 30.5383L54.276 30.1185L53.3684 29.6988C53.0253 30.4406 52.8767 31.298 52.8767 32.2337H53.8767ZM54.276 30.1185L55.1856 30.534C55.3812 30.1059 55.6335 29.824 55.9295 29.6385L55.3984 28.7912L54.8672 27.9439C54.1992 28.3626 53.7033 28.9656 53.3664 29.703L54.276 30.1185ZM55.3984 28.7912L55.9295 29.6385C56.233 29.4482 56.6052 29.3379 57.0819 29.3379V28.3379V27.3379C56.2779 27.3379 55.5278 27.5298 54.8672 27.9439L55.3984 28.7912ZM57.0819 28.3379V29.3379C57.6041 29.3379 57.9604 29.4559 58.2124 29.6279L58.7761 28.802L59.3399 27.976C58.6854 27.5293 57.9121 27.3379 57.0819 27.3379V28.3379ZM58.7761 28.802L58.2215 29.634C58.5293 29.8392 58.7614 30.102 58.9285 30.4363L59.8229 29.989L60.7174 29.5418C60.3953 28.8976 59.9295 28.369 59.3308 27.9699L58.7761 28.802ZM59.8229 29.989L59.303 29.1348L58.5584 29.5881L59.0783 30.4423L59.5983 31.2965L60.3429 30.8432L59.8229 29.989ZM59.0783 30.4423L59.9975 30.0484C59.7529 29.4777 59.372 29.0046 58.856 28.6606L58.3013 29.4926L57.7466 30.3247C57.9213 30.4411 58.0584 30.6011 58.1592 30.8362L59.0783 30.4423ZM58.3013 29.4926L58.8641 28.666C58.3346 28.3055 57.7243 28.1473 57.0819 28.1473V29.1473V30.1473C57.3891 30.1473 57.5918 30.2193 57.7385 30.3192L58.3013 29.4926ZM57.0819 29.1473V28.1473C56.4776 28.1473 55.9034 28.2932 55.3913 28.6092L55.9164 29.4602L56.4415 30.3113C56.6056 30.21 56.8084 30.1473 57.0819 30.1473V29.1473ZM55.9164 29.4602L55.4046 28.6011C54.8916 28.9067 54.5011 29.3424 54.2341 29.8764L55.1286 30.3236L56.023 30.7708C56.1301 30.5565 56.2648 30.4167 56.4282 30.3194L55.9164 29.4602ZM55.1286 30.3236L54.2377 29.8694C53.9656 30.403 53.848 30.9964 53.848 31.6186H54.848H55.848C55.848 31.248 55.9174 30.978 56.0195 30.7778L55.1286 30.3236ZM54.848 31.6186H53.848V32.838H54.848H55.848V31.6186H54.848ZM54.848 32.838H53.848C53.848 33.4609 53.9658 34.0544 54.2341 34.591L55.1286 34.1438L56.023 33.6966C55.9172 33.485 55.848 33.208 55.848 32.838H54.848ZM55.1286 34.1438L54.2377 34.598C54.5076 35.1274 54.9016 35.5559 55.41 35.8631L55.9272 35.0072L56.4443 34.1513C56.262 34.0411 56.1237 33.8941 56.0195 33.6896L55.1286 34.1438ZM55.9272 35.0072L55.4178 35.8677C55.9477 36.1813 56.5431 36.3201 57.1682 36.3201V35.3201V34.3201C56.8436 34.3201 56.6117 34.2503 56.4365 34.1466L55.9272 35.0072ZM57.1682 35.3201V36.3201C57.638 36.3201 58.0935 36.2382 58.5198 36.057L58.1287 35.1367L57.7375 34.2163C57.5882 34.2798 57.4034 34.3201 57.1682 34.3201V35.3201ZM58.1287 35.1367L58.5198 36.057C58.9707 35.8653 59.3515 35.5664 59.6363 35.163L58.8193 34.5863L58.0023 34.0096C57.9418 34.0954 57.8621 34.1634 57.7375 34.2163L58.1287 35.1367ZM58.8193 34.5863L59.625 35.1787C59.9556 34.729 60.0891 34.2036 60.0891 33.669H59.0891H58.0891C58.0891 33.8683 58.0428 33.9543 58.0137 33.9939L58.8193 34.5863ZM59.0891 33.669H60.0891V32.9244H59.0891H58.0891V33.669H59.0891ZM59.0891 32.9244V31.9244H57.4272V32.9244V33.9244H59.0891V32.9244ZM57.4272 32.9244H58.4272V32.1258H57.4272H56.4272V32.9244H57.4272ZM57.4272 32.1258V33.1258H59.974V32.1258V31.1258H57.4272V32.1258ZM59.974 32.1258H58.974V36H59.974H60.974V32.1258H59.974ZM59.974 36V35H59.1323V36V37H59.974V36ZM67.9884 36V35H63.8767V36V37H67.9884V36ZM63.8767 36H64.8767V28.4674H63.8767H62.8767V36H63.8767ZM63.8767 28.4674V29.4674H64.7832V28.4674V27.4674H63.8767V28.4674ZM64.7832 28.4674H63.7832V35.2014H64.7832H65.7832V28.4674H64.7832ZM64.7832 35.2014V36.2014H67.9884V35.2014V34.2014H64.7832V35.2014ZM67.9884 35.2014H66.9884V36H67.9884H68.9884V35.2014H67.9884ZM73.6645 36V35H69.0673V36V37H73.6645V36ZM69.0673 36H70.0673V28.4674H69.0673H68.0673V36H69.0673ZM69.0673 28.4674V29.4674H73.6645V28.4674V27.4674H69.0673V28.4674ZM73.6645 28.4674H72.6645V29.266H73.6645H74.6645V28.4674H73.6645ZM73.6645 29.266V28.266H69.9738V29.266V30.266H73.6645V29.266ZM69.9738 29.266H68.9738V31.7913H69.9738H70.9738V29.266H69.9738ZM69.9738 31.7913V32.7913H73.4487V31.7913V30.7913H69.9738V31.7913ZM73.4487 31.7913H72.4487V32.5898H73.4487H74.4487V31.7913H73.4487ZM73.4487 32.5898V31.5898H69.9738V32.5898V33.5898H73.4487V32.5898ZM69.9738 32.5898H68.9738V35.2014H69.9738H70.9738V32.5898H69.9738ZM69.9738 35.2014V36.2014H73.6645V35.2014V34.2014H69.9738V35.2014ZM73.6645 35.2014H72.6645V36H73.6645H74.6645V35.2014H73.6645ZM76.0496 36V35H75.1431V36V37H76.0496V36ZM75.1431 36H76.1431V28.4674H75.1431H74.1431V36H75.1431ZM75.1431 28.4674V29.4674H79.6324V28.4674V27.4674H75.1431V28.4674ZM79.6324 28.4674H78.6324V29.266H79.6324H80.6324V28.4674H79.6324ZM79.6324 29.266V28.266H76.0496V29.266V30.266H79.6324V29.266ZM76.0496 29.266H75.0496V31.7913H76.0496H77.0496V29.266H76.0496ZM76.0496 31.7913V32.7913H79.3194V31.7913V30.7913H76.0496V31.7913ZM79.3194 31.7913H78.3194V32.5898H79.3194H80.3194V31.7913H79.3194ZM79.3194 32.5898V31.5898H76.0496V32.5898V33.5898H79.3194V32.5898ZM76.0496 32.5898H75.0496V36H76.0496H77.0496V32.5898H76.0496ZM85.8872 29.266V28.266H83.4914V29.266V30.266H85.8872V29.266ZM83.4914 29.266H82.4914V36H83.4914H84.4914V29.266H83.4914ZM83.4914 36V35H82.5849V36V37H83.4914V36ZM82.5849 36H83.5849V29.266H82.5849H81.5849V36H82.5849ZM82.5849 29.266V28.266H80.1892V29.266V30.266H82.5849V29.266ZM80.1892 29.266H81.1892V28.4674H80.1892H79.1892V29.266H80.1892ZM80.1892 28.4674V29.4674H85.8872V28.4674V27.4674H80.1892V28.4674ZM85.8872 28.4674H84.8872V29.266H85.8872H86.8872V28.4674H85.8872ZM86.027 37.6295V36.6295H85.25V37.6295V38.6295H86.027V37.6295ZM85.25 37.6295L86.2096 37.9107L89.0263 28.2953L88.0666 28.0142L87.1069 27.733L84.2903 37.3484L85.25 37.6295ZM88.0666 28.0142V29.0142H88.8436V28.0142V27.0142H88.0666V28.0142ZM88.8436 28.0142L87.8839 27.733L85.0673 37.3484L86.027 37.6295L86.9866 37.9107L89.8033 28.2953L88.8436 28.0142ZM34.9101 42.7625H33.9101V46H34.9101H35.9101V42.7625H34.9101ZM34.9101 46V45H34.0036V46V47H34.9101V46ZM34.0036 46H35.0036V38.4674H34.0036H33.0036V46H34.0036ZM34.0036 38.4674V39.4674H37.0037V38.4674V37.4674H34.0036V38.4674ZM37.0037 38.4674V39.4674C37.3185 39.4674 37.5221 39.5266 37.6544 39.5974L38.126 38.7156L38.5977 37.8338C38.1113 37.5737 37.5666 37.4674 37.0037 37.4674V38.4674ZM38.126 38.7156L37.6628 39.6019C37.7985 39.6728 37.8919 39.7662 37.9629 39.9019L38.8491 39.4387L39.7353 38.9754C39.4753 38.478 39.0867 38.0894 38.5893 37.8294L38.126 38.7156ZM38.8491 39.4387L37.9712 39.9175C38.0446 40.052 38.1081 40.2658 38.1081 40.6042H39.1081H40.1081C40.1081 40.0216 39.9989 39.4584 39.727 38.9598L38.8491 39.4387ZM39.1081 40.6042H38.1081C38.1081 40.9909 38.0184 41.2264 37.9081 41.3796L38.7196 41.9639L39.5311 42.5482C39.9388 41.982 40.1081 41.311 40.1081 40.6042H39.1081ZM38.7196 41.9639L37.9081 41.3796C37.8088 41.5174 37.6562 41.635 37.3682 41.7028L37.5973 42.6762L37.8263 43.6496C38.5167 43.4871 39.1123 43.1299 39.5311 42.5482L38.7196 41.9639ZM37.5973 42.6762L36.7098 43.1372L38.4365 46.461L39.3239 46L40.2113 45.539L38.4847 42.2152L37.5973 42.6762ZM39.3239 46V45H38.2987V46V47H39.3239V46ZM38.2987 46L39.1919 45.5504L37.5624 42.3129L36.6692 42.7625L35.7759 43.2121L37.4055 46.4496L38.2987 46ZM36.6692 42.7625V41.7625H34.9101V42.7625V43.7625H36.6692V42.7625ZM34.9101 41.9855V42.9855H37.0037V41.9855V40.9855H34.9101V41.9855ZM37.0037 41.9855V42.9855C37.3481 42.9855 37.7057 42.9285 38.0395 42.7689L37.608 41.8668L37.1766 40.9647C37.1794 40.9633 37.1341 40.9855 37.0037 40.9855V41.9855ZM37.608 41.8668L38.0553 42.7612C38.3969 42.5904 38.6833 42.3292 38.8744 41.9787L37.9965 41.4999L37.1186 41.021C37.1252 41.009 37.1355 40.9952 37.148 40.9833C37.1602 40.9718 37.1669 40.9693 37.1608 40.9724L37.608 41.8668ZM37.9965 41.4999L38.8671 41.9919C39.0617 41.6476 39.1368 41.2727 39.1368 40.9063H38.1368H37.1368C37.1368 41.0004 37.1184 41.0212 37.126 41.0078L37.9965 41.4999ZM38.1368 40.9063H39.1368V40.3452H38.1368H37.1368V40.9063H38.1368ZM38.1368 40.3452H39.1368C39.1368 39.9807 39.0624 39.6004 38.8575 39.2537L37.9965 39.7624L37.1356 40.2711C37.1277 40.2577 37.1274 40.252 37.1295 40.2609C37.1319 40.2708 37.1368 40.2972 37.1368 40.3452H38.1368ZM37.9965 39.7624L38.8831 39.2999C38.6921 38.9338 38.3954 38.6563 38.0247 38.4864L37.608 39.3955L37.1914 40.3046C37.185 40.3016 37.1679 40.2923 37.148 40.2736C37.1281 40.2547 37.1158 40.2361 37.11 40.225L37.9965 39.7624ZM37.608 39.3955L38.0706 38.5089C37.7288 38.3306 37.3595 38.266 37.0037 38.266V39.266V40.266C37.1227 40.266 37.1564 40.2878 37.1455 40.2821L37.608 39.3955ZM37.0037 39.266V38.266H34.9101V39.266V40.266H37.0037V39.266ZM34.9101 39.266H33.9101V41.9855H34.9101H35.9101V39.266H34.9101ZM43.3562 46V45H40.3345V46V47H43.3562V46ZM40.3345 46H41.3345V45.2446H40.3345H39.3345V46H40.3345ZM40.3345 45.2446V46.2446H41.3921V45.2446V44.2446H40.3345V45.2446ZM41.3921 45.2446H42.3921V39.2228H41.3921H40.3921V45.2446H41.3921ZM41.3921 39.2228V38.2228H40.3345V39.2228V40.2228H41.3921V39.2228ZM40.3345 39.2228H41.3345V38.4674H40.3345H39.3345V39.2228H40.3345ZM40.3345 38.4674V39.4674H43.3562V38.4674V37.4674H40.3345V38.4674ZM43.3562 38.4674H42.3562V39.2228H43.3562H44.3562V38.4674H43.3562ZM43.3562 39.2228V38.2228H42.2986V39.2228V40.2228H43.3562V39.2228ZM42.2986 39.2228H41.2986V45.2446H42.2986H43.2986V39.2228H42.2986ZM42.2986 45.2446V46.2446H43.3562V45.2446V44.2446H42.2986V45.2446ZM43.3562 45.2446H42.3562V46H43.3562H44.3562V45.2446H43.3562ZM49.6735 46H50.6735V44.8993H49.6735H48.6735V46H49.6735ZM49.6735 44.8993V43.8993H49.6412V44.8993V45.8993H49.6735V44.8993ZM49.6412 44.8993L48.6746 44.6428C48.657 44.7092 48.6092 44.8139 48.4073 44.9446L48.9505 45.7842L49.4938 46.6237C50.0257 46.2796 50.4383 45.7944 50.6077 45.1557L49.6412 44.8993ZM48.9505 45.7842L48.4114 44.9419C48.2596 45.0391 47.9967 45.1295 47.5476 45.1295V46.1295V47.1295C48.2496 47.1295 48.922 46.9897 49.4896 46.6264L48.9505 45.7842ZM47.5476 46.1295V45.1295C47.1044 45.1295 46.7474 45.025 46.4457 44.8376L45.918 45.687L45.3904 46.5365C46.0384 46.939 46.7677 47.1295 47.5476 47.1295V46.1295ZM45.918 45.687L46.4608 44.8471C46.1733 44.6614 45.923 44.379 45.7249 43.9507L44.8173 44.3705L43.9097 44.7902C44.244 45.5131 44.7275 46.1084 45.3753 46.527L45.918 45.687ZM44.8173 44.3705L45.7269 43.955C45.5359 43.5368 45.418 42.9751 45.418 42.2337H44.418H43.418C43.418 43.1758 43.5663 44.0387 43.9077 44.7859L44.8173 44.3705ZM44.418 42.2337H45.418C45.418 41.5003 45.5356 40.9476 45.7249 40.5383L44.8173 40.1185L43.9097 39.6988C43.5666 40.4406 43.418 41.298 43.418 42.2337H44.418ZM44.8173 40.1185L45.7269 40.534C45.9224 40.1059 46.1747 39.824 46.4708 39.6385L45.9396 38.7912L45.4085 37.9439C44.7405 38.3626 44.2445 38.9656 43.9077 39.703L44.8173 40.1185ZM45.9396 38.7912L46.4708 39.6385C46.7742 39.4482 47.1465 39.3379 47.6231 39.3379V38.3379V37.3379C46.8192 37.3379 46.0691 37.5298 45.4085 37.9439L45.9396 38.7912ZM47.6231 38.3379V39.3379C48.1454 39.3379 48.5017 39.4559 48.7537 39.6279L49.3174 38.802L49.8812 37.976C49.2267 37.5293 48.4534 37.3379 47.6231 37.3379V38.3379ZM49.3174 38.802L48.7627 39.634C49.0706 39.8392 49.3027 40.102 49.4698 40.4363L50.3642 39.989L51.2586 39.5418C50.9365 38.8976 50.4708 38.369 49.8721 37.9699L49.3174 38.802ZM50.3642 39.989L49.8443 39.1348L49.0996 39.5881L49.6196 40.4423L50.1395 41.2965L50.8842 40.8432L50.3642 39.989ZM49.6196 40.4423L50.5387 40.0484C50.2942 39.4777 49.9133 39.0046 49.3973 38.6606L48.8426 39.4926L48.2879 40.3247C48.4626 40.4411 48.5997 40.6011 48.7004 40.8362L49.6196 40.4423ZM48.8426 39.4926L49.4054 38.666C48.8759 38.3055 48.2656 38.1473 47.6231 38.1473V39.1473V40.1473C47.9304 40.1473 48.133 40.2193 48.2798 40.3192L48.8426 39.4926ZM47.6231 39.1473V38.1473C47.0188 38.1473 46.4447 38.2932 45.9325 38.6092L46.4576 39.4603L46.9827 40.3113C47.1468 40.21 47.3497 40.1473 47.6231 40.1473V39.1473ZM46.4576 39.4603L45.9458 38.6012C45.4329 38.9067 45.0424 39.3424 44.7754 39.8764L45.6698 40.3236L46.5643 40.7708C46.6714 40.5565 46.8061 40.4167 46.9694 40.3194L46.4576 39.4603ZM45.6698 40.3236L44.7789 39.8694C44.5069 40.403 44.3893 40.9964 44.3893 41.6186H45.3893H46.3893C46.3893 41.248 46.4587 40.978 46.5607 40.7778L45.6698 40.3236ZM45.3893 41.6186H44.3893V42.838H45.3893H46.3893V41.6186H45.3893ZM45.3893 42.838H44.3893C44.3893 43.4609 44.5071 44.0544 44.7754 44.591L45.6698 44.1438L46.5643 43.6966C46.4585 43.485 46.3893 43.208 46.3893 42.838H45.3893ZM45.6698 44.1438L44.7789 44.598C45.0488 45.1274 45.4429 45.5559 45.9513 45.8631L46.4684 45.0072L46.9855 44.1513C46.8033 44.0411 46.665 43.8941 46.5607 43.6896L45.6698 44.1438ZM46.4684 45.0072L45.9591 45.8677C46.489 46.1813 47.0843 46.3201 47.7095 46.3201V45.3201V44.3201C47.3849 44.3201 47.1529 44.2503 46.9777 44.1466L46.4684 45.0072ZM47.7095 45.3201V46.3201C48.1793 46.3201 48.6348 46.2382 49.0611 46.057L48.6699 45.1367L48.2788 44.2163C48.1295 44.2798 47.9447 44.3201 47.7095 44.3201V45.3201ZM48.6699 45.1367L49.0611 46.057C49.512 45.8653 49.8928 45.5664 50.1776 45.163L49.3606 44.5863L48.5436 44.0096C48.4831 44.0954 48.4034 44.1634 48.2788 44.2163L48.6699 45.1367ZM49.3606 44.5863L50.1662 45.1787C50.4969 44.729 50.6304 44.2036 50.6304 43.669H49.6304H48.6304C48.6304 43.8683 48.584 43.9543 48.5549 43.9939L49.3606 44.5863ZM49.6304 43.669H50.6304V42.9244H49.6304H48.6304V43.669H49.6304ZM49.6304 42.9244V41.9244H47.9685V42.9244V43.9244H49.6304V42.9244ZM47.9685 42.9244H48.9685V42.1258H47.9685H46.9685V42.9244H47.9685ZM47.9685 42.1258V43.1258H50.5153V42.1258V41.1258H47.9685V42.1258ZM50.5153 42.1258H49.5153V46H50.5153H51.5153V42.1258H50.5153ZM50.5153 46V45H49.6735V46V47H50.5153V46ZM56.7994 46H57.7994V42.5898H56.7994H55.7994V46H56.7994ZM56.7994 42.5898V41.5898H52.99V42.5898V43.5898H56.7994V42.5898ZM52.99 42.5898H51.99V46H52.99H53.99V42.5898H52.99ZM52.99 46V45H52.0835V46V47H52.99V46ZM52.0835 46H53.0835V38.4674H52.0835H51.0835V46H52.0835ZM52.0835 38.4674V39.4674H52.99V38.4674V37.4674H52.0835V38.4674ZM52.99 38.4674H51.99V41.7912H52.99H53.99V38.4674H52.99ZM52.99 41.7912V42.7912H56.7994V41.7912V40.7912H52.99V41.7912ZM56.7994 41.7912H57.7994V38.4674H56.7994H55.7994V41.7912H56.7994ZM56.7994 38.4674V39.4674H57.7059V38.4674V37.4674H56.7994V38.4674ZM57.7059 38.4674H56.7059V46H57.7059H58.7059V38.4674H57.7059ZM57.7059 46V45H56.7994V46V47H57.7059V46ZM64.4295 39.266V38.266H62.0337V39.266V40.266H64.4295V39.266ZM62.0337 39.266H61.0337V46H62.0337H63.0337V39.266H62.0337ZM62.0337 46V45H61.1272V46V47H62.0337V46ZM61.1272 46H62.1272V39.266H61.1272H60.1272V46H61.1272ZM61.1272 39.266V38.266H58.7315V39.266V40.266H61.1272V39.266ZM58.7315 39.266H59.7315V38.4674H58.7315H57.7315V39.266H58.7315ZM58.7315 38.4674V39.4674H64.4295V38.4674V37.4674H58.7315V38.4674ZM64.4295 38.4674H63.4295V39.266H64.4295H65.4295V38.4674H64.4295ZM21 0V1C31.4025 1 39.9496 8.94284 40.9087 19.0941L41.9043 19L42.8999 18.9059C41.8446 7.73758 32.4442 -1 21 -1V0ZM41.9043 19V18H40.3984V19V20H41.9043V19ZM40.3984 19L41.3933 18.8986C40.3403 8.5635 31.6126 0.5 21 0.5V1.5V2.5C30.576 2.5 38.4536 9.77652 39.4036 19.1014L40.3984 19ZM21 1.5V0.5C9.67816 0.5 0.5 9.67816 0.5 21H1.5H2.5C2.5 10.7827 10.7827 2.5 21 2.5V1.5ZM1.5 21H0.5C0.5 32.3218 9.67816 41.5 21 41.5V40.5V39.5C10.7827 39.5 2.5 31.2173 2.5 21H1.5ZM21 40.5V41.5C21.7094 41.5 22.4104 41.4637 23.1014 41.3933L23 40.3984L22.8986 39.4036C22.2745 39.4672 21.6411 39.5 21 39.5V40.5ZM23 40.3984H22V41.9043H23H24V40.3984H23ZM23 41.9043L22.9059 40.9087C22.2771 40.9681 21.6415 41 21 41V42V43C21.7077 43 22.4062 42.9649 23.0941 42.8999L23 41.9043ZM21 42V41C9.95431 41 1 32.0457 1 21H0H-1C-1 33.1503 8.84974 43 21 43V42ZM0 21H1C1 9.95431 9.95431 1 21 1V0V-1C8.84974 -1 -1 8.84974 -1 21H0Z" fill="#D82E11" mask="url(#path-1-inside-1_1736_390)"/>
</svg>
