<svg width="73" height="43" viewBox="0 0 73 43" fill="none" xmlns="http://www.w3.org/2000/svg">
<path d="M30.0036 32V24.4674H32.5289C33.1548 24.4674 33.698 24.6077 34.1584 24.8883C34.6261 25.1617 34.9858 25.579 35.2376 26.1401C35.4894 26.6941 35.6153 27.392 35.6153 28.2337C35.6153 29.0755 35.4894 29.7769 35.2376 30.3381C34.9858 30.8921 34.6261 31.3093 34.1584 31.5899C33.698 31.8633 33.1548 32 32.5289 32H30.0036ZM30.9101 31.2014H32.5289C32.9462 31.2014 33.3131 31.1079 33.6296 30.9208C33.9462 30.7338 34.1944 30.4676 34.3743 30.1222C34.5541 29.7697 34.644 29.3452 34.644 28.8488V27.6186C34.644 27.1222 34.5541 26.6977 34.3743 26.3452C34.1944 25.9926 33.9462 25.7264 33.6296 25.5466C33.3131 25.3595 32.9462 25.266 32.5289 25.266H30.9101V31.2014Z" fill="#D82E11"/>
<path d="M37.9344 28.7625V32H37.0279V24.4674H40.028C40.4668 24.4674 40.841 24.5502 41.1503 24.7156C41.4669 24.8811 41.7079 25.1221 41.8734 25.4387C42.046 25.7552 42.1324 26.1437 42.1324 26.6042C42.1324 27.1509 42.0029 27.6042 41.7439 27.9639C41.4849 28.3236 41.1108 28.5611 40.6215 28.6762L42.3482 32H41.323L39.6934 28.7625H37.9344ZM37.9344 27.9855H40.028C40.2654 27.9855 40.4668 27.9459 40.6323 27.8668C40.805 27.7805 40.9345 27.6582 41.0208 27.4999C41.1143 27.3344 41.1611 27.1366 41.1611 26.9063V26.3452C41.1611 26.1149 41.1143 25.9207 41.0208 25.7624C40.9345 25.5969 40.805 25.4746 40.6323 25.3955C40.4668 25.3092 40.2654 25.266 40.028 25.266H37.9344V27.9855Z" fill="#D82E11"/>
<path d="M49.3806 32H48.4309L47.6755 29.7769H44.6322L43.8768 32H42.9595L45.5927 24.4674H46.7474L49.3806 32ZM47.4489 28.9783L46.4992 26.248L46.1754 25.3092H46.1215L45.7977 26.248L44.8481 28.9783H47.4489Z" fill="#D82E11"/>
<path d="M55.1323 32V30.8993H55.0999C55.0064 31.2518 54.7761 31.5467 54.4092 31.7842C54.0495 32.0144 53.5819 32.1295 53.0063 32.1295C52.3948 32.1295 51.8516 31.982 51.3768 31.687C50.9091 31.3849 50.5422 30.946 50.276 30.3705C50.0098 29.7877 49.8767 29.0755 49.8767 28.2337C49.8767 27.3992 50.0098 26.6941 50.276 26.1185C50.5422 25.5358 50.9163 25.0933 51.3984 24.7912C51.8804 24.489 52.4416 24.3379 53.0819 24.3379C53.7581 24.3379 54.3229 24.4926 54.7761 24.802C55.2294 25.1041 55.5783 25.4998 55.8229 25.989L55.0783 26.4423C54.9056 26.0394 54.6466 25.7228 54.3013 25.4926C53.9632 25.2624 53.5567 25.1473 53.0819 25.1473C52.643 25.1473 52.2545 25.2516 51.9164 25.4602C51.5782 25.6617 51.3156 25.9495 51.1286 26.3236C50.9415 26.6905 50.848 27.1222 50.848 27.6186V28.838C50.848 29.3345 50.9415 29.7697 51.1286 30.1438C51.3156 30.5107 51.5818 30.7985 51.9272 31.0072C52.2797 31.2158 52.6934 31.3201 53.1682 31.3201C53.5207 31.3201 53.8409 31.259 54.1287 31.1367C54.4164 31.0144 54.6467 30.8309 54.8193 30.5863C54.9992 30.3417 55.0891 30.0359 55.0891 29.669V28.9244H53.4272V28.1258H55.974V32H55.1323Z" fill="#D82E11"/>
<path d="M64.8085 25.266H62.4128V32H61.5063V25.266H59.1105V24.4674H64.8085V25.266Z" fill="#D82E11"/>
<path d="M68.4424 32.1295C67.7949 32.1295 67.2302 31.982 66.7482 31.687C66.2733 31.3849 65.9028 30.946 65.6366 30.3705C65.3776 29.7877 65.2481 29.0755 65.2481 28.2337C65.2481 27.392 65.3776 26.6833 65.6366 26.1077C65.9028 25.525 66.2733 25.0861 66.7482 24.7912C67.2302 24.489 67.7949 24.3379 68.4424 24.3379C69.0899 24.3379 69.6511 24.489 70.1259 24.7912C70.608 25.0861 70.9785 25.525 71.2375 26.1077C71.5037 26.6833 71.6368 27.392 71.6368 28.2337C71.6368 29.0755 71.5037 29.7877 71.2375 30.3705C70.9785 30.946 70.608 31.3849 70.1259 31.687C69.6511 31.982 69.0899 32.1295 68.4424 32.1295ZM68.4424 31.3201C68.8813 31.3201 69.2662 31.2194 69.5972 31.018C69.9281 30.8093 70.1871 30.5215 70.3742 30.1546C70.5684 29.7877 70.6655 29.356 70.6655 28.8596V27.6078C70.6655 27.1114 70.5684 26.6797 70.3742 26.3128C70.1871 25.9387 69.9281 25.6509 69.5972 25.4495C69.2662 25.248 68.8813 25.1473 68.4424 25.1473C68.0108 25.1473 67.6259 25.248 67.2877 25.4495C66.9568 25.6509 66.6942 25.9387 66.4999 26.3128C66.3129 26.6797 66.2194 27.1114 66.2194 27.6078V28.8596C66.2194 29.356 66.3129 29.7877 66.4999 30.1546C66.6942 30.5215 66.9568 30.8093 67.2877 31.018C67.6259 31.2194 68.0108 31.3201 68.4424 31.3201Z" fill="#D82E11"/>
<path d="M34.6009 42H30.0036V34.4674H34.6009V35.266H30.9101V37.7912H34.385V38.5898H30.9101V41.2014H34.6009V42Z" fill="#D82E11"/>
<path d="M35.3348 42L37.7953 38.169L35.3995 34.4674H36.4895L38.378 37.4675H38.3996L40.3313 34.4674H41.3673L38.95 38.1366L41.4321 42H40.3421L38.3673 38.838H38.3457L36.3708 42H35.3348Z" fill="#D82E11"/>
<path d="M43.3884 42H42.4819V34.4674H45.482C45.9352 34.4674 46.3166 34.5573 46.6259 34.7372C46.9425 34.9099 47.1799 35.1581 47.3382 35.4818C47.5036 35.7984 47.5864 36.1797 47.5864 36.6257C47.5864 37.0646 47.5036 37.4459 47.3382 37.7697C47.1799 38.0934 46.9425 38.3452 46.6259 38.5251C46.3166 38.6977 45.9352 38.7841 45.482 38.7841H43.3884V42ZM43.3884 35.266V37.9855H45.482C45.7194 37.9855 45.9209 37.9459 46.0863 37.8668C46.259 37.7805 46.3885 37.6582 46.4748 37.4999C46.5684 37.3344 46.6151 37.1366 46.6151 36.9063V36.3452C46.6151 36.1149 46.5684 35.9207 46.4748 35.7624C46.3885 35.5969 46.259 35.4746 46.0863 35.3955C45.9209 35.3092 45.7194 35.266 45.482 35.266H43.3884Z" fill="#D82E11"/>
<path d="M52.9223 42H48.8106V34.4674H49.7171V41.2014H52.9223V42Z" fill="#D82E11"/>
<path d="M56.4911 42.1295C55.8436 42.1295 55.2788 41.982 54.7968 41.687C54.322 41.3849 53.9515 40.946 53.6853 40.3705C53.4263 39.7877 53.2968 39.0755 53.2968 38.2337C53.2968 37.392 53.4263 36.6833 53.6853 36.1077C53.9515 35.525 54.322 35.0861 54.7968 34.7912C55.2788 34.489 55.8436 34.3379 56.4911 34.3379C57.1386 34.3379 57.6998 34.489 58.1746 34.7912C58.6566 35.0861 59.0271 35.525 59.2861 36.1077C59.5523 36.6833 59.6854 37.392 59.6854 38.2337C59.6854 39.0755 59.5523 39.7877 59.2861 40.3705C59.0271 40.946 58.6566 41.3849 58.1746 41.687C57.6998 41.982 57.1386 42.1295 56.4911 42.1295ZM56.4911 41.3201C56.93 41.3201 57.3149 41.2194 57.6458 41.018C57.9767 40.8093 58.2358 40.5215 58.4228 40.1546C58.6171 39.7877 58.7142 39.356 58.7142 38.8596V37.6078C58.7142 37.1114 58.6171 36.6797 58.4228 36.3128C58.2358 35.9387 57.9767 35.6509 57.6458 35.4495C57.3149 35.248 56.93 35.1473 56.4911 35.1473C56.0594 35.1473 55.6745 35.248 55.3364 35.4495C55.0054 35.6509 54.7428 35.9387 54.5486 36.3128C54.3615 36.6797 54.268 37.1114 54.268 37.6078V38.8596C54.268 39.356 54.3615 39.7877 54.5486 40.1546C54.7428 40.5215 55.0054 40.8093 55.3364 41.018C55.6745 41.2194 56.0594 41.3201 56.4911 41.3201Z" fill="#D82E11"/>
<path d="M62.0057 38.7625V42H61.0992V34.4674H64.0993C64.5382 34.4674 64.9123 34.5502 65.2216 34.7156C65.5382 34.8811 65.7792 35.1221 65.9447 35.4387C66.1173 35.7552 66.2037 36.1437 66.2037 36.6042C66.2037 37.1509 66.0742 37.6042 65.8152 37.9639C65.5562 38.3236 65.1821 38.5611 64.6928 38.6762L66.4195 42H65.3943L63.7648 38.7625H62.0057ZM62.0057 37.9855H64.0993C64.3367 37.9855 64.5382 37.9459 64.7036 37.8668C64.8763 37.7805 65.0058 37.6582 65.0921 37.4999C65.1857 37.3344 65.2324 37.1366 65.2324 36.9063V36.3452C65.2324 36.1149 65.1857 35.9207 65.0921 35.7624C65.0058 35.5969 64.8763 35.4746 64.7036 35.3955C64.5382 35.3092 64.3367 35.266 64.0993 35.266H62.0057V37.9855Z" fill="#D82E11"/>
<path d="M72.3835 42H67.7863V34.4674H72.3835V35.266H68.6928V37.7912H72.1677V38.5898H68.6928V41.2014H72.3835V42Z" fill="#D82E11"/>
<path d="M21 0C31.9234 0 40.8971 8.34021 41.9043 19H40.3984C39.397 9.17001 31.0943 1.5 21 1.5C10.2304 1.5 1.5 10.2304 1.5 21C1.5 31.7696 10.2304 40.5 21 40.5C21.6752 40.5 22.3424 40.4654 23 40.3984V41.9043C22.3417 41.9665 21.6746 42 21 42C9.40202 42 0 32.598 0 21C0 9.40202 9.40202 0 21 0Z" fill="#D82E11"/>
</svg>
